<?xml version="1.0" encoding="utf-8"?>
<!-- Generator: Adobe Illustrator 26.0.0, SVG Export Plug-In . SVG Version: 6.00 Build 0)  -->
<svg version="1.1" id="Layer_1" xmlns="http://www.w3.org/2000/svg" xmlns:xlink="http://www.w3.org/1999/xlink" x="0px" y="0px"
	 viewBox="0 0 345.84 253.06" style="enable-background:new 0 0 345.84 253.06;" xml:space="preserve">
<style type="text/css">
	.st0{fill:#200C39;}
</style>
<g>
	<path class="st0" d="M0,39.96c0.72-0.1,0.74-0.74,0.94-1.23c2.77-6.87,8.08-9.96,15.27-10.09c4.84-0.09,9.68-0.08,14.52,0.01
		c2.11,0.04,3.29-0.74,3.98-2.79c1.67-5,3.48-9.95,5.29-14.91c2.73-7.49,7.59-10.92,15.57-10.93c23.31-0.02,46.61-0.02,69.92,0
		c8.19,0.01,12.94,3.4,15.74,11.14c1.6,4.43,3.38,8.81,4.68,13.33c0.96,3.32,2.77,4.2,6.1,4.2c46.5-0.1,93-0.06,139.5-0.08
		c6.8,0,12.35,2.14,15.68,8.45c1.23,2.34,1.7,4.85,1.68,7.49c-0.03,5.97,0.15,11.94-0.08,17.9c-0.1,2.65,0.78,3.15,3.2,3.07
		c5.29-0.18,10.58-0.09,15.87-0.05c13.08,0.09,20.32,9.23,17.29,21.94c-7.88,32.99-15.84,65.95-23.73,98.93
		c-4.34,18.13-8.63,36.27-12.87,54.42c-1.67,7.13-7.28,11.88-14.63,12.13c-1.35,0.05-2.7,0.03-4.05,0.03
		c-89.85,0-179.7-0.1-269.55,0.14c-9.58,0.03-16.64-2.43-20.31-11.71C0,174.22,0,107.09,0,39.96z M154.35,240.99
		c45.49,0,90.98,0,136.48,0c5.57,0,6.03-0.45,6.03-5.9c0-62.83,0-125.67,0-188.5c0-5.52-0.42-5.93-5.99-5.93
		c-46.84,0-93.69,0.01-140.53-0.01c-7.51,0-12.55-3.56-15.12-10.6c-1.81-4.95-3.65-9.9-5.3-14.9c-0.75-2.3-2.1-3.23-4.44-3.23
		c-23.2,0.02-46.39,0.03-69.59-0.01c-2.47,0-3.88,0.92-4.69,3.37c-1.75,5.33-3.69,10.6-5.71,15.83c-2.31,5.98-7.4,9.45-13.77,9.53
		c-4.5,0.05-9.01,0.01-13.51,0.02c-5.82,0-6.16,0.33-6.16,6.08c0,62.72,0,125.44,0,188.16c0,5.71,0.38,6.09,6.16,6.09
		C63.59,240.99,108.97,240.99,154.35,240.99z M308.86,184.68c0.15,0.04,0.3,0.08,0.44,0.12c0.26-0.81,0.56-1.61,0.76-2.43
		c7.85-32.73,15.71-65.46,23.53-98.2c1.1-4.61-0.68-6.78-5.56-6.82c-5.17-0.05-10.36,0.16-15.52-0.08
		c-2.88-0.13-3.75,0.52-3.74,3.62c0.13,33.63,0.08,67.27,0.08,100.9C308.86,182.76,308.86,183.72,308.86,184.68z"/>
	<path class="st0" d="M154.51,222.54c-15.87,0-31.74,0.01-47.62,0c-6.37,0-8.23-1.87-8.24-8.23c0-27.92-0.01-55.84,0-83.75
		c0-6.29,1.92-8.16,8.33-8.17c7.09-0.02,6.98-0.02,7.12-7.18c0.17-8.29-0.8-16.64,1.4-24.85c5.04-18.79,23.67-31.47,43.39-29.38
		c19.5,2.06,35.1,18.65,35.75,38.19c0.23,6.86,0.17,13.73,0.07,20.6c-0.03,2.03,0.44,2.9,2.6,2.66c1.56-0.18,3.15-0.04,4.72-0.03
		c6.17,0.02,8.13,1.93,8.13,8.02c0.01,16.66,0,33.32,0,49.98c0,11.48,0.01,22.96-0.01,34.45c-0.01,5.68-2.01,7.7-7.72,7.71
		C186.48,222.55,170.5,222.54,154.51,222.54z M154.41,134.4c-13.51,0-27.03,0.05-40.54-0.05c-2.32-0.02-3.26,0.28-3.25,3.01
		c0.13,23.42,0.13,46.85,0,70.27c-0.01,2.73,0.94,3.05,3.28,3.05c27.03-0.07,54.06-0.08,81.08,0c2.41,0.01,3.26-0.43,3.25-3.09
		c-0.12-23.42-0.1-46.85-0.01-70.27c0.01-2.34-0.53-3-2.94-2.98C181.66,134.46,168.04,134.4,154.41,134.4z M154.33,122.38
		c8.67,0,17.34-0.07,26,0.05c2.11,0.03,2.73-0.59,2.61-2.65c-0.17-3.03-0.01-6.08-0.05-9.12c-0.09-6.27,0.35-12.55-1.67-18.71
		c-4.19-12.79-16.95-20.55-31.38-18.82c-11.93,1.43-22.55,12.84-23.54,25.15c-0.57,7.09-0.06,14.18-0.37,21.26
		c-0.11,2.5,0.82,2.92,3.06,2.89C137.44,122.31,145.88,122.38,154.33,122.38z"/>
	<path class="st0" d="M154.85,144.49c8.47,0.25,15.67,6.08,17.48,14.16c1.85,8.29-1.83,16.61-9.43,20.4
		c-2.12,1.06-2.64,2.24-2.55,4.37c0.15,3.59,0.13,7.2,0.01,10.79c-0.13,3.95-2.48,6.48-5.84,6.53c-3.47,0.06-5.9-2.59-5.99-6.71
		c-0.08-3.48-0.13-6.98,0.02-10.46c0.1-2.24-0.45-3.48-2.71-4.61c-7.62-3.8-11.35-12.63-9.21-20.81
		C138.76,150,146.43,144.25,154.85,144.49z M154.47,169.18c3.52-0.02,6.44-2.98,6.37-6.48c-0.07-3.32-2.94-6.22-6.26-6.31
		c-3.38-0.1-6.52,2.95-6.55,6.38C147.98,166.24,150.95,169.19,154.47,169.18z"/>
</g>
</svg>
