<?xml version="1.0" encoding="utf-8"?>
<!-- Generator: Adobe Illustrator 26.0.0, SVG Export Plug-In . SVG Version: 6.00 Build 0)  -->
<svg version="1.1" id="Layer_1" xmlns="http://www.w3.org/2000/svg" xmlns:xlink="http://www.w3.org/1999/xlink" x="0px" y="0px"
	 viewBox="0 0 353.1 383.24" style="enable-background:new 0 0 353.1 383.24;" xml:space="preserve">
<style type="text/css">
	.st0{fill:#200C39;}
</style>
<g>
	<path class="st0" d="M178.8,0c2.1,1.44,3.38,3.47,4.4,5.77c4.54,10.2,9.17,20.37,13.7,30.57c0.77,1.74,1.7,2.62,3.78,2.83
		c10.65,1.05,21.28,2.33,31.92,3.54c1.11,0.13,2.22,0.36,3.33,0.44c3.04,0.24,5.18,1.62,6.04,4.66c0.84,2.98-0.74,4.99-2.75,6.82
		c-8.02,7.31-15.91,14.76-24.11,21.85c-2.81,2.43-3.61,4.6-2.75,8.25c2.42,10.27,4.37,20.65,6.51,30.99
		c0.65,3.14,1.11,6.25-2.03,8.44c-2.93,2.04-5.62,0.9-8.34-0.66c-9.7-5.56-19.5-10.97-29.12-16.66c-2.16-1.28-3.6-1.14-5.66,0.06
		c-9.77,5.69-19.66,11.16-29.46,16.8c-2.67,1.54-5.24,2.33-8,0.44c-2.86-1.96-2.74-4.85-2.16-7.74c2.24-11.08,4.42-22.17,6.93-33.18
		c0.61-2.66-0.12-4.07-1.96-5.72c-8.36-7.49-16.6-15.1-24.9-22.65c-2.1-1.91-3.9-3.89-3.01-7.07c0.91-3.26,3.33-4.37,6.42-4.71
		c11.63-1.29,23.24-2.72,34.88-3.9c2.1-0.21,3.01-1.12,3.78-2.84c4.53-10.2,9.16-20.36,13.69-30.56c1.02-2.29,2.29-4.33,4.4-5.77
		C175.8,0,177.3,0,178.8,0z M222.03,53.87c-8.91-1.04-17.05-2.31-25.23-2.84c-5.04-0.32-7.9-2.34-9.78-6.97
		c-3.11-7.63-6.73-15.06-10.47-23.32c-3.33,7.35-6.64,13.84-9.22,20.61c-2.36,6.17-5.61,10.41-12.89,9.86
		c-1.34-0.1-2.72,0.25-4.08,0.41c-6.18,0.72-12.37,1.45-19.24,2.26c7.08,6.47,13.41,12.45,19.98,18.17
		c2.82,2.45,3.59,5.22,2.86,8.66c-0.85,4.01-1.75,8.01-2.57,12.02c-0.95,4.63-1.83,9.28-2.87,14.54c7.85-4.44,15.12-8.24,22.04-12.6
		c4.25-2.68,7.75-2.68,11.99-0.03c6.99,4.36,14.29,8.21,22.13,12.66c-1.89-9.15-3.55-17.54-5.39-25.89
		c-0.86-3.89-0.17-6.89,3.01-9.63C208.8,66.18,215.02,60.26,222.03,53.87z"/>
	<path class="st0" d="M80.12,334.68c0.54-2.1-0.21-3.11-3.45-3.51c-16.48-2.03-26.24-19-18.13-33.16c4.83-8.44,5.1-15.99,2.78-24.76
		c-1.41-5.33-3.54-8.82-9.06-10.99c-11.76-4.64-23.17-10.15-34.7-15.35c-5.02-2.26-6.07-5.16-3.73-10.15
		c13.23-28.18,26.48-56.36,39.74-84.53c2.46-5.23,5.2-6.2,10.48-3.76c13.05,6.04,26.1,12.11,39.14,18.17
		c6.74,3.13,13.6,2.11,20.47,0.6c10.07-2.2,20.04-4.92,30.54-4.24c7.72,0.5,14.88,2.65,21.63,6.27c1.52,0.81,2.67,1.2,4.36,0.19
		c17.24-10.39,35.14-10.94,53.64-3.64c6.56,2.59,12.97,5.61,19.9,7.24c4.7,1.11,9.04,0.67,13.31-1.67
		c9.04-4.95,18.16-9.76,27.25-14.61c5.29-2.82,8.62-1.62,10.81,4.02c11.53,29.71,23.04,59.42,34.52,89.14
		c1.91,4.94,0.73,7.6-4.25,9.73c-11.17,4.78-22.34,9.55-33.55,14.25c-1.82,0.76-2.56,1.56-2.46,3.78
		c0.55,12.41-7.56,22.11-19.84,23.91c-1.93,0.28-2.64,0.72-2.59,2.94c0.32,13.9-9.43,23.89-23.33,23.97
		c-2.18,0.01-2.9,0.27-2.98,2.71c-0.35,11.17-8.18,20.02-19.27,21.84c-1.94,0.32-2.28,0.65-2.07,2.66
		c1.75,17.18-16.2,30.05-32.19,23.13c-2.73-1.18-5.34-2.65-7.9-4.16c-1.53-0.9-2.39-0.83-3.74,0.54
		c-12.47,12.63-29.9,10.07-38.49-5.65c-0.78-1.43-1.34-1.64-2.8-1.26c-12.99,3.41-20.65,0.5-28.29-10.96
		c-1.39-2.09-2.46-0.82-3.67-0.36c-13.04,4.96-26.6-1.13-30.96-13.92C80.38,340.59,79.84,338.05,80.12,334.68z M73.28,271.25
		c16.53-13.87,36.77-3.96,39.46,12.22c0.43,2.59,2.06,1.59,3.3,1.55c11.3-0.37,19.54,4.75,23.66,15.11c0.74,1.87,1.29,1.97,3.15,1.6
		c12.27-2.43,22.23,2.93,26.99,14.44c0.78,1.87,1.64,2.26,3.53,1.76c6.38-1.68,12.35-0.42,17.79,3.16c2.06,1.35,3.62,3.5,5.74,4.71
		c8.62,4.94,17.24,9.9,26.09,14.39c6.5,3.3,14.13-0.88,15.54-7.97c0.92-4.62-1.44-9.32-6.27-12.06
		c-11.45-6.51-22.94-12.93-34.4-19.41c-4.42-2.5-5.76-5.65-3.93-9.04c1.8-3.35,5.43-3.96,9.72-1.62c1.64,0.89,3.27,1.79,4.89,2.7
		c13.12,7.34,26.23,14.68,39.34,22.02c4.01,2.25,8.05,2.45,12-0.09c3.55-2.27,5.22-5.59,4.98-9.79c-0.25-4.35-2.53-7.38-6.26-9.49
		c-11.36-6.41-22.7-12.86-34.04-19.3c-1.51-0.86-3.13-1.55-4.07-3.16c-1.5-2.56-1.36-5.09,0.61-7.24c2.34-2.56,5.1-2.62,8.1-0.92
		c13.4,7.6,26.83,15.13,40.25,22.7c1.73,0.98,3.42,1.99,5.49,2.14c5.6,0.4,10.31-2.56,11.92-7.56c1.68-5.2-0.53-10.38-5.94-13.48
		c-19.3-11.05-38.64-22.03-57.94-33.07c-5.12-2.93-10.52-3.43-16.22-2.38c-10.35,1.9-19.74,6.57-29.47,10.25
		c-8.41,3.17-16.92,5.98-25.93,6.34c-17.23,0.69-29.5-8.05-39.09-21.44c-1.39-1.95-1.38-4.16-0.26-6.35
		c0.92-1.8,2.65-2.56,4.25-3.48c18.81-10.79,35.45-24.31,50.53-40.07c-4.26-1.94-8.63-3.04-13.24-3.33
		c-9.49-0.59-18.48,2.1-27.55,4.18c-10.88,2.5-21.25,2.2-31.48-3.22c-9.41-4.99-19.35-8.98-28.98-13.57
		c-2.18-1.04-3.1-0.85-4.17,1.46c-11.1,23.85-22.29,47.65-33.56,71.42c-1.05,2.22-0.36,2.76,1.55,3.6
		c9.89,4.31,19.58,9.1,29.61,13.06c7.65,3.02,11.67,8.45,13.49,16.06C72.7,268.99,72.94,269.94,73.28,271.25z M126.65,226.33
		c0.42,0.62,0.59,0.96,0.84,1.22c10.09,10.81,22.37,11.82,35.69,7.88c11.08-3.27,21.43-8.52,32.43-12
		c11.63-3.68,23.02-4.61,34.21,1.89c18.69,10.86,37.53,21.45,56.3,32.17c2.38,1.36,4.8,2.71,6.56,4.87
		c1.15,1.41,2.26,1.41,3.82,0.73c9.22-3.99,18.47-7.91,27.73-11.79c1.78-0.75,2.38-1.41,1.54-3.55
		c-9.87-25.16-19.63-50.36-29.32-75.58c-0.75-1.96-1.38-2.11-3.09-1.16c-6.96,3.83-14,7.51-20.98,11.31
		c-6.65,3.62-13.64,4.26-20.96,2.68c-8.55-1.84-16.35-5.76-24.48-8.78c-15.25-5.67-29.49-3.75-43,5.05
		c-4.92,3.2-9.61,6.72-13.74,10.88C157.13,205.29,142.72,216.69,126.65,226.33z M103.06,346.61c4.05,0.06,7.41-1.48,9.36-5.01
		c5.33-9.66,10.63-19.35,15.58-29.22c2.57-5.13,0.03-11.48-4.93-14.04c-4.94-2.55-11.69-1-14.43,3.87
		c-5.35,9.51-10.59,19.11-15.4,28.9C89.63,338.47,95.01,346.56,103.06,346.61z M148.43,313.36c-4.18-0.04-7.37,1.36-9.38,4.94
		c-4.44,7.89-8.81,15.84-12.83,23.95c-2.5,5.05-0.22,11.19,4.52,13.9c4.68,2.67,11.23,1.81,14.06-2.69
		c5.22-8.29,10.06-16.87,13.78-25.93C161.4,320.65,155.86,313.43,148.43,313.36z M90.07,276.82c-3.94-0.01-7.47,1.6-9.41,5.04
		c-4.09,7.24-8.11,14.53-11.75,22c-2.52,5.17-0.03,11.44,4.96,14.07c4.96,2.61,11.51,1.08,14.39-3.87
		c4.12-7.07,8.11-14.25,11.65-21.63C103.43,285.06,98.03,276.84,90.07,276.82z M189.36,340.79c-0.01-5.37-3.11-9.62-7.74-10.88
		c-5.14-1.39-10.13,0.48-12.78,5.16c-3.48,6.15-6.77,12.42-10.07,18.67c-3.32,6.28-1.69,12.86,3.83,15.87
		c5.88,3.2,12.07,1.12,15.64-5.36c3.23-5.87,6.35-11.8,9.53-17.7C188.79,344.67,189.59,342.73,189.36,340.79z M201.53,342.38
		c-0.36,5.06-2.47,8.85-4.54,12.67c-4.55,8.42-4.52,8.43,4.36,12.43c5.47,2.46,11.68,0.53,14.5-4.52c2.79-4.99,1.2-11.6-3.78-14.74
		C208.84,346.2,205.4,344.51,201.53,342.38z"/>
	<path class="st0" d="M17.96,132.86c1.77-8.76,3.44-17.79,5.51-26.73c0.53-2.3-0.15-3.39-1.64-4.73
		c-6.3-5.67-12.51-11.43-18.79-17.12c-2.16-1.95-3.76-4.09-2.71-7.16c1.13-3.29,3.78-4.22,7.01-4.54c8.66-0.87,17.3-2,25.97-2.85
		c1.81-0.18,2.14-1.24,2.71-2.49c3.42-7.57,6.93-15.1,10.3-22.7c1.33-2.98,2.78-5.66,6.58-5.6c3.59,0.06,5.02,2.56,6.3,5.45
		c3.31,7.48,6.88,14.85,10.09,22.38c0.92,2.15,2.05,2.86,4.3,3.08c8.29,0.78,16.56,1.89,24.85,2.74c3.09,0.31,5.69,1.26,6.76,4.36
		c1.02,2.94-0.29,5.24-2.52,7.25c-6.4,5.74-12.69,11.61-19.09,17.35c-1.42,1.27-1.94,2.39-1.48,4.42
		c1.85,8.11,3.42,16.27,5.08,24.42c0.61,3.01,0.98,5.98-1.89,8.18c-2.88,2.21-5.56,1.15-8.3-0.43c-7.09-4.11-14.27-8.08-21.32-12.25
		c-2.01-1.19-3.55-1.31-5.66-0.05c-7.46,4.45-15.03,8.73-22.65,12.92C22.54,141.4,17.69,138.41,17.96,132.86z M20.15,83.42
		c4.77,4.36,8.8,8.24,13.05,11.86c2.99,2.55,3.97,5.35,3,9.24c-1.37,5.47-2.29,11.06-3.53,17.27c5.49-3.12,10.42-5.73,15.15-8.66
		c3.49-2.17,6.62-2.09,10.07,0.03c4.7,2.89,9.56,5.5,15.01,8.62c-1.24-6.27-2.02-11.81-3.48-17.16c-1.14-4.16,0.17-6.87,3.2-9.47
		c4.18-3.6,8.15-7.44,12.78-11.7c-6.26-0.7-11.64-1.48-17.05-1.84c-4.04-0.27-6.71-1.88-8.29-5.71c-2.2-5.33-4.72-10.53-7.28-16.17
		c-2.56,5.7-5.03,10.85-7.2,16.12c-1.57,3.82-4.21,5.48-8.26,5.75C31.89,81.95,26.5,82.72,20.15,83.42z"/>
	<path class="st0" d="M265.58,132.17c1.53-7.43,3.08-15.73,5.02-23.94c0.84-3.52,0.25-5.82-2.63-8.22
		c-6.02-5.03-11.62-10.55-17.48-15.77c-2.25-2-3.58-4.27-2.61-7.22c1.02-3.11,3.6-4.1,6.7-4.42c8.54-0.88,17.05-2,25.59-2.81
		c1.93-0.18,2.72-0.95,3.44-2.59c3.44-7.83,7.02-15.6,10.52-23.41c1.18-2.63,2.75-4.76,5.97-4.85c3.4-0.09,5.1,2.04,6.35,4.83
		c3.51,7.8,7.11,15.57,10.56,23.4c0.72,1.63,1.49,2.43,3.43,2.62c8.67,0.83,17.31,1.92,25.96,2.85c2.96,0.32,5.27,1.46,6.32,4.4
		c1.03,2.89-0.27,5.05-2.33,6.93c-6.44,5.88-12.85,11.8-19.34,17.63c-1.43,1.29-1.91,2.39-1.43,4.46c1.93,8.34,3.5,16.76,5.25,25.15
		c0.6,2.88,0.39,5.47-2.15,7.38c-2.57,1.94-5.06,1.34-7.63-0.14c-7.42-4.28-14.93-8.42-22.31-12.77c-1.83-1.08-3.18-1.05-4.99,0.02
		c-7.6,4.47-15.25,8.85-22.98,13.09C269.89,141.48,265.3,138.53,265.58,132.17z M267.67,83.42c5.04,4.62,9.43,8.65,13.84,12.66
		c2.32,2.11,3.13,4.48,2.35,7.69c-1.37,5.71-2.36,11.51-3.66,18c5.5-3.12,10.34-5.64,14.94-8.54c3.61-2.28,6.82-2.2,10.39,0.02
		c4.67,2.89,9.53,5.47,14.89,8.51c-1.22-6.13-2.03-11.53-3.43-16.78c-1.11-4.17-0.17-7.14,3.11-9.87
		c4.23-3.54,8.19-7.42,12.83-11.67c-6.26-0.7-11.64-1.49-17.05-1.85c-4.03-0.27-6.74-1.82-8.32-5.66
		c-2.2-5.32-4.69-10.52-7.26-16.21c-2.62,5.75-5.16,10.99-7.39,16.36c-1.54,3.71-4.18,5.2-8.04,5.48
		C279.47,81.97,274.07,82.71,267.67,83.42z"/>
</g>
</svg>
