<?xml version="1.0" encoding="utf-8"?>
<!-- Generator: Adobe Illustrator 26.0.0, SVG Export Plug-In . SVG Version: 6.00 Build 0)  -->
<svg version="1.1" id="Layer_1" xmlns="http://www.w3.org/2000/svg" xmlns:xlink="http://www.w3.org/1999/xlink" x="0px" y="0px"
	 viewBox="0 0 428.14 301.31" style="enable-background:new 0 0 428.14 301.31;" xml:space="preserve">
<style type="text/css">
	.st0{clip-path:url(#SVGID_00000181777832100157035620000006049167155848115113_);}
	.st1{fill:#1E0A39;}
</style>
<g>
	<defs>
		<rect id="SVGID_1_" width="428.14" height="301.31"/>
	</defs>
	<clipPath id="SVGID_00000106106420860725960700000000520928914402512291_">
		<use xlink:href="#SVGID_1_"  style="overflow:visible;"/>
	</clipPath>
	<g id="Group_51-2" style="clip-path:url(#SVGID_00000106106420860725960700000000520928914402512291_);">
		<path id="Path_112" class="st1" d="M428.14,151.56c-3.64,9.4-11.32,13.65-20.38,16.53c-7.64,2.43-15.08,5.55-22.62,8.31
			c-10.18,4.58-22.14,0.04-26.72-10.14c-0.17-0.38-0.33-0.77-0.48-1.15c-0.21-0.47-0.5-0.9-0.92-1.66c-1.62,1.83-0.69,3.62-0.52,5.2
			c0.71,6.26-0.49,12.58-3.44,18.14c-5.68,10.88-14.89,14.3-29.02,10.91c1.29,24.87-20.68,36.45-38.64,30.13
			c-0.64,3.24,0.05,6.53-0.78,9.73c-2.77,12.22-13.34,21.09-25.85,21.72c-2.38,0.14-2.84,0.55-2.61,3.05
			c1.06,8.79-2.9,17.44-10.24,22.4c-6.77,5.05-15.86,5.72-23.29,1.71c-1.04-0.4-2.04-0.88-2.99-1.45c-1.65-1.15-2.63-0.89-3.5,0.97
			c-0.8,1.61-1.76,3.15-2.85,4.58c-10.83,14.82-30.52,14.27-42-1.15c-2.03-2.65-3.61-5.62-4.67-8.78c-0.47-1.46-0.73-1.91-2.5-1.41
			c-17.5,4.96-27.28,0.67-36.46-15.97c-11.3,6.51-22.53,6.44-32.8-1.87c-8.98-7.27-11.02-17.24-8.84-28.44
			c-3.18-0.74-6.49,0-9.77-0.84c-14.66-3.41-23.77-18.05-20.36-32.71c0.51-2.21,1.3-4.35,2.35-6.37c2.16-4.35,4.56-8.58,6.85-12.86
			c0.72-1.35,1.6-2.67,0.76-4.31c-1.17-0.44-1.69,0.65-2.43,1.15c-5.19,3.7-11.84,4.68-17.87,2.61
			c-10.43-3.37-20.88-6.63-31.24-10.13c-10.55-3.04-16.64-14.06-13.61-24.61c0.13-0.45,0.27-0.89,0.43-1.32
			c13.61-42.49,27.3-84.93,41.09-127.34C45.35,5.64,56.43-0.39,66.98,2.72C67.28,2.81,67.57,2.9,67.85,3
			C78.31,6.22,88.7,9.66,99.09,13.09c6.86,1.96,12.1,7.54,13.62,14.51c0.55,2.33,1.38,2.76,3.49,2.83
			c9.74-0.1,19.44-1.38,28.87-3.82c20.77-4.34,40.63-2.94,59.03,8.56c1.85,1.15,2.96,0.48,4.43-0.38
			c11.78-7.29,25.49-10.84,39.33-10.2c10.52,0.92,20.83,3.55,30.5,7.8c7.62,3.67,15.63,6.47,23.88,8.34
			c0.96,0.18,1.92,0.31,2.89,0.38c5.21,0.21,5.96-0.65,5.06-5.68c-1.92-9.39,3.23-18.78,12.17-22.23
			c10.69-4.23,21.46-8.23,32.33-12.02c10.36-3.7,21.77,1.69,25.47,12.06c0.1,0.27,0.19,0.55,0.27,0.82
			c8.68,23.23,17.32,46.47,25.92,69.74c7.07,19.09,14.12,38.19,21.15,57.31c0.07,0.19,0.42,0.28,0.64,0.41L428.14,151.56z
			 M203.8,234.92c-1.65-1.05-2.6-1.59-3.47-2.23c-2.72-1.71-3.53-5.3-1.82-8.02c1.59-2.52,4.83-3.43,7.5-2.11
			c1.15,0.53,2.23,1.13,3.33,1.71c13.36,7.09,26.66,14.28,40.09,21.23c7.84,4.38,17.74,1.57,22.11-6.26
			c0.8-1.43,1.38-2.97,1.71-4.57c1.68-7.32-1.97-14.34-10.02-18.71c-11.7-6.37-23.48-12.6-35.23-18.87
			c-5.39-2.89-6.85-5.69-4.9-9.32c1.89-3.5,5.28-3.82,10.52-1.03c0.24,0.13,0.48,0.29,0.72,0.42c17.61,9.45,35.19,18.95,52.83,28.33
			c7.52,4.5,17.25,2.35,22.18-4.9c5.1-7.46,3.19-17.65-4.27-22.75c-0.63-0.43-1.3-0.82-1.98-1.16
			c-17.4-9.55-34.89-18.93-52.31-28.43c-4.02-2.19-5.18-5.35-3.38-8.53c1.83-3.27,4.91-3.91,8.97-1.78
			c3.56,1.87,7.09,3.82,10.63,5.73c19.67,10.6,39.27,21.3,59.02,31.75c8.84,4.68,16.04,1.31,18.24-8.43
			c2.1-7.91-0.7-16.31-7.11-21.38c-8.7-7.16-18.2-13.29-28.31-18.28c-15.22-7.99-31.04-14.95-45.76-23.76
			c-8.78-5.52-19.59-6.75-29.38-3.34c-11.55,3.47-22.53,8.59-34.22,11.65c-18.21,4.77-34.75,2.67-48.49-11.43
			c-8.97-9.21-9.37-11.49-1.09-21.29c13.29-15.22,27.57-29.54,42.73-42.9c2.75-2.5,2.25-3.02-0.7-4.45
			c-12.47-5.75-26.46-7.31-39.89-4.46c-12.71,2.22-25.28,5.69-38.37,4.63c-2.63-0.21-2.8,1.45-3.36,3.2
			C99.85,77.62,89.3,110.01,78.9,142.48c-2.15,6.05-3.03,12.47-2.6,18.88c4.84-4.73,11.22-7.58,17.98-8.02
			c14.18-0.32,26.43,9.85,28.72,23.84c0.21,1.48-0.16,2.97,2.44,2.67c17.47-1.91,28.76,6.36,32.08,23.29
			c0.35,1.78,0.45,2.65,3.01,2.22c14.69-2.71,28.84,6.88,31.77,21.52c0.53,2.82-1.13,6.93,1.3,8.18s6.15,0.02,10.22-0.16
			 M247.57,96.3c2.71,0,5.41,0.28,8.06,0.84c6.87,1.46,12.06,6.13,18.1,9.16c14.25,7.17,28.57,14.23,42.64,21.77
			c12.14,6.49,24.17,13.27,33.36,23.91c0.71,0.82,1.3,1.33,2.42,0.61c1.57-0.99,0.38-1.94,0.03-2.84
			c-11.88-32.08-23.75-64.16-35.63-96.26c-0.76-2.09-1.5-2.29-3.59-1.67c-4.17,1.16-8.55,1.34-12.79,0.52
			c-9.75-2.16-19.22-5.48-28.18-9.88c-20.72-8.78-40.86-8.95-59.91,3.97c-20.58,13.95-36.78,32.66-53.63,50.62
			c-1.67,1.78-1.08,2.95,0.36,4.5c7.84,8.85,19.84,12.81,31.41,10.35c10.01-2.27,19.8-5.4,29.27-9.35
			c8.89-3.81,18.41-5.92,28.08-6.24 M360.65,11.9c-1.28-0.33-2.67,0.55-4.06,1.07c-9.23,3.38-18.42,6.84-27.62,10.29
			c-6.93,2.6-8.74,6.39-6.2,13.26c15.14,40.89,30.31,81.76,45.49,122.63c2.54,6.84,6.32,8.49,13.36,5.91
			c8.97-3.28,17.91-6.64,26.85-9.98c7.89-2.94,9.4-6.21,6.52-13.99c-9.14-24.65-18.28-49.31-27.42-73.96
			c-5.97-16.09-11.95-32.17-17.95-48.25c-1.86-5.01-4.45-7.07-9-6.98 M101.48,32.39c0.09-3.9-2.59-7.32-6.4-8.16
			c-9.88-3.17-19.72-6.49-29.6-9.65c-6.39-2.04-10.41,0.04-12.5,6.49c-13.49,41.75-26.95,83.51-40.36,125.29
			c-2.05,6.38-0.15,10.03,6.26,12.17c9.58,3.19,19.19,6.32,28.81,9.38c6.72,2.15,10.51,0.16,12.7-6.62
			c13.37-41.34,26.73-82.68,40.09-124.02C101.11,35.72,101.45,34.07,101.48,32.39 M96.99,239.91c-0.47,7.15,4.23,13.62,11.17,15.4
			c6.92,2.14,14.39-0.96,17.76-7.38c6.11-11.04,12.03-22.18,17.89-33.35c4.41-7.46,1.93-17.08-5.53-21.49
			c-0.1-0.06-0.2-0.11-0.3-0.17c-7.49-4.15-16.93-1.43-21.08,6.06c-0.18,0.32-0.34,0.65-0.5,0.98
			c-5.8,10.72-11.49,21.51-17.24,32.27c-1.43,2.3-2.18,4.96-2.16,7.68 M84.01,220.97c5.09-0.35,9.63-3.33,11.97-7.86
			c4.7-8.48,9.31-17.03,13.67-25.69c3.83-7.53,0.84-16.74-6.7-20.58c-0.06-0.03-0.12-0.06-0.18-0.09
			c-7.1-3.79-15.92-1.33-20.03,5.58c-5.07,8.74-9.93,17.65-14.28,26.77c-4.99,10.5,2.67,21.96,15.53,21.86 M180.8,232.74
			c0.36-7.17-4.33-13.62-11.26-15.5c-6.78-2.02-14.06,0.95-17.49,7.14c-4.11,7.22-7.96,14.58-11.78,21.96
			c-4.28,7.41-1.75,16.9,5.67,21.18c7.41,4.28,16.9,1.75,21.18-5.67c0.2-0.35,0.39-0.7,0.56-1.07c3.82-6.91,7.5-13.88,11.19-20.85
			C180.19,237.76,180.86,235.27,180.8,232.74 M196.8,246.8c-4.89,0.48-9.29,3.2-11.9,7.37c-2.79,4.14-5.16,8.55-7.08,13.15
			c-3.03,7.31,1.93,17.18,10.06,20.95c6.94,3.22,12.96,0.84,17.51-7.18c2.77-4.64,5.2-9.48,7.26-14.48
			c4.07-10.54-2.2-19.73-15.86-19.81 M220.51,244.21c6.99,8.1,6.84,16.8,3.51,25.99c-0.46,1.28-1.81,2.46,0.15,3.91
			c4.88,4.11,12.06,3.91,16.71-0.45c4.71-4.75,4.98-12.33,0.6-17.4C235.76,250.21,227.62,248.14,220.51,244.21"/>
	</g>
</g>
</svg>
