<?xml version="1.0" encoding="utf-8"?>
<!-- Generator: Adobe Illustrator 26.0.0, SVG Export Plug-In . SVG Version: 6.00 Build 0)  -->
<svg version="1.1" id="Layer_1" xmlns="http://www.w3.org/2000/svg" xmlns:xlink="http://www.w3.org/1999/xlink" x="0px" y="0px"
	 viewBox="0 0 517.16 517.26" style="enable-background:new 0 0 517.16 517.26;" xml:space="preserve">
<style type="text/css">
	.st0{clip-path:url(#SVGID_00000137111273127351932860000009712812792505574038_);}
	.st1{fill:#1E0A39;}
</style>
<g>
	<defs>
		<rect id="SVGID_1_" width="517.16" height="517.26"/>
	</defs>
	<clipPath id="SVGID_00000182491141615289153650000014580212362971961510_">
		<use xlink:href="#SVGID_1_"  style="overflow:visible;"/>
	</clipPath>
	<g id="Group_50-2" style="clip-path:url(#SVGID_00000182491141615289153650000014580212362971961510_);">
		<path id="Path_108" class="st1" d="M277.8,0c6.42,1.45,12.95,2.39,19.52,2.82c44.04,6.5,85.6,24.48,120.48,52.15
			c49.3,38.89,82.01,89.02,93.78,150.66c18.74,98.13-9.8,181.66-84.16,248.54c-37.08,33.41-83.57,54.57-133.12,60.59
			c-69.59,10.4-140.36-8.77-195.2-52.86c-49.6-38.28-83.32-93.54-94.68-155.15c-1.7-8.22-2.83-16.56-3.38-24.94
			c-0.05-0.8,0.09-1.72-1.04-1.98v-42.43c1.11-0.26,0.95-1.18,1.04-1.98c1.31-15.04,3.97-29.93,7.93-44.5
			C36.01,91.88,118.9,18.11,220.4,2.75c5.75-0.21,11.46-1.14,16.99-2.75H277.8z M489.02,258.9
			C489.18,131.65,386.15,28.36,258.9,28.2C131.65,28.03,28.36,131.06,28.2,258.31c-0.16,127.25,102.86,230.54,230.11,230.7
			c0.01,0,0.01,0,0.02,0C385.55,489.11,488.8,386.12,489.02,258.9"/>
		<path id="Path_109" class="st1" d="M258.12,402.19c-55.36-2.11-99.56-25.22-132.31-70.19c-2.39-3.28-1.69-4.5,1.43-6.32
			c5.65-3.29,11.19-6.83,16.48-10.67c2.82-2.04,4.04-1.28,5.77,1.23c12.08,17.95,28.58,32.5,47.91,42.23
			c46.43,23.2,91.66,20.14,135.26-7.58c14.07-9.03,26.1-20.9,35.32-34.85c1.61-2.41,2.68-3.11,5.37-1.16
			c5.58,4.01,11.41,7.69,17.33,11.22c2.63,1.56,3.02,2.64,1.17,5.29c-23.03,33.65-57.91,57.37-97.67,66.42
			C282.37,400.68,270.27,402.14,258.12,402.19"/>
		<path id="Path_110" class="st1" d="M388.11,227.27h-2.02c-3.49,0.5-7.04,0.41-10.5-0.28c-3.63-1.39-1.79-6.08-2.98-9.2
			c-4.4-11.52-15.92-18.72-28.2-17.63c-12.72,0.99-22.89,10.96-24.13,23.66c-0.25,2.96-1.24,3.58-3.93,3.52
			c-6.89-0.16-13.79-0.21-20.68,0c-3.07,0.1-3.88-0.64-3.84-3.84c1.93-30.45,28.18-53.57,58.64-51.64
			c25.34,1.61,46.32,20.28,50.86,45.26c2.01,10.15,2.01,10.15-8.18,10.15L388.11,227.27z"/>
		<path id="Path_111" class="st1" d="M211.01,227.27H210c-3.66,0.49-7.38,0.41-11.02-0.25c-4.01-1.39-1.94-6.32-3.24-9.55
			c-4.57-11.45-16.16-18.49-28.43-17.28c-12.72,1.09-22.8,11.2-23.85,23.93c-0.27,2.82-1.35,3.23-3.73,3.19
			c-7.06-0.11-14.13-0.18-21.18,0.03c-2.92,0.08-3.52-0.81-3.5-3.63c1.82-30.45,27.98-53.67,58.43-51.85
			c25.56,1.52,46.72,20.41,51.13,45.63c1.95,9.85,1.95,9.85-8.07,9.85L211.01,227.27z"/>
	</g>
</g>
</svg>
