<?xml version="1.0" encoding="utf-8"?>
<!-- Generator: Adobe Illustrator 26.0.0, SVG Export Plug-In . SVG Version: 6.00 Build 0)  -->
<svg version="1.1" id="Layer_1" xmlns="http://www.w3.org/2000/svg" xmlns:xlink="http://www.w3.org/1999/xlink" x="0px" y="0px"
	 viewBox="0 0 430.87 517" style="enable-background:new 0 0 430.87 517;" xml:space="preserve">
<style type="text/css">
	.st0{clip-path:url(#SVGID_00000031165654453668528680000006639359287264283583_);}
	.st1{fill:#1E0A39;}
</style>
<g>
	<defs>
		<rect id="SVGID_1_" width="430.87" height="517"/>
	</defs>
	<clipPath id="SVGID_00000039106150435994737670000008334132815086159260_">
		<use xlink:href="#SVGID_1_"  style="overflow:visible;"/>
	</clipPath>
	<g id="Group_52-2" style="clip-path:url(#SVGID_00000039106150435994737670000008334132815086159260_);">
		<path id="Path_113" class="st1" d="M370.22,216.46c0.35,38.39-13.81,75.49-39.65,103.88c-19.75,21.77-33.39,48.39-39.52,77.14
			c-0.4,3.34-0.56,6.7-0.49,10.07c-0.14,1.77,0.54,2.39,2.36,2.66c3.87,0.13,6.9,3.38,6.77,7.25c0,0.08-0.01,0.16-0.01,0.25
			c0.26,3.73-2.56,6.96-6.29,7.22c-0.03,0-0.06,0-0.09,0.01c-2.45,0.34-2.79,1.64-2.74,3.62c0.06,2.49,0.15,4.99,0,7.46
			c-0.21,2.81,0.24,4.55,3.65,5.02c3.88,0.95,6.25,4.87,5.3,8.74c-0.61,2.48-2.48,4.45-4.92,5.19c-3.62,0.72-3.95,2.78-4.24,5.89
			c-1.37,16.69-15.41,29.48-32.16,29.28c-0.89,0.09-1.78,0.09-2.66,0c-4.91-0.95-7.25,0.86-9.06,5.81
			c-4.93,13.25-17.88,21.78-32,21.06c-13.92-0.19-26.2-9.14-30.65-22.33c-0.51-3.08-3.43-5.15-6.5-4.64
			c-0.06,0.01-0.11,0.02-0.17,0.03c-5.48,0.6-11.03,0.27-16.4-0.98c-7.58-2.28-13.88-7.62-17.37-14.72c-1.01-2-1.58-3.49-4.53-3.23
			c-3.62,0.59-7.03-1.86-7.62-5.48c-0.05-0.3-0.08-0.6-0.09-0.9c-0.76-3.72,1.64-7.35,5.36-8.11c0.17-0.03,0.33-0.06,0.5-0.08
			c2.86-0.59,3.85-1.72,3.48-4.53c-0.14-1.77-0.15-3.55-0.03-5.33c0.05-3.15,0.86-6.17-4.47-6.13c-3.51-0.31-6.11-3.4-5.8-6.91
			c0.01-0.09,0.02-0.18,0.03-0.27c-0.3-3.59,2.36-6.75,5.95-7.07c4.13-0.25,4.21-2.17,4.36-5.4c1.85-39.2-14.69-71.25-39.52-99.65
			c-27.97-30.9-42.46-71.69-40.24-113.32c2.79-68.22,56.18-129.37,123.19-142.82c80.85-16.57,160.54,33,181.39,112.86
			c1.53,5.83,2.72,11.74,3.56,17.7C370.02,202.56,370.46,209.52,370.22,216.46 M355.34,217.24c0.08-11.03-1.24-22.03-3.93-32.73
			c-18.65-74.64-88.89-119.1-164.81-104.39c-75.48,15.78-123.88,89.75-108.1,165.23c5.1,24.42,16.66,47.03,33.46,65.47
			c17.81,19.65,31.03,43.02,38.71,68.4c1.4,4.61,0.49,11.25,4.73,13.37c3.99,2.01,9.74,0.41,14.72,0.6
			c2.94,0.11,4.28-0.28,3.16-3.78c-1.39-4.37-2.13-8.95-3.18-13.43c-9.71-41.55-19.42-83.1-29.12-124.63
			c-1.95-3.99-0.29-8.81,3.7-10.76c2.57-1.25,5.6-1.05,7.98,0.53c9.1,3.44,18.31,6.58,27.36,10.14c2.4,1.15,5.24,0.91,7.41-0.63
			c7.2-4.53,14.64-8.69,21.76-13.35c3.79-2.86,9.02-2.81,12.76,0.11c7,4.52,14.29,8.58,21.3,13.07c2.29,1.68,5.32,1.96,7.89,0.74
			c8.87-3.52,17.91-6.63,26.85-10.01c3.7-2.54,8.77-1.59,11.31,2.11c1.7,2.48,1.89,5.69,0.5,8.36c-3.24,14.15-6.66,28.26-9.94,42.4
			c-7.37,31.74-14.72,63.47-22.05,95.21c-0.37,1.62-2.34,3.99,1.54,4c4.98,0,9.96-0.03,14.94,0c2.01,0,2.65-0.98,3.07-2.85
			c7.44-30.98,22.7-59.53,44.32-82.93c21.88-24.95,33.85-57.06,33.64-90.24 M272.43,259.38c-7.69,2.79-14.66,5.18-21.51,7.85
			c-3.46,1.52-7.46,1.11-10.54-1.07c-7.19-4.55-14.63-8.7-21.84-13.22c-1.81-1.44-4.36-1.44-6.17,0
			c-6.87,4.39-14.04,8.31-20.85,12.76c-3.83,2.71-8.82,3.11-13.04,1.06c-6.33-2.63-12.83-4.85-19.67-7.4
			c-0.01,0.98,0.04,1.97,0.18,2.94c9.89,42.41,19.77,84.82,29.63,127.24c0.76,3.27,2.37,3.69,5.19,3.67c14.4-0.1,28.8-0.1,43.21,0
			c3.11,0.03,4.52-0.58,5.32-4.09c7.55-33.13,15.41-66.2,23.14-99.29c2.32-9.94,4.53-19.91,6.94-30.52 M155.46,446.71
			c0,7.55,0,7.56,7.36,7.07c1.06-0.07,2.12-0.21,3.18-0.32c23.1-2.38,46.2-4.75,69.3-7.14c12.17-1.26,24.33-2.56,36.49-3.89
			c1.57-0.17,3.76,0.31,3.62-2.59c-0.2-4.05,1.13-8.92-0.69-11.95c-1.6-2.66-6.48,0.11-9.93,0.15c-1.6,0-3.2,0.1-4.79,0.27
			c-33.69,3.48-67.36,7.03-101.06,10.39c-2.77,0.27-3.83,1.01-3.52,3.74C155.52,443.87,155.53,445.3,155.46,446.71 M157.87,469.47
			c2.61,3.53,6.7,5.65,11.09,5.74c29.88,0,59.76,0.07,89.63-0.06c7.34-0.19,13.78-4.93,16.14-11.88c1.63-4.71,0.84-5.71-4.16-5.32
			c-2.13,0.17-4.26,0.26-6.38,0.49c-26.67,2.73-53.34,5.47-80,8.23c-8.42,0.87-16.83,1.81-26.31,2.83 M215.37,408.61h-48.49
			c-11.98,0-11.84,0-11.5,12.16c0.08,3.18,1.3,3.4,3.79,3.14c14.47-1.53,28.96-2.94,43.42-4.47c22.77-2.37,45.53-4.76,68.28-7.19
			c1.65-0.18,4.62,0.98,4.31-2.21c-0.25-2.59-2.88-1.36-4.42-1.37c-18.47-0.09-36.95-0.05-55.42-0.05 M198.61,490.34
			c2.63,7.67,10.22,12.5,18.29,11.62c7.04-0.18,13.16-4.87,15.18-11.62H198.61z"/>
		<path id="Path_114" class="st1" d="M207.24,22.54c0-4.79-0.17-9.6,0.04-14.38c0.24-5.35,3.22-8.26,7.82-8.15
			c4.07-0.02,7.38,3.26,7.4,7.33c0,0.25-0.01,0.51-0.04,0.76c0.2,9.59,0.2,19.18,0,28.77c0.3,4.19-2.86,7.82-7.05,8.12
			s-7.82-2.86-8.12-7.05c-0.02-0.34-0.03-0.68,0-1.02C207.09,32.13,207.25,27.33,207.24,22.54"/>
		<path id="Path_115" class="st1" d="M68.97,126.85c0.07,4.07-3.17,7.42-7.24,7.48c-1.02,0.02-2.04-0.18-2.99-0.58
			c-9.56-5.04-18.9-10.48-28.13-16.11c-3.15-1.8-4.24-5.81-2.44-8.95c0.08-0.14,0.17-0.28,0.26-0.42c1.37-3.41,5.24-5.06,8.64-3.69
			c0.28,0.11,0.56,0.25,0.83,0.4c9.53,5.09,18.8,10.66,28.08,16.2C67.85,122.47,68.97,124.59,68.97,126.85"/>
		<path id="Path_116" class="st1" d="M395.96,104.19c3.22-0.02,6.09,2.06,7.06,5.13c1.25,2.93,0.25,6.34-2.4,8.12
			c-9.41,5.64-18.92,11.11-28.54,16.41c-3.01,1.58-6.73,0.5-8.42-2.45c-2.44-2.4-2.47-6.32-0.07-8.76c0.13-0.13,0.27-0.26,0.41-0.38
			c9.65-6.87,19.91-12.84,30.66-17.82C395.09,104.29,395.52,104.21,395.96,104.19"/>
		<path id="Path_117" class="st1" d="M111.41,27.99c2.57,0.17,4.88,1.63,6.12,3.88c5,8.57,10.04,17.11,14.84,25.8
			c2.26,3.38,1.35,7.95-2.03,10.21c-0.2,0.14-0.41,0.26-0.63,0.37c-3.41,2.04-7.84,0.93-9.88-2.48c-0.17-0.29-0.32-0.59-0.45-0.89
			c-5-8.34-9.93-16.76-14.63-25.29c-2.21-3.57-1.11-8.25,2.46-10.46C108.48,28.35,109.93,27.95,111.41,27.99"/>
		<path id="Path_118" class="st1" d="M297.41,61.11c0.12-1.63,0.68-3.2,1.63-4.54c4.51-7.82,8.95-15.68,13.53-23.46
			c2.94-5,6.99-6.38,11-4.01s4.8,6.53,1.96,11.53c-4.62,8.17-9.32,16.27-14.09,24.37c-1.43,3.23-5.02,4.91-8.41,3.93
			c-3.62-0.78-6.05-4.18-5.62-7.85"/>
		<path id="Path_119" class="st1" d="M402.54,319.72c0.09,4.01-3.09,7.33-7.1,7.42c-1.37,0.03-2.73-0.33-3.9-1.04
			c-9.05-4.83-17.91-10.06-26.67-15.41c-3.41-2.26-4.34-6.87-2.08-10.28c2.13-3.21,6.36-4.25,9.74-2.41
			c8.83,4.91,17.51,10.03,26.23,15.1c2.41,1.3,3.88,3.86,3.78,6.6"/>
		<path id="Path_120" class="st1" d="M36.07,327.02c-3.04,0.36-5.94-1.38-7.06-4.23c-1.68-2.95-0.84-6.69,1.93-8.64
			c9.52-5.81,19.14-11.43,28.96-16.69c3.91-1.12,7.99,1.13,9.11,5.04c0.68,2.37,0.13,4.93-1.47,6.81
			c-9.52,6.73-19.63,12.6-30.19,17.55c-0.42,0.14-0.86,0.19-1.3,0.17"/>
		<path id="Path_121" class="st1" d="M22.58,223.25c-4.8,0-9.59,0.07-14.39,0c-4.25,0.26-7.91-2.97-8.18-7.23
			c0-0.03,0-0.07-0.01-0.1c0.04-4.21,3.49-7.6,7.71-7.55c0.08,0,0.17,0,0.25,0.01c9.77-0.1,19.53-0.1,29.34-0.01
			c4.12-0.38,7.76,2.65,8.14,6.77c0.38,4.12-2.65,7.76-6.77,8.14c-0.56,0.05-1.13,0.04-1.68-0.03c-4.79,0.07-9.59,0-14.39,0"/>
		<path id="Path_122" class="st1" d="M408.11,208.33c4.8,0,9.59-0.07,14.39,0c4.1-0.49,7.83,2.44,8.32,6.54
			c0.49,4.1-2.44,7.83-6.54,8.32c-0.57,0.07-1.14,0.07-1.71,0.01c-9.6,0.08-19.19,0.08-28.78,0c-4.1,0.49-7.83-2.44-8.32-6.54
			c-0.49-4.1,2.44-7.83,6.54-8.32c0.57-0.07,1.14-0.07,1.71-0.01C398.52,208.23,403.32,208.33,408.11,208.33"/>
	</g>
</g>
</svg>
