<?xml version="1.0" encoding="utf-8"?>
<!-- Generator: Adobe Illustrator 26.0.0, SVG Export Plug-In . SVG Version: 6.00 Build 0)  -->
<svg version="1.1" id="Layer_1" xmlns="http://www.w3.org/2000/svg" xmlns:xlink="http://www.w3.org/1999/xlink" x="0px" y="0px"
	 viewBox="0 0 367.01 383.12" style="enable-background:new 0 0 367.01 383.12;" xml:space="preserve">
<style type="text/css">
	.st0{fill:#200C39;}
</style>
<g>
	<path class="st0" d="M187.12,0c5.48,1.86,10.76,3.92,14.61,8.68c9.67,11.96,6.3,29.34-7.39,36.27c-2.5,1.26-3.06,2.69-2.96,5.14
		c0.15,3.61,0.18,7.24-0.01,10.85c-0.12,2.3,0.54,2.96,2.88,2.92c7.73-0.16,15.46-0.06,23.19-0.06c24.94,0,49.88,0,74.83,0
		c6.86,0,8.73,1.24,11.25,7.54c20.67,51.69,41.35,103.37,62,155.07c2.81,7.02,1.09,14.1-0.47,20.95
		c-6.87,30.11-31.77,52.13-62.46,55.59c-37.14,4.2-72.47-22.85-78.24-59.62c-1.26-7.99-0.53-15.28,2.55-22.87
		c18.51-45.59,36.66-91.33,55.03-136.98c1.16-2.88,1.07-3.68-2.35-3.67c-28.31,0.12-56.62,0.1-84.93,0.01
		c-2.61-0.01-3.29,0.62-3.29,3.26c0.08,82.93,0.08,165.86-0.01,248.79c0,2.87,0.78,3.42,3.5,3.41c32.42-0.1,64.85-0.06,97.27-0.06
		c1.87,0,3.73-0.09,5.55,0.57c3.43,1.24,5.72,4.66,5.34,8.1c-0.39,3.64-3.06,6.52-6.67,7.03c-1.47,0.21-2.98,0.21-4.48,0.21
		c-72.33,0.01-144.66,0.01-216.99,0.01c-0.87,0-1.75,0.03-2.62-0.02c-5.11-0.26-8.63-3.55-8.57-8c0.06-4.5,3.58-7.83,8.74-7.87
		c13.97-0.09,27.93-0.03,41.9-0.03c19.21,0,38.41-0.06,57.62,0.07c2.77,0.02,3.47-0.62,3.47-3.44c-0.09-82.81-0.09-165.61,0-248.42
		c0-3-0.85-3.63-3.7-3.62c-28.06,0.11-56.12,0.06-84.18,0.07c-4.04,0-4.04,0.01-2.47,3.94c18.78,46.96,37.48,93.95,56.43,140.85
		c2.92,7.24,1.84,14.27,0.42,21.26c-6.25,30.64-31.67,53.55-62.82,57.03c-34.15,3.81-67.55-18.85-76.49-52.01
		c-1.03-3.83-1.83-7.77-2.31-11.71c-0.64-5.21-0.2-10.21,1.86-15.32C22.58,173.2,42.8,122.41,63.1,71.64
		c2.67-6.69,4.43-7.84,11.81-7.84c32.18,0,64.35-0.06,96.52,0.09c3.42,0.02,4.43-0.96,3.93-4.12c-0.15-0.97-0.12-2-0.01-2.99
		c0.71-6.16-0.25-10.66-6.6-14.48c-7.78-4.67-10.48-13.09-8.86-22.24c1.62-9.19,6.97-15.46,15.81-18.67
		c0.86-0.31,2.03-0.22,2.44-1.39C181.13,0,184.12,0,187.12,0z M71.61,93.3C54.49,136.19,37.7,178.29,20.8,220.35
		c-1.15,2.87-0.49,3.24,2.25,3.23c25.17-0.08,50.35-0.04,75.52-0.04c8.2,0,16.4,0,25.14,0C106.35,180.12,89.12,137.06,71.61,93.3z
		 M295.13,93.32c-17.51,43.78-34.74,86.84-52.09,130.21c34.19,0,67.82-0.02,101.46,0.04c2.89,0.01,2.24-1.2,1.55-2.92
		C329.15,178.46,312.29,136.26,295.13,93.32z M240.01,239.45c0.18,1.39,0.25,2.51,0.47,3.6c5.25,25.43,28.21,44.13,54.35,44.27
		c26.31,0.14,49.36-18.46,54.9-44.07c0.69-3.2,0.27-3.89-3.06-3.87c-34.4,0.12-68.79,0.08-103.19,0.08
		C242.38,239.45,241.28,239.45,240.01,239.45z M16.63,239.58c-0.04,0.41-0.11,0.66-0.07,0.9c3.82,25.95,27.07,46.22,53.69,46.81
		c26.94,0.59,51.05-18.53,56.14-44.42c0.54-2.72,0.11-3.51-2.92-3.5c-34.65,0.12-69.29,0.08-103.94,0.08
		C18.55,239.45,17.58,239.54,16.63,239.58z M183.31,31.86c4.18,0.04,7.88-3.56,7.98-7.77c0.1-4.16-3.47-7.91-7.67-8.07
		c-4.31-0.16-8.19,3.62-8.16,7.95C175.48,28.17,179.12,31.82,183.31,31.86z"/>
	<path class="st0" d="M183.3,367.2c46.76,0,93.51,0,140.27,0.01c1.62,0,3.26-0.01,4.85,0.23c3.57,0.55,6.18,3.53,6.47,7.17
		c0.26,3.35-1.86,6.64-5.08,7.86c-1.54,0.58-3.15,0.65-4.78,0.65c-94.39-0.01-188.77-0.01-283.16-0.01c-7.04,0-10.87-3.73-9.78-9.45
		c0.69-3.6,2.91-5.68,6.48-6.24c1.59-0.25,3.23-0.21,4.85-0.21C90.04,367.2,136.67,367.2,183.3,367.2z"/>
</g>
</svg>
