<?xml version="1.0" encoding="utf-8"?>
<!-- Generator: Adobe Illustrator 26.0.0, SVG Export Plug-In . SVG Version: 6.00 Build 0)  -->
<svg version="1.1" id="Layer_1" xmlns="http://www.w3.org/2000/svg" xmlns:xlink="http://www.w3.org/1999/xlink" x="0px" y="0px"
	 viewBox="0 0 381.94 383.21" style="enable-background:new 0 0 381.94 383.21;" xml:space="preserve">
<style type="text/css">
	.st0{fill:#200C39;}
</style>
<g>
	<path class="st0" d="M369.09,0c9.54,3.66,13.14,10.76,12.7,20.74c-0.4,8.83-0.06,17.7-0.09,26.55c-0.03,8.8-4.27,14.7-12.65,17.09
		c-2.44,0.7-2.22,2.14-2.22,3.87c0.01,41.39,0.01,82.78,0,124.17c0,1.25,0.16,2.54-0.1,3.73c-0.68,3.07-2.72,4.77-5.87,4.61
		c-2.93-0.15-4.86-1.79-5.23-4.84c-0.16-1.35-0.09-2.74-0.09-4.11c0-40.89-0.03-81.78,0.06-122.68c0.01-3.03-0.36-4.18-3.91-4.17
		c-107.1,0.12-214.2,0.12-321.29,0.01c-3.32,0-4.16,0.79-4.03,4.07c0.28,6.72,0.12,13.46,0.07,20.19c-0.03,3.96-2.32,6.51-5.63,6.49
		c-3.34-0.02-5.6-2.58-5.62-6.53c-0.04-7.23-0.08-14.46,0.03-21.69c0.03-1.81-0.53-2.56-2.27-3.08C4.6,61.91,0.35,56.09,0.32,47.28
		c-0.03-8.85,0.31-17.72-0.09-26.55C-0.23,10.75,3.38,3.66,12.92,0C131.64,0,250.37,0,369.09,0z M190.62,53.63
		c57.35,0,114.69,0,172.04,0c6.18,0,7.46-1.28,7.47-7.43c0.02-9.35,0.03-18.7-0.01-28.05c-0.02-5.32-1.61-6.91-6.9-6.91
		c-114.82-0.01-229.63-0.01-344.45,0c-5.29,0-6.89,1.59-6.91,6.9c-0.03,9.1-0.01,18.2-0.01,27.3c0,7.18,1.02,8.19,8.21,8.19
		C76.93,53.63,133.78,53.63,190.62,53.63z"/>
	<path class="st0" d="M281.67,309.17c8.69,15.03,16.95,29.32,25.21,43.62c1.24,2.15,2.42,4.29,2.49,6.93
		c0.14,4.65-1.59,8.28-5.57,10.65c-6.4,3.82-12.82,7.62-19.36,11.19c-6.33,3.46-12.62,1.37-16.44-5.22
		c-12.39-21.39-24.8-42.77-37.05-64.24c-1.32-2.31-2.72-2.99-5.24-2.98c-23.06,0.09-46.13,0.12-69.19-0.03
		c-2.97-0.02-4.37,1.04-5.75,3.45c-12.02,21.04-24.15,42.01-36.27,63c-4.62,8-10.74,9.65-18.73,5.07
		c-5.61-3.21-11.21-6.43-16.78-9.71c-6.48-3.83-8.26-10.38-4.5-16.94c7.78-13.58,15.66-27.1,23.49-40.65
		c2.39-4.13,2.38-4.13-2.57-4.13c-25.43,0-50.87-0.29-76.3,0.13c-11.35,0.19-19.88-8.24-19.06-18.98c0.32-4.21-0.01-8.48,0.09-12.71
		c0.18-7.7,4.76-13.91,12.2-15.99c2.43-0.68,2.9-1.63,2.89-3.96c-0.08-46.63-0.06-93.25-0.05-139.88c0-4.87,2.12-7.39,6.02-7.13
		c3.01,0.2,4.79,1.88,5.17,4.86c0.17,1.35,0.08,2.74,0.09,4.11c0,45.75,0.03,91.51-0.07,137.26c-0.01,3,0.57,3.97,3.8,3.97
		c107.22-0.09,214.44-0.09,321.67-0.02c2.81,0,3.82-0.53,3.77-3.62c-0.21-11.47-0.1-22.94-0.07-34.41c0.01-4.56,2.21-7.27,5.72-7.19
		c3.51,0.09,5.55,2.78,5.55,7.4c0.01,11.59,0.03,23.19-0.02,34.78c-0.01,1.98,0.08,3.11,2.63,3.77c7.63,1.99,12.26,8.31,12.43,16.18
		c0.1,4.49,0.08,8.98,0.03,13.46c-0.12,10.99-7.02,17.92-18.02,17.94c-25.81,0.05-51.62,0.02-77.42,0.02
		C285.12,309.17,283.79,309.17,281.67,309.17z M190.6,297.82c53.36,0,106.72,0,160.08,0c4.49,0,8.98,0.05,13.46-0.02
		c4.23-0.06,6.37-2.21,6.45-6.47c0.06-3.49,0.02-6.98,0.01-10.47c0-7.03-1.52-8.57-8.45-8.57c-114.08,0-228.15,0-342.23,0
		c-0.75,0-1.5-0.02-2.24,0c-4.05,0.12-6.16,2.18-6.25,6.26c-0.08,3.61-0.02,7.23-0.02,10.85c0,6.76,1.62,8.42,8.26,8.42
		C76.64,297.82,133.62,297.82,190.6,297.82z M243.05,309.17c-0.09,0.48-0.17,0.63-0.12,0.7c11.56,20.11,23.15,40.2,34.66,60.34
		c0.9,1.57,1.63,1.29,2.86,0.57c5.24-3.09,10.48-6.16,15.8-9.11c1.54-0.85,1.78-1.5,0.86-3.07c-9.19-15.74-18.32-31.52-27.38-47.34
		c-0.95-1.66-2-2.15-3.81-2.13C258.34,309.22,250.74,309.17,243.05,309.17z M139.64,309.17c-8.52,0-16.34,0.05-24.16-0.04
		c-1.66-0.02-2.38,0.75-3.12,2.03c-9.09,15.81-18.2,31.61-27.41,47.35c-1.08,1.84-0.53,2.41,1.04,3.28
		c4.88,2.71,9.72,5.48,14.47,8.42c2.18,1.35,3.27,1.47,4.7-1.16c4.8-8.82,9.96-17.44,14.98-26.14
		C126.53,331.86,132.91,320.82,139.64,309.17z"/>
	<path class="st0" d="M240.97,113.03c-5.38-1.71-9.85-3.12-14.32-4.55c-4.47-1.43-6.34-4.14-5.21-7.52c1.2-3.56,4.14-4.79,8.51-3.43
		c8.76,2.73,17.51,5.47,26.24,8.28c4.79,1.54,6,3.97,4.48,8.85c-2.72,8.76-5.48,17.51-8.26,26.25c-1.39,4.38-4.16,6.11-7.7,4.92
		c-3.18-1.06-4.36-4.2-3.09-8.37c1.36-4.48,2.77-8.94,4.38-14.11c-14.69,7.01-27.21,15.96-39.33,26.11
		c16.72,10.18,32.45,21.41,46.4,36.29c0-5.84-0.02-10.77,0.01-15.7c0.03-4.25,2.24-6.89,5.66-6.85c3.42,0.04,5.58,2.68,5.59,6.95
		c0.02,9.22,0.02,18.45,0,27.68c-0.01,5.04-1.97,7.09-6.91,7.11c-9.23,0.04-18.45,0.03-27.68,0c-4.22-0.01-6.95-2.21-7.05-5.59
		c-0.11-3.4,2.53-5.73,6.78-5.8c4.8-0.07,9.6-0.02,15.17-0.02c-5.41-6.13-10.96-10.87-16.63-15.47
		c-8.81-7.14-18.33-13.27-27.98-19.21c-2.07-1.27-3.21-0.73-4.73,0.71c-19.26,18.22-36.27,38.37-51.52,60.02
		c-0.72,1.02-1.38,2.08-2.18,3.03c-2.35,2.77-5.26,3.25-7.91,1.36c-2.65-1.89-3.3-4.9-1.3-7.89c3.32-4.96,6.76-9.85,10.36-14.61
		c12.93-17.14,26.9-33.36,42.49-48.16c0.44-0.42,0.83-0.89,1.5-1.63c-7.09-3.9-14.22-7.19-21.4-10.39
		c-14.74-6.58-29.79-12.32-45.2-17.11c-4.36-1.36-6.3-4.09-5.32-7.53c0.96-3.35,4.31-4.74,8.58-3.42
		c23.98,7.43,47.19,16.77,69.35,28.6c2.54,1.36,3.99,1.08,6.08-0.71C211.53,130.27,225.16,120.74,240.97,113.03z"/>
	<path class="st0" d="M331.66,107.62c0.01,14.41-11.69,26.2-26.03,26.22c-14.23,0.02-26.21-11.91-26.24-26.13
		c-0.02-14.31,11.79-26.12,26.13-26.14C319.97,81.56,331.65,93.2,331.66,107.62z M290.97,107.21c-0.26,8.19,5.97,14.83,14.18,15.12
		c8.02,0.28,14.86-6.12,15.22-14.23c0.34-7.8-6.25-14.8-14.32-15.2C298.17,92.51,291.22,99.1,290.97,107.21z"/>
	<path class="st0" d="M324.9,221.19c-0.02,14.31-11.86,26.1-26.19,26.05c-14.33-0.04-26.12-11.87-26.09-26.17
		c0.03-14.36,11.79-26.01,26.21-25.97C313.27,195.14,324.92,206.8,324.9,221.19z M298.85,235.75c8.12-0.02,14.75-6.66,14.68-14.7
		c-0.07-8.07-6.72-14.61-14.84-14.59c-8.1,0.02-14.71,6.68-14.65,14.74C284.1,229.34,290.66,235.78,298.85,235.75z"/>
	<path class="st0" d="M79.09,127.15c-3.27,3.84-6.44,7.64-9.71,11.36c-2.88,3.29-6.06,3.77-8.74,1.48c-2.71-2.32-2.71-5.4,0.12-8.84
		c2.92-3.56,5.87-7.1,8.94-10.53c1.47-1.64,1.82-2.75,0.08-4.58c-3.25-3.42-6.21-7.13-9.2-10.8c-2.65-3.25-2.6-6.33-0.03-8.59
		c2.7-2.39,5.86-1.98,8.75,1.32c3.28,3.73,6.46,7.56,9.79,11.46c3.36-3.94,6.53-7.77,9.82-11.5c2.82-3.2,5.71-3.64,8.44-1.44
		c2.86,2.29,2.98,5.38,0.19,8.81c-3.07,3.76-6.18,7.49-9.41,11.11c-1.24,1.39-1.34,2.29-0.04,3.73c3.24,3.61,6.34,7.35,9.42,11.1
		c2.78,3.39,2.7,6.55-0.09,8.83c-2.64,2.16-5.74,1.69-8.47-1.42C85.66,134.92,82.47,131.1,79.09,127.15z"/>
	<path class="st0" d="M80.52,201.93c2.03-0.12,3.43,1.05,4.68,2.52c2.74,3.23,5.57,6.39,8.19,9.71c1.27,1.61,2.03,1.64,3.3,0.04
		c2.64-3.31,5.41-6.52,8.19-9.72c2.6-2.98,5.99-3.47,8.51-1.33c2.63,2.22,2.78,5.48,0.23,8.59c-2.92,3.57-5.8,7.19-8.99,10.5
		c-2.03,2.11-1.66,3.48,0.14,5.42c3.05,3.28,5.89,6.77,8.75,10.22c2.58,3.11,2.54,6.36,0.01,8.62c-2.57,2.3-6.08,1.79-8.79-1.36
		c-2.77-3.21-5.54-6.41-8.18-9.72c-1.2-1.5-1.9-1.42-3.06,0.04c-2.64,3.31-5.4,6.53-8.2,9.7c-2.79,3.16-6.25,3.63-8.8,1.33
		c-2.56-2.31-2.6-5.4,0.04-8.62c3-3.66,5.97-7.37,9.21-10.81c1.72-1.82,1.39-2.87-0.13-4.53c-3.28-3.58-6.34-7.37-9.45-11.09
		c-1.66-1.98-2.16-4.24-0.91-6.58C76.32,202.84,78.08,201.77,80.52,201.93z"/>
</g>
</svg>
