<?xml version="1.0" encoding="utf-8"?>
<!-- Generator: Adobe Illustrator 26.0.0, SVG Export Plug-In . SVG Version: 6.00 Build 0)  -->
<svg version="1.1" id="Layer_1" xmlns="http://www.w3.org/2000/svg" xmlns:xlink="http://www.w3.org/1999/xlink" x="0px" y="0px"
	 viewBox="0 0 550.91 675" style="enable-background:new 0 0 550.91 675;" xml:space="preserve">
<style type="text/css">
	.st0{clip-path:url(#SVGID_00000072244386121431568770000007528852959988402851_);}
	.st1{fill:#1E0A39;}
</style>
<g>
	<defs>
		<rect id="SVGID_1_" width="550.91" height="675"/>
	</defs>
	<clipPath id="SVGID_00000116915513563617018590000005224807439601100428_">
		<use xlink:href="#SVGID_1_"  style="overflow:visible;"/>
	</clipPath>
	<g id="Group_45" style="clip-path:url(#SVGID_00000116915513563617018590000005224807439601100428_);">
		<path id="Path_104" class="st1" d="M144.81,65.36c10.05-0.55,19.54-0.9,29.03-1.64c10.63-1.03,20.54-5.8,27.99-13.45
			c11.36-10.91,22.39-22.14,34.01-32.74c9.49-9.46,21.84-15.54,35.13-17.29c14.51-0.96,28.8,3.86,39.78,13.39
			c12.45,10.51,24.23,21.78,35.28,33.76c10.14,10.31,23.84,16.38,38.29,16.96c18.71,1.12,37.5-1.11,56.06,2.32
			c28.8,5.32,43.94,22.58,45.16,51.94c0.69,16.81,1.01,33.64,1.29,50.47c0.4,12.87,5.8,25.07,15.04,34.03
			c12.23,11.58,23.85,23.78,34.84,36.54c8.18,9.5,13.14,21.36,14.16,33.85c0.16,13.12-4.35,25.87-12.72,35.98
			c-7.76,10.5-16.74,20.03-26.76,28.39c-17.89,14.37-27.43,36.72-25.45,59.58c0.48,10.56-0.04,21.18-0.37,31.76
			c-1.11,35.59-21.1,55.4-56.71,56.58c-16.81,0.55-33.63-0.69-50.45,1.17c-11.13,1.16-21.52,6.08-29.49,13.94
			c-11.2,10.67-21.94,21.86-33.55,32.05c-27.66,24.25-52.8,24.1-80.39-0.26c-8.62-7.46-16.76-15.47-24.36-23.98
			c-13.27-15.48-32.95-23.94-53.31-22.92c-14.63,0.9-29.31,0.5-43.87-1.19c-31.76-5.36-47.1-22.9-48.25-55.26
			c-0.61-16.81,0.65-33.63-1.14-50.45c-1-11.14-5.8-21.6-13.6-29.62c-10.14-10.59-20.49-20.97-30.57-31.61
			c-3.32-3.58-6.37-7.4-9.13-11.43c-14.32-18.15-14.3-43.77,0.05-61.9c8.49-11.96,18.5-22.77,29.78-32.16
			c17.15-14.33,26.32-36.06,24.64-58.34c-0.93-13.82-0.52-27.69,1.21-41.43c4.97-29.94,22.53-45.81,52.87-46.96
			C127.98,65.09,136.68,65.37,144.81,65.36 M87.22,404.68c0.01,11.13,0.77,22.25,2.28,33.27c1.28,11.13,9.69,20.12,20.71,22.12
			c15.51,2.83,31.31,3.66,47.03,2.48c27.28-1.56,53.68,9.96,71.09,31.01c8.14,9.49,17.24,18.12,27.16,25.73
			c14.29,10.43,25.11,10.55,39.23,0.04c4.73-3.65,9.22-7.59,13.45-11.79c8.39-8.1,16.53-16.5,24.98-24.56
			c13.45-12.9,31.37-20.1,50-20.09c16-0.41,32.02,0.48,48.02-1.2c20.29-2.13,28.52-10.56,30.26-31.13
			c1.37-16.27,0.74-32.57,1.36-48.85c0.2-15.27,5.33-30.07,14.65-42.18c9.24-10.68,19.02-20.87,29.32-30.53
			c6.68-6.38,12.4-13.68,16.99-21.69c4.19-7.48,4.22-16.59,0.07-24.09c-3.17-6-7.22-11.5-12.01-16.31
			c-9.65-9.94-19.36-19.79-28.99-29.75c-13.14-13.6-20.39-31.84-20.18-50.75c-0.32-16.54,0.57-33.12-1.39-49.65
			c-1.97-16.72-9.44-24.58-25.99-27.25c-6.16-0.98-12.4-1.46-18.64-1.42c-9.23,0.04-18.47-0.24-27.7-0.06
			c-23.94,0.74-47-9.09-63.04-26.89c-9.78-11.29-20.62-21.62-32.39-30.82c-13.55-9.61-22.84-9.65-36.5-0.28
			c-10.58,7.65-20.17,16.59-28.52,26.61c-18.62,22.27-46.92,34.07-75.85,31.61c-13.27-1.18-26.63-0.71-39.79,1.39
			c-12.65,1.31-22.53,11.51-23.45,24.19c-1.93,14.27-2.4,28.71-1.41,43.07c1.55,26.72-9.46,52.63-29.76,70.07
			c-8.79,7.69-16.97,16.06-24.46,25.03c-14.45,17.7-14.68,29.34,0.35,46.78c7.96,9.24,16.83,17.71,25.56,26.27
			c15.12,14.84,26.63,31.49,27.49,53.55C87.5,387.31,87.22,396,87.22,404.68"/>
		<path id="Path_105" class="st1" d="M166.18,646.33c23.23-12.26,45.35-23.96,67.49-35.68c12.43-6.57,24.96-12.96,37.19-19.89
			c3.88-2.47,8.85-2.41,12.67,0.16c34.25,18.37,68.63,36.49,103.03,54.71c2.27-2.25,1.19-4.79,1.19-7
			c0.08-33.93,0.05-67.86,0.06-101.8c0-9.11,4.41-14.77,11.37-14.8c6.96-0.03,11.45,5.65,11.46,14.72
			c0.02,40.43,0.02,80.88,0,121.34c0,14.56-10.57,21.01-23.66,14.16c-34.74-18.17-69.39-36.51-103.95-55.03
			c-3.56-2.35-8.17-2.38-11.77-0.08c-33.09,17.77-66.35,35.23-99.55,52.78c-2.39,1.29-4.78,2.58-7.28,3.57
			c-6.96,3.73-15.62,1.11-19.35-5.85c-1.23-2.29-1.81-4.88-1.67-7.47c-0.18-41.8-0.11-83.61-0.04-125.41
			c-0.72-6.29,3.8-11.97,10.08-12.69c6.29-0.72,11.97,3.79,12.69,10.08c0.1,0.87,0.1,1.74,0,2.6c0.09,34.2,0.04,68.39,0.04,102.59
			v8.96"/>
		<path id="Path_106" class="st1" d="M273.18,406.88c-72.61-1.04-130.62-60.74-129.59-133.34c0.94-65.65,50.17-120.55,115.34-128.61
			c17.79-2.21,35.84-0.73,53.03,4.36c9.03,2.58,12.67,8.05,10.75,15.2c-1.85,6.88-8.16,9.52-17.02,7.1
			c-57.35-16.8-117.45,16.08-134.25,73.42c-16.8,57.35,16.08,117.45,73.42,134.25c57.35,16.8,117.45-16.08,134.25-73.42
			c1.61-5.49,2.78-11.09,3.5-16.76c0.64-7.29,0.78-14.62,0.43-21.94c-0.93-6.78,3.8-13.03,10.58-13.99
			c6.39-0.52,11.99,4.25,12.51,10.64c0.04,0.44,0.05,0.88,0.03,1.32c3.64,38.97-10.77,77.47-39.12,104.46
			c-24.61,25.14-58.7,38.7-93.85,37.33"/>
		<path id="Path_107" class="st1" d="M214.37,232.71c2.66-0.15,5.4,2.4,8.14,5.16c14.75,14.84,29.77,29.38,44.23,44.46
			c4.56,4.76,6.94,5.16,11.87,0.21c37.63-38.01,75.62-75.68,113.5-113.45c1.79-2.04,3.78-3.9,5.92-5.56
			c4.47-3.59,10.96-3.1,14.84,1.12c4.4,3.68,5.04,10.22,1.43,14.68c-1.32,1.72-2.79,3.32-4.4,4.78
			c-43.76,43.8-87.48,87.63-131.17,131.49c-4.65,4.69-6.91,4.28-11.24-0.15c-20.3-20.78-40.98-41.2-61.52-61.75
			c-4.32-3.15-5.95-8.84-3.94-13.79c2.1-4.86,7.12-7.78,12.37-7.2"/>
	</g>
</g>
</svg>
