<?xml version="1.0" encoding="utf-8"?>
<!-- Generator: Adobe Illustrator 26.0.0, SVG Export Plug-In . SVG Version: 6.00 Build 0)  -->
<svg version="1.1" id="Layer_1" xmlns="http://www.w3.org/2000/svg" xmlns:xlink="http://www.w3.org/1999/xlink" x="0px" y="0px"
	 viewBox="0 0 383.11 383.12" style="enable-background:new 0 0 383.11 383.12;" xml:space="preserve">
<style type="text/css">
	.st0{fill:#200C39;}
</style>
<g>
	<path class="st0" d="M0,302.3c1.31-0.68,1.08-2.1,1.45-3.19c3.34-9.87,9.67-16.96,19.35-20.94c4.81-1.98,9.6-4.11,14.58-5.58
		c3.47-1.03,2.52-3.37,2.64-5.55c0.15-2.73-1.97-2-3.41-2.15c-14.98-1.57-28.31-15.72-28.56-30.77c-0.24-14.21,0.3-28.44-0.21-42.64
		c-0.94-26.43,17.94-44.53,35.11-50.9c15.28-5.67,30.16-5.34,44.53,2.86c1.99,1.13,4.21,1.4,6.32,2.1
		c20.99,6.89,34.9,25.74,35.25,48.18c0.2,12.59,0.17,25.19,0,37.78c-0.23,17.98-13.01,31.81-30.68,33.53
		c-1.23,0.12-3.07-0.38-2.87,1.86c0.18,1.98-1.11,4.42,2.17,5.42c5.09,1.56,10.05,3.54,15.11,5.25c3.92,1.32,7.59,3.08,10.89,5.58
		c0.84,0.63,1.53,1.77,2.77,0.47c6.09-6.4,14.37-8.6,22.27-11.52c3.72-1.38,7.4-2.89,11.17-4.11c1.89-0.61,2.62-1.58,2.35-3.49
		c-0.11-0.73-0.02-1.49-0.02-2.24c0-4.61,0.53-9.31-0.14-13.82c-0.73-4.87-6.01-6.47-8.85-9.95c-8.53-10.45-13.75-22.16-14.27-35.68
		c-0.38-9.84-0.79-19.73-0.24-29.54c1.11-19.93,14.49-36.59,33.91-42.95c13.14-4.31,25.94-3.64,38.18,3.25
		c0.95,0.54,2.03,0.91,3.09,1.2c19.76,5.35,33.28,21.41,34.37,42.02c0.64,12.15,1.28,24.44-1.58,36.47
		c-3.45,14.51-11.28,26.14-23.65,34.57c-1.7,1.16-2.53,2.34-2.42,4.49c0.2,3.86,0.24,7.74-0.01,11.59c-0.16,2.5,0.83,3.38,3.06,4.09
		c7.32,2.34,14.54,4.97,21.83,7.4c5.13,1.71,9.88,4.02,13.94,7.66c0.74,0.66,1.34,1.84,2.73,0.61c6.64-5.83,15.15-7.86,23.13-10.81
		c3.82-1.41,3.05-3.89,3-6.47c-0.03-1.36-1.23-1.29-2.21-1.43c-18.18-2.64-29.59-15.5-29.77-33.81c-0.14-14.21-0.13-28.43,0-42.64
		c0.19-20.86,13.9-39.75,34.68-47.75c15.33-5.9,30.37-5.54,44.87,2.73c1.99,1.13,4.24,1.34,6.32,2.1
		c20.33,7.45,32.62,21.71,34.67,43.36c1.51,15.86,1.34,31.9-0.05,47.8c-1.28,14.64-14.62,27.02-29.36,28.29
		c-1.35,0.12-3.61-0.81-3.57,1.95c0.03,2.19-0.82,4.53,2.6,5.52c5.59,1.62,11.03,3.74,16.49,5.78
		c13.83,5.17,22.14,17.11,22.16,31.77c0.02,16.58,0.01,33.17,0,49.75c0,5.06-1.05,6.12-6.08,6.12
		c-34.29,0.01-68.58,0.07-102.86-0.09c-3.58-0.02-4.39,1.09-4.09,4.31c0.26,2.84,0.08,5.73,0.05,8.6c-0.03,2.87-1.51,4.34-4.38,4.4
		c-0.12,0-0.25,0-0.37,0c-49.25,0-98.5,0-147.75,0c-3.05,0-4.62-1.47-4.62-4.55c-0.01-3.12-0.23-6.26,0.07-9.35
		c0.28-2.93-0.81-3.4-3.49-3.39c-30.3,0.1-60.6,0.06-90.9,0.06c-4.11,0-8.24-0.15-12.34,0.06c-2.54,0.13-4.6-0.46-6.32-2.3
		C0,343.21,0,322.76,0,302.3z M121.22,340.38c0,10.47,0.06,20.95-0.05,31.42c-0.02,2.27,0.33,3.23,2.96,3.17
		c7.85-0.2,15.71-0.18,23.56-0.01c2.39,0.05,2.86-0.69,2.83-2.92c-0.12-10.85-0.05-21.69-0.05-32.54c0-5.35,1.15-7.29,4.3-7.24
		c3.03,0.04,4.07,1.83,4.07,7.02c0,10.85,0.07,21.69-0.05,32.54c-0.03,2.38,0.53,3.16,3.06,3.14c19.82-0.11,39.64-0.12,59.47,0
		c2.63,0.02,3.04-0.93,2.99-3.21c-0.13-6.23-0.05-12.47-0.04-18.7c0-5.49-0.1-10.97,0.06-16.46c0.11-3.63,3.38-5.5,6.19-3.76
		c1.97,1.22,2.15,3.15,2.14,5.23c-0.03,11.35,0.06,22.69-0.08,34.04c-0.03,2.35,0.63,2.9,2.9,2.85c7.73-0.15,15.46-0.17,23.19,0.01
		c2.58,0.06,3.31-0.54,3.29-3.22c-0.13-20.07-0.05-40.14-0.08-60.22c-0.02-12.87-7.36-23.39-19.45-27.69
		c-7.71-2.74-15.54-5.14-23.23-7.93c-2.15-0.78-3-0.38-3.99,1.56c-3.81,7.39-7.44,14.91-11.81,21.98
		c-5.51,8.91-8.97,18.08-7.68,28.78c0.47,3.86-1.42,5.82-4.3,5.63c-3.71-0.24-4.18-2.91-4.17-5.87c0.02-4.61-0.02-9.23,0.05-13.84
		c0.03-1.7-0.45-3.08-1.4-4.5c-7.21-10.74-14.37-21.51-21.48-32.32c-1.11-1.7-2.02-2.3-4.18-1.42c-6.66,2.7-13.48,4.99-20.19,7.58
		c-11.8,4.56-18.79,14.77-18.83,27.35C121.19,320.68,121.22,330.53,121.22,340.38z M60.35,357.67c16.2,0,32.4-0.08,48.61,0.07
		c3.07,0.03,4.19-0.43,4.13-3.92c-0.25-14.45-0.04-28.91-0.14-43.37c-0.04-5.99,1.22-11.65,4.03-16.84c1.2-2.22,0.65-3.17-1.12-4.4
		c-4.37-3.03-9.49-4.22-14.35-6.04c-3.12-1.17-6.64-3.49-9.38-2.82c-2.81,0.69-3.85,5.12-5.81,7.8c-0.81,1.1-1.51,2.28-2.26,3.43
		c-3.94,6.04-9.05,11.64-11.5,18.24c-2.46,6.62-0.56,14.26-0.74,21.45c-0.07,2.96-0.84,5.36-4.22,5.41
		c-3.47,0.04-4.18-2.42-4.15-5.37c0.06-6.11,0-12.21,0.06-18.32c0.02-1.56-0.3-2.86-1.26-4.15c-6.74-9.1-13.46-18.21-20.08-27.4
		c-1.2-1.66-2.19-1.82-4.01-1.05c-4.56,1.93-9.26,3.54-13.85,5.4c-10.05,4.07-16.03,12.93-16.06,23.8
		c-0.04,14.96,0.05,29.91-0.07,44.87c-0.02,2.55,0.52,3.32,3.21,3.3C27.7,357.6,44.03,357.67,60.35,357.67z M322.45,357.67
		c16.46,0,32.92-0.05,49.38,0.05c2.35,0.01,3.14-0.47,3.11-3.01c-0.13-14.96-0.02-29.93-0.08-44.89
		c-0.04-10.72-6.33-19.78-16.39-23.61c-5.33-2.03-10.8-3.68-16.11-5.75c-1.85-0.72-2.57-0.22-3.51,1.25
		c-4.85,7.53-9.63,15.12-14.79,22.43c-2.94,4.16-4.36,8.38-3.95,13.49c0.37,4.58,0.08,9.22,0.07,13.84c0,2.99-1.04,5.29-4.43,5.2
		c-3.25-0.08-3.98-2.43-3.97-5.21c0.03-6.11,0-12.22,0.05-18.33c0.01-1.53-0.17-2.9-1.14-4.2c-6.82-9.21-13.58-18.45-20.34-27.7
		c-0.69-0.94-1.33-1.9-2.69-1.3c-6.91,3.04-14.41,4.7-20.8,8.94c-1.74,1.16-2.53,2.22-1.2,4.49c3.26,5.58,4.55,11.72,4.5,18.22
		c-0.11,14.21,0.04,28.43-0.1,42.65c-0.03,2.69,0.48,3.54,3.39,3.51C289.77,357.58,306.11,357.67,322.45,357.67z M192.32,248.53
		c2.77,0.2,6.33-0.37,9.83-1.28c19.29-5.02,33.95-22.51,35.67-42.36c0.15-1.73-0.74-2.15-1.83-2.7
		c-13.65-6.81-24.28-16.83-31.78-30.09c-1.16-2.06-1.73-1.7-3.02-0.23c-7.89,9.03-18.01,12.37-29.59,10.29
		c-13.01-2.34-28.25,13.36-25.87,26.21C149.95,231.1,169.17,248.5,192.32,248.53z M262.58,199.7c20.83-2.9,38-11.88,51.15-28.13
		c4.38-5.41,5.85-5.41,10.37-0.18c12.48,14.43,25.69,28.15,39.61,41.2c0.84,0.79,1.47,1.98,3.1,2.1c0-7.54,0.2-14.98-0.04-22.4
		c-0.64-19.33-13.62-35.12-32.41-39.62c-1.36-0.33-2.58-0.82-3.75-1.55c-15.64-9.7-38.84-7.74-52.07,4.8
		C266.05,167.75,262.12,182.9,262.58,199.7z M14.19,199.79c1.75-0.31,2.97-0.51,4.19-0.73c19.09-3.48,34.94-12.49,47.16-27.68
		c4.19-5.2,5.7-5.22,10.14-0.09c11.5,13.31,23.65,26,36.34,38.17c1.93,1.85,3.93,3.65,6.53,6.06c0-8.05,0.06-15.22-0.01-22.39
		c-0.23-22.06-16.91-37.68-33.16-40.62c-0.83-0.15-1.66-0.55-2.4-0.98c-17.01-9.93-33.84-8.28-49.45,2.39
		C17.69,164.72,13.71,181.35,14.19,199.79z M98.93,216.26c-0.45-3.35,0.62-7.24-2.43-10.29c-8.28-8.28-16.29-16.81-24-25.62
		c-1.38-1.58-2.08-1.8-3.59-0.08c-7.88,9.03-17.46,15.85-28.37,20.74c-1.66,0.74-2.63,1.67-3.07,3.33
		c-3.47,13.27-1.87,25.69,6.65,36.71c11.58,14.98,31.48,15.96,44.49,2.27C95.72,235.85,98.82,226.73,98.93,216.26z M347.29,216.26
		c-0.36-3.35,0.59-7.25-2.42-10.27c-8.28-8.28-16.28-16.82-24-25.62c-1.35-1.53-2.07-1.88-3.6-0.11
		c-7.86,9.06-17.46,15.83-28.35,20.76c-1.65,0.75-2.63,1.65-3.07,3.34c-3.44,13.13-1.92,25.46,6.42,36.42
		c12.46,16.36,34.8,16.16,47.15-0.27C344.75,233.41,347.24,225.36,347.29,216.26z M145.42,184.83c7.32-8.08,16.14-12.35,26.51-10.92
		c11.01,1.52,19.05-2.17,25.69-10.62c6.1-7.75,7.59-7.44,12.01,1.34c6.32,12.54,15.57,22.25,28.39,29.18
		c0-5.53,0.11-10.6-0.02-15.66c-0.31-11.65-5.07-21.26-14.27-28.29c-8.68-6.64-19.41-9.02-29.38-12.94
		c-1.35-0.53-2.92-0.6-4.39-0.75C168.52,134.01,140.53,151.21,145.42,184.83z M192.02,303.12c5.02-9.37,9.57-18.94,15.13-27.88
		c4.35-7,2.73-14.17,3.15-21.69c-11.39,4.11-22.39,4.25-33.52,1.39c-2.72-0.7-5.1-2.44-8.01-2.51c-0.07,2.97,0.1,5.97-0.25,8.92
		c-0.6,5.14,1.11,9.31,4.07,13.45c5.56,7.79,10.66,15.91,16.01,23.85C189.65,300.17,190.37,301.94,192.02,303.12z M294.73,254.8
		c0,6.03,0.03,11.49-0.02,16.95c-0.01,1.23,0.56,2.09,1.24,3c6.05,8.21,12.15,16.39,18.05,24.7c1.66,2.34,2.25,1.61,3.46-0.28
		c4.82-7.54,9.79-14.99,14.71-22.46c0.62-0.94,1.21-1.86,1.21-3.06c-0.02-4.86-0.04-9.72,0.01-14.58c0.02-1.9-0.54-1.99-2.19-1.26
		C318.79,263.32,306.82,262.18,294.73,254.8z M46.34,254.71c0,5.95,0.03,11.17-0.02,16.4c-0.01,1.3,0.28,2.39,1.07,3.45
		c6.13,8.29,12.26,16.59,18.3,24.94c1.27,1.75,1.94,2.05,3.26-0.01c4.93-7.75,9.99-15.42,15.06-23.08c0.72-1.09,1.09-2.17,1.08-3.46
		c-0.04-4.48-0.07-8.96,0.01-13.44c0.04-2.06-0.24-2.64-2.46-1.58c-4.39,2.1-9.07,3.15-14.01,3.29
		C60.7,261.43,53.51,259.29,46.34,254.71z M14.19,222.09c0.01,0,0.01,0,0.02,0c0,3.61-0.08,7.23,0.02,10.83
		c0.31,11.57,9.78,22.2,21.08,23.65c0.93,0.12,2.71,0.82,2.62-0.93c-0.21-3.83,1.03-7.67-1.76-11.43
		c-6.41-8.67-9.03-18.68-8.65-29.45c0.11-3.03,0.31-6.06,0.47-9.08c-3.05,0.57-6.07,1.37-9.14,1.64c-3.81,0.33-5.29,1.89-4.72,5.83
		C14.53,216.06,14.19,219.1,14.19,222.09z M276.82,205.51c-4.2,0.85-8.04,1.83-11.93,2.32c-2.05,0.26-2.35,1.09-2.33,2.83
		c0.07,7.59-0.11,15.19,0.09,22.78c0.29,11.26,10.16,21.96,21.14,23.15c0.87,0.09,2.48,0.62,2.43-0.78
		c-0.13-3.52,1.31-7.31-1.03-10.52C276.55,233.45,274.31,220.27,276.82,205.51z M107.5,216.71c-0.32,3.15-0.42,5.61-0.85,8.02
		c-1.63,9.25-5.41,17.5-11.94,24.31c-2.11,2.2-1.65,4.91-0.99,6.94c0.57,1.72,3.26,0.7,4.97,0.3c13.03-3,21.34-14.72,19.91-27.89
		c-0.12-1.07-0.47-1.86-1.25-2.57C114.24,222.99,111.16,220.11,107.5,216.71z M355.68,216.53c-0.39,13.26-4.56,23.96-12.97,32.99
		c-1.8,1.94-1.24,4.66-0.55,6.68c0.44,1.28,2.93,0.57,4.43,0.22c10.34-2.41,17.11-8.67,19.66-19.04c0.87-3.56,1.96-7.8-0.16-10.83
		C363.53,222.9,359.61,220.2,355.68,216.53z"/>
	<path class="st0" d="M208.01,0c3.25,5.12,3.58,11.15,5.05,16.79c0.74,2.84,2.2,3.91,4.6,5.33c5.63,3.32,10.27,2.52,15.08-1.37
		c2.2-1.78,4.87-2.97,7.3-4.49c2.37-1.49,4.42-1.13,6.36,0.82c6.17,6.18,12.32,12.37,18.57,18.46c2.28,2.22,2.38,4.35,0.7,6.96
		c-2.56,3.97-4.89,8.09-7.45,12.06c-1.05,1.64-0.7,2.95-0.32,4.77c1.55,7.49,6.59,9.81,13.45,11.1c12.8,2.41,10.66,1.78,10.79,13.26
		c0.08,6.36-0.08,12.72,0.05,19.08c0.07,3.26-1.14,5.08-4.43,5.79c-4.72,1.02-9.35,2.5-14.09,3.42c-1.94,0.38-2.41,1.51-3.3,2.9
		c-4.01,6.27-2.53,11.48,1.52,17.37c7.18,10.43,6.67,8.71-1.91,17.34c-1.41,1.41-2.75,2.91-4.27,4.19
		c-1.85,1.56-3.97,1.73-5.71-0.06c-1.79-1.85-1.87-3.98-0.02-5.97c0.34-0.37,0.71-0.7,1.04-1.07c1.99-2.19,5.6-3.88,5.76-6.5
		c0.14-2.35-2.36-5.07-4.13-7.29c-4.5-5.66-4.61-10.7-1.74-17.81c3.09-7.63,7.1-11.08,14.85-12.39c8.19-1.37,8.1-1.92,8.1-10.14
		c0-2.37,0-4.74,0-7.11c0-5.99,0.07-6.6-5.66-7.26c-9.28-1.07-14.82-5.02-17.86-14.46c-1.84-5.73-2.38-9.8,1.29-14.52
		c2.19-2.82,5.48-6.32,5.14-9.14c-0.34-2.85-4.51-5.27-7.06-7.82c-2.47-2.46-4.79-6.41-7.58-6.8c-2.7-0.38-6.15,2.64-8.85,4.72
		c-5.04,3.89-9.93,5.12-15.42,1c-1.15-0.87-2.67-1.49-4.1-1.7c-5.38-0.79-7.79-3.99-8.5-9.18c-0.45-3.3-1.77-6.48-2.29-9.78
		c-0.32-2.02-1.22-2.33-2.94-2.31c-5.61,0.07-11.22,0.09-16.83-0.01c-1.83-0.03-2.6,0.53-2.98,2.4c-0.83,4.13-2.05,8.19-2.92,12.31
		c-0.63,2.96-2,4.83-5.12,5.63c-3.97,1.01-7.72,2.71-11.31,4.69c-2.1,1.16-3.91,1.05-5.91-0.21c-3.89-2.45-7.9-4.71-11.8-7.15
		c-1.39-0.87-2.31-1.27-3.72,0.22c-3.93,4.17-8.06,8.16-12.17,12.15c-1.17,1.14-1.33,1.95-0.36,3.42c2.53,3.83,4.72,7.9,7.23,11.75
		c1.4,2.15,1.43,4.05,0.18,6.24c-2.1,3.67-3.72,7.57-4.88,11.64c-0.69,2.42-2.19,3.73-4.63,4.26c-4.36,0.95-8.68,2.08-13.04,3.05
		c-1.79,0.4-2.69,1.07-2.62,3.2c0.18,5.48,0.17,10.97,0.01,16.46c-0.06,2.1,0.73,2.66,2.63,3.05c4.37,0.9,8.64,2.25,13.01,3.18
		c2.51,0.54,3.93,1.86,4.6,4.26c1.15,4.08,2.76,7.98,4.85,11.66c1.26,2.22,1.15,4.13-0.22,6.24c-2.3,3.54-4.35,7.25-6.68,10.78
		c-1.32,2-1.81,3.51,0.52,5.17c1.6,1.14,2.95,2.68,4.26,4.18c1.58,1.81,1.78,3.89,0.13,5.73c-1.8,2-4,2.01-5.93,0.2
		c-3.09-2.9-6.08-5.91-9.01-8.97c-1.6-1.67-1.41-3.55-0.22-5.47c2.56-4.11,5-8.31,7.61-12.39c1.09-1.7,0.93-3.06,0.48-5.06
		c-1.66-7.42-6.57-9.65-13.45-11.07c-12.28-2.53-10.73-0.87-10.78-13.27c-0.03-6.36,0.08-12.72-0.04-19.08
		c-0.06-3.24,1.05-5.06,4.42-5.73c4.86-0.97,9.63-2.43,14.47-3.49c1.43-0.32,2.2-0.96,2.59-2.26c0.04-0.12,0.08-0.24,0.14-0.34
		c4.08-6.25,2.86-11.61-1.35-17.69c-7.19-10.4-6.76-8.53,1.96-17.29c4.22-4.24,8.48-8.45,12.72-12.67c3.58-3.56,4.21-3.63,8.67-0.95
		c3.73,2.23,7.48,4.44,11.15,6.75c1.59,1,2.89,0.86,4.77,0.45c7.37-1.62,10.27-6.25,11.23-13.35c0.5-3.72,0.71-8.01,4.13-10.82
		C186.56,0,197.29,0,208.01,0z"/>
	<path class="st0" d="M157.13,89.92c0.03-18.89,15.65-34.45,34.5-34.39c19.05,0.07,34.41,15.69,34.35,34.91
		c-0.07,18.74-15.41,34.01-34.31,34.14C172.6,124.71,157.09,109.14,157.13,89.92z M191.46,64.07
		c-14.44,0.06-26.13,11.76-26.09,26.11c0.04,14.35,11.81,25.95,26.28,25.92c14.44-0.03,26.14-11.74,26.09-26.1
		C217.69,75.67,205.87,64.01,191.46,64.07z"/>
	<path class="st0" d="M196.83,346.27c0,3.05-2.36,5.44-5.36,5.39c-3-0.04-5.28-2.48-5.21-5.55c0.07-2.96,2.23-5.12,5.18-5.18
		C194.54,340.87,196.83,343.13,196.83,346.27z"/>
</g>
</svg>
