<?xml version="1.0" encoding="utf-8"?>
<!-- Generator: Adobe Illustrator 26.0.0, SVG Export Plug-In . SVG Version: 6.00 Build 0)  -->
<svg version="1.1" id="Layer_1" xmlns="http://www.w3.org/2000/svg" xmlns:xlink="http://www.w3.org/1999/xlink" x="0px" y="0px"
	 viewBox="0 0 1920 1080" style="enable-background:new 0 0 1920 1080;" xml:space="preserve">
<style type="text/css">
	.st0{fill:#EEE7F2;}
	.st1{fill:#E7DDED;}
	.st2{opacity:0.03;}
	.st3{fill:#4D2963;}
</style>
<rect class="st0" width="1934" height="1091"/>
<g>
	<polygon class="st1" points="1255.75,342.27 1342.29,376.13 1364.97,480 1438,292.67 	"/>
	<polygon class="st1" points="1091.5,531.02 1219.26,799 1269.76,669.42 1148.32,418.97 	"/>
	<polygon class="st1" points="1094.9,469.61 1205.24,251.39 1091.64,244.14 1053.16,324.11 1053.16,324.11 1022.83,386.99 
		1022.92,387.18 947.2,544.6 852.16,286.37 736.92,286.37 885.82,672.24 934.74,798.99 990.04,685.25 990.04,685.26 990.04,685.25 
		1068.98,522.9 1069,522.86 1078.4,503.54 1094.9,469.6 	"/>
</g>
<g class="st2">
	<polygon class="st3" points="39.55,577.26 42.41,584.67 40.91,577.79 	"/>
	<polygon class="st3" points="780.69,765.78 778.82,770.7 796.87,765.78 	"/>
	<line class="st3" x1="547.52" y1="416.87" x2="537" y2="443.85"/>
	<polygon class="st3" points="1089.74,443.85 1099.37,419.14 1085.04,419.14 1075.4,443.85 	"/>
	<polygon class="st3" points="189.44,477.34 188.04,473.59 188.04,477.72 	"/>
	<polygon class="st3" points="731.52,798.27 726.44,787.75 726.44,799.65 	"/>
	<path class="st3" d="M176.62,593.24l-8.84,22.68l-2.75-12.58l-10.48-4.1L176.62,593.24z M49.87,534.99l47.71-12.98l-19.12,49.04
		l-5.94-27.19L49.87,534.99z M91.53,620.26l-5.49-25.15l-20.95-8.2l44.13-12.01L91.53,620.26z"/>
	<polygon class="st3" points="-11.91,443.85 -11.52,444.86 -11.74,443.85 	"/>
	<path class="st3" d="M1016.63,574.91l-17.68,45.36l-5.49-25.15l-20.95-8.2L1016.63,574.91z M1020.85,531.74l-2.75-12.58l-10.48-4.1
		l22.06-6L1020.85,531.74z M912.38,496.57l98.56-26.82l-39.49,101.3l-12.26-56.17L912.38,496.57z M973.06,597.58l-17.68,45.36
		l-5.49-25.15l-20.95-8.2L973.06,597.58z M905.18,682.97l-19.12,49.04l-5.94-27.19l-22.65-8.86L905.18,682.97z M860.1,728.66
		l-8.84,22.68l-2.75-12.58l-10.48-4.1L860.1,728.66z"/>
	<polygon class="st3" points="-17.14,419.14 -21.44,419.14 -18.43,426.93 -18.16,426.86 -18.31,427.25 -11.91,443.85 -11.74,443.85 
			"/>
	<path class="st3" d="M760.49,991.95l-8.84,22.68l-2.75-12.58l-10.48-4.1L760.49,991.95z M764.39,1034.73l-22.65-8.86l47.71-12.98
		l-19.12,49.04L764.39,1034.73z M798.89,1080.48l-2.75-12.58l-10.48-4.1l22.06-6L798.89,1080.48z M800.78,1048.75l-2.75-12.58
		l-10.48-4.1l22.06-6L800.78,1048.75z M872.68,949.87l-42.91,110.07l-13.33-61.04l-50.85-19.89L872.68,949.87z M789.44,909.75
		l-19.12,49.04l-5.94-27.19l-22.65-8.86L789.44,909.75z"/>
	<polygon class="st3" points="726.3,1168.8 726.44,1169.09 726.44,1168.43 	"/>
	<polygon class="st3" points="245.02,1109.94 254.11,1133.51 249.33,1111.63 	"/>
	<polygon class="st3" points="726.44,1088.02 726.38,1087.71 701.03,1087.71 694.87,1103.53 706.21,1127.08 726.44,1121.58 	"/>
	<path class="st3" d="M590.9,567.69l-8.84,22.68l-2.75-12.58l-10.48-4.1L590.9,567.69z M554.25,597.58L527,667.5l-8.46-38.77
		l-32.3-12.63L554.25,597.58z M516.46,580.91l22.06-6l-8.84,22.68l-2.75-12.58L516.46,580.91z M531.58,565.85l-2.75-12.58
		l-10.48-4.1l22.06-6L531.58,565.85z M472.53,542.98l47.71-12.98l-19.12,49.04l-5.94-27.19L472.53,542.98z"/>
	<path class="st3" d="M260.49,758.55l-2.75-12.58l-10.48-4.1l22.06-6L260.49,758.55z M262.38,726.82l-2.75-12.58l-10.48-4.1l22.06-6
		L262.38,726.82z M251.04,690.96l-19.12,49.04l-5.94-27.19l-22.65-8.86L251.04,690.96z M222.09,670.02l-8.84,22.68l-2.75-12.58
		l-10.48-4.1L222.09,670.02z"/>
	<polygon class="st3" points="523.43,429.06 516.3,443.85 526.66,443.85 	"/>
	<polygon class="st3" points="236.44,1087.71 238.54,1093.14 258.47,1087.71 	"/>
	<path class="st3" d="M715.02,915.17l-8.84,22.68l-2.75-12.58l-10.48-4.1L715.02,915.17z M629.93,942.19l-5.49-25.15l-20.95-8.2
		l44.13-12.01L629.93,942.19z M635.98,843.94l-19.12,49.04l-5.94-27.19l-22.65-8.86L635.98,843.94z M312.85,1073.26l-2.75-12.58
		l-10.48-4.1l22.06-6L312.85,1073.26z M347.66,1053.94l-5.94-27.19l-22.65-8.86l47.71-12.98L347.66,1053.94z M434.66,919.51
		l-17.68,45.36l-5.49-25.15l-20.95-8.2L434.66,919.51z M482.45,853.67l-2.75-12.58l-10.48-4.1l22.06-6L482.45,853.67z
		 M472.53,791.68l-39.49,101.3l-12.26-56.17l-46.8-18.31L472.53,791.68z M402.92,867.08l-40.89,104.87l-12.7-58.15l-48.45-18.95
		L402.92,867.08z M203.33,922.73l47.71-12.98l-19.12,49.04l-5.94-27.19L203.33,922.73z M227.19,979.01l107.09-29.14l-42.91,110.07
		l-13.33-61.04L227.19,979.01z M271.22,1026.07l-8.84,22.68l-2.75-12.58l-10.48-4.1L271.22,1026.07z M269.33,1057.8l-8.84,22.68
		l-2.75-12.58l-10.48-4.1L269.33,1057.8z"/>
	<polygon class="st3" points="1075.4,443.85 1085.04,419.14 1059.67,419.14 1065.06,443.85 	"/>
	<polygon class="st3" points="914.78,419.14 912.39,419.14 903,443.85 905.15,443.85 	"/>
	<polygon class="st3" points="1010.93,439.84 1021.19,443.85 1052.02,443.85 1058.64,426.86 	"/>
	<polygon class="st3" points="962.16,438.28 972.64,442.38 972.96,443.85 979.71,443.85 984.22,432.27 	"/>
	<polygon class="st3" points="1068.77,460.85 1075.4,443.85 1065.06,443.85 	"/>
	<polygon class="st3" points="905.15,443.85 903,443.85 898.4,455.96 899.13,459.3 	"/>
	<polygon class="st3" points="888.08,551.91 897.59,527.51 890.31,524.66 899.7,522.1 915.34,481.97 885.42,490.12 877.06,512.13 
		879.61,513.13 	"/>
	<polygon class="st3" points="1064.8,507.86 1073.48,485.59 1034.79,496.12 	"/>
	<polygon class="st3" points="1033.59,551.84 1038.64,574.98 1055.88,530.74 1010.93,542.98 	"/>
	<polygon class="st3" points="1033.59,448.7 1039.52,475.89 1052.02,443.85 1021.19,443.85 	"/>
	<polygon class="st3" points="971.44,571.05 1010.93,469.75 912.38,496.57 959.18,514.88 	"/>
	<polygon class="st3" points="993.46,595.11 998.95,620.26 1016.63,574.91 972.5,586.91 	"/>
	<polygon class="st3" points="900.44,650.02 941.32,545.15 855.65,568.46 852.06,577.91 887.74,591.87 	"/>
	<polygon class="st3" points="1018.1,519.16 1020.85,531.74 1029.69,509.06 1007.62,515.06 	"/>
	<polygon class="st3" points="970.31,673.03 981.13,722.57 1015.98,633.15 928.93,656.84 	"/>
	<polygon class="st3" points="955.37,642.94 973.06,597.58 928.93,609.59 949.88,617.79 	"/>
	<polygon class="st3" points="975.38,454.95 979.71,443.85 972.96,443.85 	"/>
	<polygon class="st3" points="900.78,528.76 903.53,541.33 912.37,518.65 899.7,522.1 897.59,527.51 	"/>
	<polygon class="st3" points="897.59,527.51 899.7,522.1 890.31,524.66 	"/>
	<polygon class="st3" points="829.77,738.01 872.68,627.94 828.49,639.96 814.69,676.29 816.44,676.97 	"/>
	<polygon class="st3" points="886.06,732.01 905.18,682.97 857.47,695.96 880.12,704.82 	"/>
	<polygon class="st3" points="852.94,765.78 876.71,765.78 879.53,758.55 	"/>
	<polygon class="st3" points="796.87,765.78 820.63,765.78 823.45,758.55 	"/>
	<polygon class="st3" points="872.68,747.88 893.64,756.08 895.76,765.78 905.15,765.78 916.81,735.87 	"/>
	<polygon class="st3" points="851.25,751.33 860.1,728.66 838.03,734.66 848.51,738.76 	"/>
	<polygon class="st3" points="798.89,758.55 807.73,735.87 790.24,740.63 789.24,743.27 796.14,745.97 	"/>
	<polygon class="st3" points="809.62,704.14 803.47,705.81 798.85,717.98 800.78,726.82 	"/>
	<polygon class="st3" points="965.89,761.67 966.97,758.9 962.16,760.21 	"/>
	<polygon class="st3" points="835.4,770.56 856.36,778.75 860.87,799.41 863.92,798.58 876.71,765.78 852.94,765.78 	"/>
	<polygon class="st3" points="796.2,828.46 820.63,765.78 796.87,765.78 778.82,770.7 773.69,784.2 787.73,789.7 	"/>
	<polygon class="st3" points="899.13,781.23 905.15,765.78 895.76,765.78 	"/>
	<polygon class="st3" points="879.61,835.06 888.08,873.84 897.59,849.44 890.31,846.59 899.7,844.03 915.34,803.9 864.88,817.64 
		860.93,827.76 	"/>
	<polygon class="st3" points="738.42,866.64 786.88,885.59 799.57,943.75 840.25,839.41 840.15,838.96 	"/>
	<polygon class="st3" points="841.2,792.09 819.13,798.1 829.61,802.19 830.79,807.6 835.67,806.27 	"/>
	<polygon class="st3" points="726.44,846.5 739.11,814.01 731.52,798.27 726.44,799.65 	"/>
	<polygon class="st3" points="939.6,829.15 947.47,808.95 912.38,818.5 	"/>
	<polygon class="st3" points="887.74,913.8 894.52,944.84 922.86,872.1 839.29,894.84 	"/>
	<polygon class="st3" points="900.78,850.69 903.53,863.26 912.37,840.58 899.7,844.03 897.59,849.44 	"/>
	<polygon class="st3" points="897.59,849.44 899.7,844.03 890.31,846.59 	"/>
	<polygon class="st3" points="860.87,799.41 835.67,806.27 832.36,814.77 830.79,807.6 805.28,814.54 837.58,827.18 840.15,838.96 
		840.46,838.87 840.25,839.41 846.04,865.95 860.93,827.76 847.3,822.42 864.88,817.64 873.3,796.03 863.92,798.58 861.85,803.9 	
		"/>
	<polygon class="st3" points="861.85,803.9 863.92,798.58 860.87,799.41 	"/>
	<polygon class="st3" points="860.93,827.76 864.88,817.64 847.3,822.42 	"/>
	<polygon class="st3" points="840.15,838.96 840.25,839.41 840.46,838.87 	"/>
	<polygon class="st3" points="835.67,806.27 830.79,807.6 832.36,814.77 	"/>
	<polygon class="st3" points="816.44,998.9 829.77,1059.94 872.68,949.87 765.59,979.01 	"/>
	<polygon class="st3" points="864.91,1020.8 867.07,1015.27 857.47,1017.89 	"/>
	<polygon class="st3" points="741.73,1025.87 764.39,1034.73 770.32,1061.93 789.44,1012.89 	"/>
	<polygon class="st3" points="770.32,958.79 789.44,909.75 741.73,922.73 764.39,931.6 	"/>
	<polygon class="st3" points="726.44,956.8 726.44,991.86 741.73,952.64 	"/>
	<polygon class="st3" points="823.45,1080.48 796.87,1087.71 820.63,1087.71 	"/>
	<polygon class="st3" points="735.77,1087.71 747.43,1057.8 726.44,1063.51 726.44,1087.71 	"/>
	<polygon class="st3" points="848.51,1060.69 848.82,1062.11 852.5,1052.65 838.03,1056.59 	"/>
	<polygon class="st3" points="796.14,1067.9 798.89,1080.48 807.73,1057.8 785.66,1063.81 	"/>
	<polygon class="st3" points="798.03,1036.17 800.78,1048.75 809.62,1026.07 787.55,1032.07 	"/>
	<polygon class="st3" points="751.65,1014.63 760.49,991.95 738.42,997.96 748.9,1002.06 	"/>
	<polygon class="st3" points="836.77,1093.02 837.17,1092.01 835.4,1092.49 	"/>
	<polygon class="st3" points="787.73,1111.63 796.2,1150.39 820.63,1087.71 796.87,1087.71 755.43,1098.99 	"/>
	<polygon class="st3" points="726.44,1088.02 729.75,1103.16 735.77,1087.71 726.44,1087.71 	"/>
	<polygon class="st3" points="786.88,1207.52 788.77,1216.2 806.79,1169.97 738.42,1188.57 	"/>
	<polygon class="st3" points="825.31,1122.44 827.09,1117.86 819.13,1120.03 	"/>
	<polygon class="st3" points="746.88,1116.02 726.44,1121.58 726.44,1168.43 	"/>
	<polygon class="st3" points="817.91,1141.42 821.57,1132.04 805.28,1136.47 	"/>
	<polygon class="st3" points="771.04,1261.7 781.94,1233.72 760.39,1239.59 	"/>
	<polygon class="st3" points="537,443.85 547.52,416.87 538.42,398 523.43,429.06 526.66,443.85 	"/>
	<polygon class="st3" points="530.37,460.85 537,443.85 526.66,443.85 	"/>
	<polygon class="st3" points="216.97,551.34 213.17,541.13 200.02,544.71 	"/>
	<polygon class="st3" points="188.04,524.57 197.75,499.68 189.44,477.34 188.04,477.72 	"/>
	<polygon class="st3" points="547.24,516.01 560.57,577.05 589.27,503.42 575.38,474.62 496.39,496.12 	"/>
	<polygon class="st3" points="619.11,565.27 612.69,551.96 616.86,571.05 	"/>
	<polygon class="st3" points="608.28,542.82 602.62,531.09 588.27,534.99 	"/>
	<polygon class="st3" points="501.12,579.03 520.24,529.99 472.53,542.98 495.19,551.84 	"/>
	<polygon class="st3" points="502.32,472.83 501.04,475.49 501.12,475.89 	"/>
	<polygon class="st3" points="610.33,597.58 566.2,609.59 587.16,617.79 591.67,638.45 594.72,637.62 	"/>
	<polygon class="st3" points="518.53,628.73 527,667.5 554.25,597.58 486.23,616.1 	"/>
	<polygon class="st3" points="460.55,620.26 478.23,574.91 449.27,582.79 445.19,591.25 455.06,595.11 	"/>
	<polygon class="st3" points="624.44,595.11 629.93,620.26 636.95,602.25 626.53,580.64 603.48,586.91 	"/>
	<polygon class="st3" points="610.41,674.1 618.88,712.88 628.39,688.47 621.11,685.62 630.5,683.07 646.14,642.94 595.68,656.67 
		591.73,666.79 	"/>
	<polygon class="st3" points="570.95,677.99 469.22,705.68 517.68,724.63 526.66,765.78 537,765.78 571.05,678.45 	"/>
	<polygon class="st3" points="572,631.13 549.93,637.13 560.41,641.23 561.59,646.63 566.47,645.31 	"/>
	<polygon class="st3" points="582.05,590.37 590.9,567.69 568.83,573.7 579.31,577.79 	"/>
	<polygon class="st3" points="538.53,574.91 516.46,580.91 526.94,585.01 529.69,597.58 	"/>
	<polygon class="st3" points="528.83,553.28 531.58,565.85 540.42,543.17 518.35,549.18 	"/>
	<polygon class="st3" points="491.29,509.06 483.87,511.08 479.78,519.54 482.45,531.74 	"/>
	<polygon class="st3" points="442.75,722.7 477.68,633.12 417.03,649.63 409.89,664.41 431.91,673.03 	"/>
	<polygon class="st3" points="261.27,670.41 253.63,649.89 227.19,657.08 	"/>
	<polygon class="st3" points="225.99,712.8 231.92,739.99 251.04,690.96 203.33,703.94 	"/>
	<polygon class="st3" points="225.99,609.67 231.92,636.86 240.55,614.73 232.42,592.89 203.33,600.8 	"/>
	<polygon class="st3" points="188.04,634.87 188.04,669.93 203.33,630.71 	"/>
	<polygon class="st3" points="258.47,765.78 282.23,765.78 285.05,758.55 	"/>
	<polygon class="st3" points="188.04,741.58 188.04,765.78 197.37,765.78 209.03,735.87 	"/>
	<polygon class="st3" points="378.41,735.87 374.97,736.81 360.99,765.78 366.75,765.78 	"/>
	<polygon class="st3" points="257.74,745.97 260.49,758.55 269.33,735.87 247.26,741.87 	"/>
	<polygon class="st3" points="259.63,714.24 262.38,726.82 271.22,704.14 249.15,710.14 	"/>
	<polygon class="st3" points="210.5,680.13 213.25,692.7 222.09,670.02 200.02,676.03 	"/>
	<polygon class="st3" points="472.53,761.77 482.79,765.78 513.62,765.78 520.24,748.79 	"/>
	<polygon class="st3" points="423.76,760.21 434.24,764.31 434.56,765.78 441.31,765.78 445.82,754.2 	"/>
	<polygon class="st3" points="668.38,667.39 661.25,652.62 643.18,657.53 	"/>
	<polygon class="st3" points="708.12,749.76 706.75,746.94 703.3,747.88 	"/>
	<polygon class="st3" points="570.09,733.88 618.54,752.83 621.37,765.78 648.86,765.78 672.12,706.11 	"/>
	<polygon class="st3" points="677.27,765.78 701.03,765.78 703.86,758.55 	"/>
	<polygon class="st3" points="631.58,689.72 634.33,702.3 643.17,679.62 630.5,683.07 628.39,688.47 	"/>
	<polygon class="st3" points="628.39,688.47 630.5,683.07 621.11,685.62 	"/>
	<polygon class="st3" points="571.05,678.45 576.84,704.98 591.73,666.79 578.1,661.46 595.68,656.67 604.1,635.06 594.72,637.62 
		592.65,642.94 591.67,638.45 566.47,645.31 563.16,653.8 561.59,646.63 536.08,653.58 568.38,666.21 570.95,677.99 571.26,677.91 	
		"/>
	<polygon class="st3" points="594.72,637.62 591.67,638.45 592.65,642.94 	"/>
	<polygon class="st3" points="591.73,666.79 595.68,656.67 578.1,661.46 	"/>
	<polygon class="st3" points="571.26,677.91 570.95,677.99 571.05,678.45 	"/>
	<polygon class="st3" points="566.47,645.31 561.59,646.63 563.16,653.8 	"/>
	<polygon class="st3" points="530.37,782.78 537,765.78 526.66,765.78 	"/>
	<polygon class="st3" points="298.78,771.25 298.38,770.18 297,770.56 	"/>
	<polygon class="st3" points="217.03,777.06 249.33,789.7 257.8,828.46 282.23,765.78 258.47,765.78 	"/>
	<polygon class="st3" points="188.04,766.09 191.35,781.23 197.37,765.78 188.04,765.78 	"/>
	<polygon class="st3" points="366.75,765.78 360.99,765.78 358.49,770.97 360.73,781.23 	"/>
	<polygon class="st3" points="349.68,873.84 359.19,849.44 351.91,846.59 361.3,844.03 376.94,803.9 337.41,814.66 329.74,830.57 
		341.21,835.06 	"/>
	<polygon class="st3" points="200.02,866.64 248.47,885.59 261.17,943.75 301.85,839.41 301.75,838.96 	"/>
	<polygon class="st3" points="302.8,792.09 280.73,798.1 291.21,802.19 292.39,807.6 297.27,806.27 	"/>
	<polygon class="st3" points="208.48,794.09 188.04,799.65 188.04,846.5 	"/>
	<polygon class="st3" points="550.32,803.37 576.58,857.9 603.48,788.9 	"/>
	<polygon class="st3" points="515.61,825.57 522.75,810.87 496.39,818.05 	"/>
	<polygon class="st3" points="610.92,865.78 616.86,892.98 635.98,843.94 588.27,856.92 	"/>
	<polygon class="st3" points="492.65,872.78 500.13,857.4 472.53,864.91 	"/>
	<polygon class="st3" points="495.19,770.63 501.12,797.82 513.62,765.78 482.79,765.78 	"/>
	<polygon class="st3" points="606.72,920.49 608.51,924.19 610.33,919.51 	"/>
	<polygon class="st3" points="433.04,892.98 472.53,791.68 373.98,818.5 420.78,836.81 	"/>
	<polygon class="st3" points="434.1,908.84 455.06,917.04 460.04,939.86 467.2,925.14 478.23,896.84 	"/>
	<polygon class="st3" points="624.44,917.04 629.93,942.19 647.61,896.84 603.48,908.84 	"/>
	<polygon class="st3" points="362.04,971.95 402.92,867.08 300.89,894.84 349.34,913.8 	"/>
	<polygon class="st3" points="630.19,969.21 638.07,985.58 646.14,964.87 	"/>
	<polygon class="st3" points="479.7,841.09 482.45,853.67 491.29,830.99 469.22,836.99 	"/>
	<polygon class="st3" points="431.91,994.96 432.32,996.86 448.84,962.9 390.53,978.77 	"/>
	<polygon class="st3" points="411.48,939.72 416.97,964.87 434.66,919.51 390.53,931.52 	"/>
	<polygon class="st3" points="436.98,776.88 441.31,765.78 434.56,765.78 	"/>
	<polygon class="st3" points="362.38,850.69 365.13,863.26 373.97,840.58 361.3,844.03 359.19,849.44 	"/>
	<polygon class="st3" points="359.19,849.44 361.3,844.03 351.91,846.59 	"/>
	<polygon class="st3" points="293.96,814.77 292.39,807.6 266.88,814.54 299.18,827.18 301.75,838.96 302.06,838.87 301.85,839.41 
		307.64,865.95 321.13,831.34 319.34,826.51 308.9,822.42 317,820.22 310.47,802.68 297.27,806.27 	"/>
	<polygon class="st3" points="319.34,826.51 317,820.22 308.9,822.42 	"/>
	<polygon class="st3" points="301.75,838.96 301.85,839.41 302.06,838.87 	"/>
	<polygon class="st3" points="297.27,806.27 292.39,807.6 293.96,814.77 	"/>
	<polygon class="st3" points="631.24,810.98 648.86,765.78 621.37,765.78 	"/>
	<polygon class="st3" points="659.73,817.8 701.11,833.99 711.95,883.66 726.44,846.5 726.44,799.65 	"/>
	<polygon class="st3" points="659.73,770.56 680.68,778.75 686.17,803.9 701.03,765.78 677.27,765.78 	"/>
	<polygon class="st3" points="291.37,1059.94 334.28,949.87 227.19,979.01 278.04,998.9 	"/>
	<polygon class="st3" points="341.72,1026.75 347.66,1053.94 366.78,1004.9 319.07,1017.89 	"/>
	<polygon class="st3" points="231.92,1061.93 251.04,1012.89 211.71,1023.59 214.23,1030.14 225.99,1034.73 	"/>
	<polygon class="st3" points="251.04,909.75 203.33,922.73 225.99,931.6 231.92,958.79 	"/>
	<polygon class="st3" points="341.13,1080.48 314.54,1087.71 338.31,1087.71 	"/>
	<polygon class="st3" points="188.04,956.8 188.04,962.23 193.79,977.13 203.33,952.64 	"/>
	<polygon class="st3" points="258.47,1087.71 282.23,1087.71 285.05,1080.48 	"/>
	<polygon class="st3" points="378.41,1057.8 334.28,1069.81 355.23,1078.01 357.35,1087.71 366.75,1087.71 	"/>
	<polygon class="st3" points="310.11,1060.69 312.85,1073.26 321.69,1050.59 299.63,1056.59 	"/>
	<polygon class="st3" points="260.49,1080.48 269.33,1057.8 247.26,1063.81 257.74,1067.9 	"/>
	<polygon class="st3" points="262.38,1048.75 271.22,1026.07 249.15,1032.07 259.63,1036.17 	"/>
	<polygon class="st3" points="213.25,1014.63 222.09,991.95 201.65,997.51 202.14,998.79 210.5,1002.06 	"/>
	<polygon class="st3" points="643.18,979.46 689.98,997.77 702.24,1053.94 726.44,991.86 726.44,956.8 	"/>
	<polygon class="st3" points="726.44,1063.51 703.3,1069.81 724.26,1078.01 726.38,1087.71 726.44,1087.71 	"/>
	<polygon class="st3" points="660.09,1031.32 666.04,1043.66 672.12,1028.04 	"/>
	<polygon class="st3" points="703.86,1080.48 686.1,1085.31 687.25,1087.71 701.03,1087.71 	"/>
	<polygon class="st3" points="706.18,937.85 715.02,915.17 692.96,921.17 703.44,925.27 	"/>
	<polygon class="st3" points="258.47,1087.71 238.54,1093.14 245.02,1109.94 249.33,1111.63 254.11,1133.51 259.22,1146.75 
		282.23,1087.71 	"/>
	<polygon class="st3" points="366.75,1087.71 357.35,1087.71 360.73,1103.16 	"/>
	<polygon class="st3" points="322.53,1149.69 341.21,1156.99 345.32,1175.81 368.5,1128.13 326.48,1139.57 	"/>
	<polygon class="st3" points="301.75,1160.89 268.19,1170.02 283.25,1209.06 301.85,1161.34 	"/>
	<polygon class="st3" points="302.8,1114.02 280.73,1120.03 291.21,1124.12 292.39,1129.53 297.27,1128.2 	"/>
	<polygon class="st3" points="321.48,1224.83 329.14,1209.09 300.89,1216.77 	"/>
	<polygon class="st3" points="326.48,1139.57 334.9,1117.96 325.52,1120.51 323.45,1125.83 322.47,1121.34 297.27,1128.2 
		293.96,1136.7 292.39,1129.53 266.88,1136.47 299.18,1149.11 301.75,1160.89 302.06,1160.8 301.85,1161.34 307.64,1187.88 
		322.53,1149.69 308.9,1144.35 	"/>
	<polygon class="st3" points="325.52,1120.51 322.47,1121.34 323.45,1125.83 	"/>
	<polygon class="st3" points="308.9,1144.35 322.53,1149.69 326.48,1139.57 	"/>
	<polygon class="st3" points="301.75,1160.89 301.85,1161.34 302.06,1160.8 	"/>
	<polygon class="st3" points="297.27,1128.2 292.39,1129.53 293.96,1136.7 	"/>
	<polygon class="st3" points="726.44,1087.71 726.38,1087.71 726.44,1088.02 	"/>
	<polygon class="st3" points="726.44,1121.58 706.21,1127.08 726.3,1168.8 726.44,1168.43 	"/>
	<polygon class="st3" points="687.25,1087.71 694.87,1103.53 701.03,1087.71 	"/>
	<polygon class="st3" points="-1.4,443.85 8.23,419.14 -17.14,419.14 -11.74,443.85 	"/>
	<polygon class="st3" points="-18.43,426.93 -18.31,427.25 -18.16,426.86 	"/>
	<polygon class="st3" points="171.24,428.43 169.82,424.61 164.9,425.95 	"/>
	<polygon class="st3" points="82.97,443.85 110.46,443.85 120.1,419.14 50.07,419.14 80.14,430.9 	"/>
	<polygon class="st3" points="138.87,443.85 162.63,443.85 165.45,436.62 	"/>
	<polygon class="st3" points="-11.74,443.85 -11.52,444.86 -6.68,457.4 -1.4,443.85 	"/>
	<polygon class="st3" points="3.48,483.74 30.86,554.74 65.08,466.97 	"/>
	<polygon class="st3" points="78.46,571.05 97.57,522.01 49.87,534.99 72.52,543.85 	"/>
	<polygon class="st3" points="49.72,603.63 59.59,629.22 71.93,597.58 	"/>
	<polygon class="st3" points="65.08,586.91 86.03,595.11 91.53,620.26 109.21,574.91 	"/>
	<polygon class="st3" points="82.71,685.62 92.1,683.07 107.74,642.94 68.96,653.49 86.2,698.2 89.99,688.47 	"/>
	<polygon class="st3" points="37.44,571.79 39.55,577.26 40.91,577.79 42.41,584.67 44.13,589.14 52.49,567.69 	"/>
	<polygon class="st3" points="92.84,489.05 110.46,443.85 82.97,443.85 	"/>
	<polygon class="st3" points="121.33,495.87 162.71,512.06 173.55,561.73 188.04,524.57 188.04,477.72 	"/>
	<polygon class="st3" points="121.33,448.63 142.28,456.82 147.77,481.97 162.63,443.85 138.87,443.85 	"/>
	<polygon class="st3" points="104.78,657.53 151.57,675.84 163.84,732.01 188.04,669.93 188.04,634.87 	"/>
	<polygon class="st3" points="188.04,741.58 164.9,747.88 185.86,756.08 187.97,765.78 188.04,765.78 	"/>
	<polygon class="st3" points="93.48,717.06 111.37,763.45 133.72,706.11 	"/>
	<polygon class="st3" points="138.87,765.78 162.63,765.78 165.45,758.55 	"/>
	<polygon class="st3" points="167.78,615.92 176.62,593.24 154.56,599.24 165.03,603.34 	"/>
	<polygon class="st3" points="93.18,689.72 95.93,702.3 104.77,679.62 92.1,683.07 89.99,688.47 	"/>
	<polygon class="st3" points="89.99,688.47 92.1,683.07 82.71,685.62 	"/>
	<polygon class="st3" points="62.21,636.01 63.76,640.03 65.7,635.06 	"/>
	<polygon class="st3" points="187.97,765.78 188.04,766.09 188.04,765.78 	"/>
	<polygon class="st3" points="173.55,883.66 188.04,846.5 188.04,799.65 131.29,815.09 134.29,822.87 162.71,833.99 	"/>
	<polygon class="st3" points="121.33,770.56 142.28,778.75 147.77,803.9 162.63,765.78 138.87,765.78 	"/>
	<polygon class="st3" points="186.15,957.32 188.04,962.23 188.04,956.8 	"/>
	<polygon class="st3" points="170.53,916.83 173.24,923.85 176.62,915.17 	"/>
</g>
</svg>
