<?xml version="1.0" encoding="utf-8"?>
<!-- Generator: Adobe Illustrator 26.0.0, SVG Export Plug-In . SVG Version: 6.00 Build 0)  -->
<svg version="1.1" id="Layer_1" xmlns="http://www.w3.org/2000/svg" xmlns:xlink="http://www.w3.org/1999/xlink" x="0px" y="0px"
	 viewBox="0 0 250.09 250.35" style="enable-background:new 0 0 250.09 250.35;" xml:space="preserve">
<style type="text/css">
	.st0{clip-path:url(#SVGID_00000011029427266456196190000005293171520416230553_);}
	.st1{fill:#F9989A;}
	.st2{fill:#FE4A4D;}
	.st3{fill:#C80013;}
</style>
<g>
	<defs>
		<rect id="SVGID_1_" x="0.09" width="250" height="250.35"/>
	</defs>
	<clipPath id="SVGID_00000163759956336805162670000011769310908876841140_">
		<use xlink:href="#SVGID_1_"  style="overflow:visible;"/>
	</clipPath>
	<g id="Group_32" style="clip-path:url(#SVGID_00000163759956336805162670000011769310908876841140_);">
		<path id="Path_93" class="st1" d="M250.04,124.27c0.34,59.49-41.1,111.07-99.27,123.54c-41.44,9.07-94.45-6.42-123.04-42.53
			C13.86,187.93,4.87,167.19,1.69,145.2c-4.59-27.96,0.26-56.64,13.79-81.54C31.67,33.74,56.73,14.73,89.32,5.4
			c31.62-9.05,62.26-6.92,91.82,7.89c0.5,0.25,1.02,0.46,1.5,0.73c2.36,0.89,3.56,3.53,2.67,5.89c-0.89,2.36-3.53,3.56-5.89,2.67
			c-0.33-0.12-0.64-0.28-0.93-0.48c-5.62-3.07-11.5-5.62-17.59-7.6C124.06,2.96,89.76,8.9,58.25,30.52
			C20.91,55.48,2.14,100.37,10.59,144.49c2.71,17.11,9.15,33.42,18.84,47.77c15.49,23.07,39.33,39.21,66.5,45.03
			c41.14,9.26,78.31,0.87,109.74-28.06c17.13-15.77,27.14-35.84,32.04-58.46c2.65-11.15,3.65-22.62,2.97-34.06
			c-1.11-14.94-5.08-29.53-11.69-42.97c-0.41-0.83-0.87-1.65-1.24-2.49c-1.24-2.23-0.44-5.04,1.79-6.27
			c0.07-0.04,0.15-0.08,0.23-0.12c2.2-1.08,4.86-0.18,5.94,2.01c0.05,0.1,0.1,0.21,0.14,0.31c6.65,12.68,11.06,26.42,13.03,40.6
			C249.74,113.23,250.13,118.75,250.04,124.27"/>
		<path id="Path_94" class="st2" d="M40.14,125.03c0.97-30.5,12.75-55.23,39.12-71.86c11.72-7.11,24.93-11.39,38.59-12.49
			c16.29-1.6,32.68,1.73,47.06,9.57c2.16,1.12,3.69,2.64,3.25,5.24c-0.42,2.48-2.77,4.15-5.25,3.74c-0.69-0.12-1.34-0.39-1.9-0.79
			c-6.21-3.55-12.94-6.11-19.93-7.61c-22.66-4.87-46.3,0.97-64.09,15.82c-15.18,11.51-25.1,28.63-27.52,47.52
			c-5.64,38.87,19.25,75.64,57.43,84.84c45.08,10.85,82.86-18.46,92.07-58.13c4.21-17.28,1.73-35.52-6.96-51.04
			c-0.87-1.22-1.31-2.69-1.23-4.19c0.21-1.92,1.67-3.48,3.57-3.8c2.09-0.48,4.22,0.62,5.04,2.6c3.56,6.41,6.25,13.27,8,20.4
			c10.54,43.05-13.66,87.01-55.69,101.11c-39.97,13.58-97.1-5.44-109.5-61.44c-1.43-6.38-2.12-12.91-2.05-19.44"/>
		<path id="Path_95" class="st3" d="M205.21,73.72c-6.34-0.51-12.28-0.92-18.21-1.52c-1.63-0.27-3.29,0.31-4.39,1.55
			c-17.67,17.76-35.38,35.49-53.13,53.18c-0.61,0.7-1.3,1.34-2.04,1.9c-2.04,1.42-4.85,0.93-6.27-1.11
			c-1.11-1.59-1.08-3.72,0.08-5.27c0.58-0.72,1.23-1.4,1.92-2.02c17.65-17.66,35.31-35.3,52.98-52.93c1.31-1.16,1.92-2.92,1.62-4.64
			c-0.62-5.83-0.97-11.68-1.5-17.52c-0.22-2.06,0.57-4.09,2.12-5.46c10.38-10.3,20.73-20.64,31.03-31.01
			c1.23-1.71,3.44-2.42,5.44-1.73c1.98,0.76,3.24,2.7,3.15,4.82c0.45,5.48,0.91,10.96,1.19,16.44c0.09,1.67,0.35,2.34,2.27,2.42
			c5.48,0.22,10.96,0.73,16.44,1.15c2.21-0.13,4.25,1.21,5,3.29c0.6,2.02-0.15,4.2-1.87,5.41c-10.28,10.27-20.55,20.55-30.81,30.84
			c-1.16,1.57-3.07,2.42-5.01,2.22 M209.6,21.39c-8.05,8.09-15.65,15.74-23.27,23.36c-0.58,0.61-0.83,1.46-0.67,2.28
			c0.39,4.9,0.79,9.83,1.1,14.75c0.07,1.09,0.45,1.37,1.49,1.44c4.83,0.31,9.65,0.67,14.47,1.12c1.2,0.12,2.38-0.37,3.15-1.31
			c7.02-7.07,14.06-14.13,21.1-21.17c0.4-0.4,1.21-0.68,0.83-1.53c-3.64-0.24-7.26-0.48-10.87-0.73c-4.68-0.32-6.23-1.88-6.54-6.58
			C210.14,29.42,209.9,25.82,209.6,21.39"/>
		<path id="Path_96" class="st3" d="M169.51,124.29c0.39,22.47-15.89,41.77-38.1,45.18c-19.61,2.91-45.94-7.5-50.62-36.91
			c-3.91-24.55,11.15-47.99,38.18-51.59c5.54-0.69,11.16-0.46,16.63,0.67c1.27,0.26,2.5,0.69,3.65,1.29
			c2.27,0.93,3.42,3.48,2.6,5.79c-0.91,2.34-3.54,3.5-5.88,2.59c-0.03-0.01-0.06-0.02-0.09-0.04c-8.29-2.77-17.31-2.34-25.3,1.2
			c-13.85,5.94-22.43,20-21.38,35.04c1.84,19.88,14.89,30.48,30.28,32.85c19.08,3.22,37.16-9.65,40.37-28.73
			c0.14-0.82,0.25-1.64,0.33-2.47c0.51-5,0.05-10.05-1.37-14.87c-1.03-2.28-0.02-4.97,2.27-6c2.28-1.03,4.97-0.02,6,2.27
			c0.09,0.19,0.16,0.39,0.22,0.59C168.86,115.35,169.61,119.81,169.51,124.29"/>
	</g>
</g>
</svg>
