<?xml version="1.0" encoding="utf-8"?>
<!-- Generator: Adobe Illustrator 26.0.0, SVG Export Plug-In . SVG Version: 6.00 Build 0)  -->
<svg version="1.1" id="Layer_1" xmlns="http://www.w3.org/2000/svg" xmlns:xlink="http://www.w3.org/1999/xlink" x="0px" y="0px"
	 viewBox="0 0 210.13 209.95" style="enable-background:new 0 0 210.13 209.95;" xml:space="preserve">
<style type="text/css">
	.st0{clip-path:url(#SVGID_00000064335221247874442270000003878993329239337387_);}
	.st1{fill:#E31929;}
	.st2{fill:#F9989A;}
</style>
<g>
	<defs>
		<rect id="SVGID_1_" width="210.13" height="209.95"/>
	</defs>
	<clipPath id="SVGID_00000104698584580669586060000011172669449006815894_">
		<use xlink:href="#SVGID_1_"  style="overflow:visible;"/>
	</clipPath>
	<g id="Group_37" style="clip-path:url(#SVGID_00000104698584580669586060000011172669449006815894_);">
		<path id="Path_97" class="st1" d="M210.13,106.99c-7.91,9.12-16.94,17.21-26.87,24.09c-14.94,11.24-31.77,19.72-49.69,25.06
			c-20.52,5.97-42.39,5.35-62.54-1.77c-19.53-6.85-37.65-17.21-53.46-30.55c-5.3-4.31-10.34-8.94-15.1-13.85
			c-2.77-2.12-3.29-6.08-1.17-8.85c0.34-0.44,0.73-0.83,1.17-1.17c18.28-19.09,40.58-33.87,65.28-43.28
			c13.52-5.25,27.99-7.62,42.48-6.95c14.78,1.03,29.23,4.81,42.62,11.15c20.59,9.58,39.24,22.86,55.04,39.16
			c0.86,1,1.61,2.1,2.23,3.26V106.99z M62.04,104.86c-0.06,23.79,19.17,43.12,42.96,43.19c23.79,0.06,43.12-19.17,43.19-42.96
			c0.06-23.76-19.13-43.09-42.9-43.19C81.53,61.92,62.22,81.09,62.04,104.86 M151.18,73.82c12.49,20.93,12.48,41.38,0.23,61.85
			c0.81,0.17,1.28-0.3,1.79-0.57c14.94-7.71,28.71-17.48,40.92-29.03c1.13-1.05,0.77-1.5-0.11-2.34
			c-8.5-8.01-17.75-15.19-27.62-21.45C161.49,79.15,156.42,76.33,151.18,73.82 M58.98,73.94c-0.72,0.3-1.08,0.42-1.42,0.6
			C42.35,82.31,28.34,92.23,15.97,104c-0.97,0.9-0.6,1.33,0.14,2.04c12.24,11.62,26.06,21.43,41.06,29.15
			c0.47,0.24,0.95,0.86,1.61,0.42c-12.19-20.42-12.21-40.81,0.2-61.64"/>
		<path id="Path_98" class="st1" d="M210.13,205.38c-1.25,3.12-4.45,5-7.78,4.57c-7.51-0.19-15.03-0.05-22.54-0.06
			c-3.39,0.25-6.35-2.3-6.6-5.69c-0.25-3.39,2.3-6.35,5.69-6.6c0.27-0.02,0.54-0.02,0.81-0.01c5.46,0,10.93-0.06,16.39,0.04
			c1.5,0.03,1.77-0.43,1.75-1.8c-0.08-5.32-0.04-10.65-0.03-15.97c-0.43-3.38,1.96-6.47,5.34-6.9c2.98-0.38,5.79,1.44,6.68,4.3
			c0.05,0.11,0.19,0.18,0.3,0.26L210.13,205.38z"/>
		<path id="Path_99" class="st1" d="M32.5,0c3.61,1.98,4.95,4.15,4.48,7.17c-0.5,3.02-3.15,5.21-6.21,5.13
			c-5.53,0.02-11.06,0.06-16.59-0.03c-1.39-0.02-1.84,0.26-1.8,1.75c0.1,5.46,0.05,10.92,0.04,16.37c0.23,3.35-2.3,6.26-5.65,6.49
			c-0.15,0.01-0.3,0.02-0.44,0.01c-3.37,0.07-6.15-2.6-6.23-5.96c0-0.22,0-0.43,0.02-0.65c0-7.51,0.12-15.03-0.06-22.51
			C-0.39,4.44,1.49,1.24,4.61,0H32.5z"/>
		<path id="Path_100" class="st1" d="M210.13,32.39c-2.14,3.87-4.78,5.28-7.95,4.24c-2.66-0.75-4.45-3.22-4.35-5.98
			c-0.02-5.6-0.05-11.2,0.03-16.8c0.02-1.27-0.3-1.59-1.57-1.57c-5.41,0.08-10.8,0.04-16.2,0.03c-3.19,0.32-6.12-1.79-6.82-4.92
			c-0.56-3.07,1.23-6.08,4.19-7.07c0.11-0.05,0.18-0.19,0.27-0.3h27.9c2.19,0.85,3.85,2.67,4.51,4.92L210.13,32.39z"/>
		<path id="Path_101" class="st1" d="M18.59,209.89c-4.03,0-8.06,0.02-12.09,0c-3.34,0.2-6.2-2.35-6.4-5.69
			c-0.01-0.24-0.01-0.48,0-0.71c-0.02-8.05-0.02-16.11,0-24.16c-0.14-3.34,2.44-6.16,5.78-6.31c0.1,0,0.19-0.01,0.29-0.01
			c3.35-0.1,6.14,2.54,6.24,5.89c0,0.16,0,0.32-0.01,0.48c0.02,5.53,0.05,11.06-0.03,16.58c-0.02,1.34,0.35,1.69,1.68,1.67
			c5.46-0.08,10.93-0.04,16.39-0.03c3.39-0.23,6.34,2.33,6.57,5.73s-2.33,6.34-5.73,6.57c-0.27,0.02-0.54,0.02-0.82,0
			c-3.96,0-7.92,0-11.88,0"/>
		<path id="Path_102" class="st1" d="M131.79,104.98c-0.01,14.73-11.95,26.66-26.68,26.65c-14.73-0.01-26.66-11.95-26.65-26.68
			c0.01-14.73,11.95-26.66,26.68-26.65c0.02,0,0.05,0,0.07,0c14.69,0.01,26.58,11.92,26.58,26.61
			C131.79,104.93,131.79,104.95,131.79,104.98 M105.04,90.6c-7.92,0.06-14.29,6.52-14.24,14.44c0.06,7.92,6.52,14.29,14.44,14.24
			c7.92-0.06,14.29-6.52,14.24-14.44C119.33,96.96,112.92,90.64,105.04,90.6"/>
		<path id="Path_103" class="st2" d="M105.02,90.59c7.92-0.05,14.38,6.33,14.43,14.25c0.05,7.92-6.33,14.38-14.25,14.43
			c-7.92,0.05-14.38-6.33-14.43-14.25C90.81,97.14,97.13,90.73,105.02,90.59"/>
	</g>
</g>
</svg>
