<?xml version="1.0" encoding="utf-8"?>
<!-- Generator: Adobe Illustrator 26.0.0, SVG Export Plug-In . SVG Version: 6.00 Build 0)  -->
<svg version="1.1" id="Layer_1" xmlns="http://www.w3.org/2000/svg" xmlns:xlink="http://www.w3.org/1999/xlink" x="0px" y="0px"
	 viewBox="0 0 273.47 356.1" style="enable-background:new 0 0 273.47 356.1;" xml:space="preserve">
<style type="text/css">
	.st0{fill:#55387B;}
	.st1{fill:#EB3338;}
</style>
<g>
	<path class="st0" d="M127.11,209.4c-12.95,0-25.42,0-37.88,0c-20.08,0-40.16-0.02-60.23,0.02c-2.87,0-5.47-0.25-6.93-3.24
		c-1.43-2.92,0.21-4.97,1.84-7.07C74.04,134.11,124.17,69.12,174.31,4.13c1.21-1.57,2.34-3.31,4.39-3.91
		c1.98-0.58,3.69,0.04,5.13,1.45c1.83,1.8,1.76,3.92,1.11,6.23c-3.75,13.38-7.43,26.78-11.16,40.16
		c-8.85,31.79-17.69,63.58-26.64,95.34c-0.8,2.83-0.31,3.39,2.64,3.38c31.55-0.11,63.1-0.06,94.65-0.09c2.44,0,4.81,0.08,6.38,2.26
		c2.08,2.87,0.86,5.3-1.05,7.76c-16.01,20.69-31.97,41.42-47.95,62.13c-34.09,44.19-68.18,88.38-102.27,132.57
		c-0.46,0.59-0.91,1.19-1.37,1.77c-1.85,2.32-4.02,3.86-7.08,2.29c-3.1-1.59-3.46-4.17-2.59-7.3c10.5-37.63,20.96-75.26,31.43-112.9
		C122.28,226.8,124.63,218.33,127.11,209.4z M166.95,32.65c-0.28-0.15-0.55-0.29-0.83-0.44C123.46,87.51,80.8,142.8,37.63,198.76
		c2.32,0,3.66,0,5,0c29.8,0,59.6-0.01,89.4,0.01c6.53,0,8.47,2.6,6.7,8.92c-6.85,24.49-13.72,48.97-20.55,73.46
		c-3.97,14.23-7.88,28.48-11.82,42.73c0.22,0.14,0.44,0.27,0.66,0.41c42.76-55.43,85.51-110.85,128.77-166.93c-2.41,0-3.76,0-5.11,0
		c-29.8,0-59.6,0.01-89.4-0.01c-6.34,0-8.36-2.62-6.68-8.66c8.55-30.7,17.12-61.39,25.69-92.08
		C162.53,48.61,164.74,40.63,166.95,32.65z"/>
	<path class="st1" d="M40.69,129.45c-0.85,0.08-1.77-0.23-2.66-0.73c-11.67-6.55-23.35-13.08-35-19.66
		c-2.1-1.19-3.36-3.04-2.95-5.54c0.38-2.24,1.78-3.74,4.03-4.43c1.75-0.54,3.16,0.19,4.58,0.98c11.36,6.34,22.71,12.69,34.05,19.04
		c2.66,1.49,4.18,3.68,3.2,6.77C45.21,128.19,43.46,129.54,40.69,129.45z"/>
	<path class="st1" d="M273.47,104.28c-0.24,2.11-1.22,3.76-3.09,4.81c-11.66,6.55-23.31,13.13-35.02,19.6
		c-3.03,1.67-5.88,0.81-7.41-1.82c-1.56-2.68-0.88-5.55,2.15-7.29c11.72-6.71,23.47-13.36,35.31-19.87
		C269.14,97.66,273.47,100.29,273.47,104.28z"/>
	<path class="st1" d="M232.6,226.59c0.84-0.06,1.89,0.26,2.89,0.83c11.58,6.51,23.18,13.01,34.76,19.53
		c2.13,1.2,3.35,3.03,2.98,5.53c-0.33,2.29-1.72,3.76-3.99,4.45c-1.75,0.54-3.18-0.15-4.59-0.94
		c-11.38-6.37-22.75-12.79-34.14-19.14c-2.61-1.46-3.89-3.57-3.16-6.47C227.97,227.97,229.73,226.65,232.6,226.59z"/>
	<path class="st1" d="M46.27,231.83c0.07,2.26-1.13,3.74-2.99,4.78c-11.67,6.57-23.32,13.17-35.03,19.66
		c-2.9,1.61-6.01,0.68-7.45-1.85c-1.5-2.64-0.76-5.66,2.2-7.34c11.76-6.68,23.53-13.32,35.4-19.79
		C42.37,225.13,46.32,227.6,46.27,231.83z"/>
	<path class="st1" d="M62.93,314.66c-3.35,0.03-5.96-3.4-5.01-6.67c0.27-0.94,0.74-1.84,1.22-2.7
		c6.13-10.92,12.26-21.84,18.42-32.74c2.22-3.93,4.79-4.98,7.81-3.33c3.01,1.64,3.61,4.64,1.55,8.35
		c-6.16,11.05-12.37,22.07-18.55,33.11C67.17,312.84,65.69,314.6,62.93,314.66z"/>
	<path class="st1" d="M215.87,309.03c-0.37,2.55-1.28,4.27-3.3,5.14c-1.99,0.86-3.93,0.58-5.55-0.86c-0.72-0.64-1.28-1.52-1.77-2.37
		c-6.34-11.23-12.68-22.45-18.96-33.72c-1.9-3.4-1.14-6.45,1.77-8.01c2.8-1.5,5.57-0.6,7.46,2.72c6.42,11.33,12.77,22.7,19.11,34.07
		C215.23,307.06,215.56,308.26,215.87,309.03z"/>
	<path class="st1" d="M88.1,82.1c0.08,2.57-1.18,4.19-3.29,5.05c-1.99,0.82-3.91,0.45-5.49-1.12c-0.44-0.43-0.86-0.92-1.16-1.45
		c-6.58-11.65-13.15-23.3-19.67-34.98c-0.65-1.17-1.12-2.45-0.68-3.92c0.67-2.24,2.02-3.68,4.34-4.08c2.51-0.44,4.39,0.67,5.59,2.79
		c6.58,11.65,13.11,23.34,19.66,35C87.89,80.3,88.18,81.22,88.1,82.1z"/>
	<path class="st1" d="M215.87,47.2c-0.44,1.02-0.87,2.32-1.53,3.5c-6.12,10.92-12.25,21.83-18.42,32.72
		c-2.25,3.98-4.78,5.08-7.76,3.52c-3.17-1.65-3.73-4.63-1.51-8.62c6.22-11.14,12.49-22.25,18.72-33.38
		c1.41-2.52,3.33-3.97,6.37-3.21C214.43,42.41,215.46,44.39,215.87,47.2z"/>
	<path class="st1" d="M14.82,305.36c-2.38,0.1-4.07-0.91-4.94-2.88c-1.04-2.36-0.58-4.58,1.31-6.46
		c5.54-5.53,11.06-11.07,16.6-16.61c1.84-1.85,3.64-3.75,5.56-5.51c2.47-2.27,5.58-2.35,7.68-0.34c2.09,2,2.26,5.33-0.02,7.66
		c-7.48,7.63-15.08,15.14-22.65,22.68C17.36,304.9,16.13,305.46,14.82,305.36z"/>
	<path class="st1" d="M236.32,83.85c-2.36,0.11-4.04-0.9-4.92-2.87c-1.06-2.37-0.59-4.58,1.29-6.46
		c5.54-5.53,11.06-11.08,16.6-16.61c1.84-1.85,3.64-3.75,5.56-5.51c2.47-2.27,5.58-2.36,7.68-0.35c2.11,2.01,2.29,5.32,0,7.66
		c-7.48,7.63-15.08,15.14-22.65,22.68C238.88,83.39,237.65,83.97,236.32,83.85z"/>
	<path class="st1" d="M264.03,300.33c0.04,2.26-1.13,3.85-3.11,4.65c-2.25,0.91-4.38,0.45-6.15-1.33
		c-4.48-4.5-8.98-8.98-13.47-13.46c-2.82-2.82-5.68-5.59-8.43-8.47c-2.5-2.62-2.65-5.79-0.54-7.96c2.09-2.15,5.46-2.12,7.96,0.35
		c7.36,7.25,14.63,14.59,21.94,21.89C263.43,297.19,264.15,298.58,264.03,300.33z"/>
	<path class="st1" d="M42.51,78.72c0.05,2.36-1.14,3.97-3.1,4.76c-2.23,0.9-4.39,0.45-6.16-1.33c-4.13-4.15-8.27-8.28-12.41-12.42
		c-3.17-3.17-6.38-6.3-9.49-9.52c-2.49-2.58-2.64-5.81-0.55-7.97c2.1-2.16,5.44-2.14,7.97,0.35c7.37,7.25,14.64,14.59,21.94,21.9
		C41.9,75.68,42.66,77.06,42.51,78.72z"/>
	<path class="st1" d="M214.86,105.55c-2.68,0.09-4.33-0.95-5.2-2.91c-0.84-1.89-0.86-3.98,0.63-5.57c2.61-2.8,5.31-5.56,8.17-8.11
		c1.99-1.77,4.37-1.67,6.44,0.02c2.04,1.65,2.97,4,1.51,6.25c-2.57,3.96-6.09,7.13-9.84,9.97
		C216.04,105.6,215.14,105.5,214.86,105.55z"/>
	<path class="st1" d="M214.42,250.53c1.28-0.11,2.56,0.32,3.58,1.31c2.57,2.51,5.24,4.94,7.59,7.64c2.06,2.36,2.03,5.04-0.31,7.29
		c-2.18,2.11-4.77,2.21-7.01,0.23c-2.78-2.46-5.36-5.14-7.89-7.86c-1.58-1.71-1.62-3.84-0.62-5.88
		C210.65,251.45,212.2,250.51,214.42,250.53z"/>
	<path class="st1" d="M58.57,250.54c4.6-0.04,7.3,4.35,4.9,7.85c-2.46,3.59-5.67,6.65-9.2,9.21c-2.02,1.46-4.32,0.93-6.14-0.81
		c-1.84-1.75-2.44-4.07-1.04-6.1c2.62-3.8,6.03-6.94,9.7-9.74C57.32,250.54,58.22,250.61,58.57,250.54z"/>
	<path class="st1" d="M51.94,87.83c1.57,0.22,2.91,0.77,4,1.89c2.18,2.21,4.45,4.33,6.56,6.61c2.27,2.45,2.35,5.62,0.36,7.68
		c-2.12,2.19-5.39,2.17-7.95-0.23c-2.44-2.29-4.82-4.67-7.07-7.14c-1.55-1.71-1.75-3.82-0.7-5.89
		C48.12,88.81,49.87,87.96,51.94,87.83z"/>
</g>
</svg>
