<?xml version="1.0" encoding="utf-8"?>
<!-- Generator: Adobe Illustrator 26.0.0, SVG Export Plug-In . SVG Version: 6.00 Build 0)  -->
<svg version="1.1" id="Layer_1" xmlns="http://www.w3.org/2000/svg" xmlns:xlink="http://www.w3.org/1999/xlink" x="0px" y="0px"
	 viewBox="0 0 373.6 281.7" style="enable-background:new 0 0 373.6 281.7;" xml:space="preserve">
<style type="text/css">
	.st0{clip-path:url(#SVGID_00000101798262555500907180000004652950958471834510_);}
	.st1{fill:none;}
	.st2{fill:#55387B;}
	.st3{fill:#E31929;}
	.st4{fill:#C80013;}
</style>
<g id="Group_1920" transform="translate(0 -93.309)">
</g>
<g id="Group_1920_00000043419677595153882300000011313968447078638229_" transform="translate(0 -93.309)">
	<g>
		<defs>
			<rect id="SVGID_1_" x="10.5" y="101.2" width="352.6" height="265.9"/>
		</defs>
		<clipPath id="SVGID_00000078004940641864397350000006187491010272284078_">
			<use xlink:href="#SVGID_1_"  style="overflow:visible;"/>
		</clipPath>
		
			<g id="Group_1919" transform="translate(0 93.309)" style="clip-path:url(#SVGID_00000078004940641864397350000006187491010272284078_);">
			<g id="Path_1452" transform="translate(-0.013 -24.048)">
				<path class="st1" d="M363.1,237.8c-1.5-0.3-2.2,0.9-3.2,1.6c-28.2,18.8-56.4,37.6-84.6,56.5c-0.8,0.6-1.7,1.1-3.1,2v-12.9
					c0-4.5-0.3-9,0.1-13.4c0.3-3.2-1.1-3.8-3.8-4c-11.4-0.7-22.7-2.8-33.7-6.1c-42.3-12-78.4-39.8-100.8-77.6
					c-8.4-14.9-19.7-28-33.2-38.6c-19.5-14.4-43.1-22.1-67.3-22c-6.9,0-13.8-0.1-20.7,0c-1.8,0-2.3-0.4-2.3-2.3
					c0.1-19.2,0.1-38.4,0-57.6c0-1.4,0-2.3,1.9-2.3c22-0.1,44-0.4,65.5,5.5c43.8,11.3,81.4,39.3,104.7,78.1
					c9.9,16.1,21.1,30.8,36.9,41.6c15,10.2,32.2,16.7,50.2,18.9c2.1,0.3,2.5-0.4,2.5-2.3c-0.1-8.7,0-17.4,0-26.7
					c5.1,3.4,9.8,6.5,14.6,9.7c24.7,16.5,49.3,32.9,74,49.4c0.7,0.5,1.2,1.5,2.3,1L363.1,237.8z"/>
				<path class="st2" d="M279.9,283.5l3.4-2.2c21.7-14.5,44.1-29.5,66.3-44.2c-17.1-11.4-34.3-22.9-51.1-34.1l-15.9-10.6
					c-0.9-0.6-1.8-1.2-2.6-1.8c0,4.2,0,8.2,0.1,12.3c0,1.3,0,4.7-2.7,7.5c-1.2,1.2-3.3,2.6-6.6,2.6c-0.6,0-1.2,0-1.8-0.1
					c-19.7-2.6-37.7-9.4-53.5-20.2c-18.5-12.6-30.6-30.1-39.1-43.9c-11.6-18.9-26-34.8-42.7-47.2C116.9,89.2,97.6,79.9,76,74
					c-17.7-4.9-35.8-5.3-52.7-5.3c-1.7,0-3.3,0-5,0c0,15.2,0,31,0,46.8c1.7,0,3.5,0,5.4,0c2.9,0,5.9,0,9.9,0
					c26.7,0.2,50.9,8.1,71.8,23.5c16.6,12.2,27.5,28.2,35.2,40.8c11.3,18.5,25.1,34.1,41.1,46.4c16,12.3,34.6,21.7,55.4,27.9
					c10.9,3.2,21.6,5.2,32,5.8c1.5,0.1,5.7,0.3,8.5,3.7c1.9,2.2,2.7,5.1,2.4,8.6c-0.2,2.7-0.2,5.6-0.1,8.6
					C279.8,281.6,279.8,282.6,279.9,283.5 M272.2,297.8v-12.9c0-4.5-0.3-9,0.1-13.4c0.3-3.2-1.1-3.8-3.8-4
					c-11.5-0.7-22.7-2.9-33.7-6.1c-43.5-13-77.2-38.8-100.8-77.6c-9-14.8-19.1-28.3-33.2-38.6c-20.1-14.7-42.6-21.8-67.3-22
					c-6.9,0-13.8-0.1-20.7,0c-1.8,0-2.3-0.4-2.3-2.3c0.1-19.2,0.1-38.4,0-57.6c0-1.4,0-2.3,1.9-2.3c22-0.1,44-0.4,65.5,5.5
					c45.1,12.4,80.2,38.3,104.7,78.1c9.9,16.1,21.1,30.8,36.9,41.6c15.2,10.4,32,16.5,50.2,18.9c2.1,0.3,2.5-0.4,2.5-2.3
					c-0.1-8.7,0-17.4,0-26.7c5.1,3.4,9.8,6.5,14.6,9.7c24.7,16.5,49.3,32.9,74,49.4c0.7,0.5,1.2,1.5,2.3,1v1.4
					c-1.5-0.3-2.2,0.9-3.2,1.6c-28.2,18.8-56.4,37.6-84.6,56.5C274.4,296.4,273.6,296.9,272.2,297.8z"/>
			</g>
			<path id="Path_1453" class="st3" d="M363.1,68.9c-4.2,2-8.2,4.5-11.8,7.4c-26.2,17.4-52.4,34.9-78.5,52.4
				c-1.1-0.7-0.5-1.7-0.5-2.5c0-7.9-0.1-15.9,0-23.8c0-2.3-0.7-2.6-2.8-2.3c-20.5,2.5-40,10.8-56.1,23.8c-2.6,2.1-3.6,1.5-5.1-0.8
				c-6.3-10.7-13.1-21-20.4-31c-4.5-5.7-9.3-11-14.2-16.4c23.8-19.2,52.2-31.7,82.4-36.4c4.3-0.7,8.6-1.2,13-1.5
				c2.3-0.1,3.3-0.8,3.2-3.4c-0.2-8.7-0.1-17.5-0.1-26.3c0.4,0,0.7,0,0.9,0.1c30,20,60,40.1,90,60.1L363.1,68.9z"/>
			<path id="Path_1454" class="st4" d="M10.6,212.8c0-9.4,0.1-18.9-0.1-28.3c0-2.2,0.6-2.6,2.7-2.6c10-0.1,19.9,0.4,29.9-0.4
				c21.9-1.7,42.9-9.9,60.1-23.5c3.5-2.7,3.6-2.8,6.1,1.1c6.3,10.8,13.2,21.2,20.8,31.2c3.8,4.6,7.7,9.1,11.7,13.5
				c1.2,1.3,1.7,1.9-0.1,3.3c-23.4,18.4-51.1,30.4-80.5,35c-16.1,2.6-32.2,1.8-48.4,2.1c-2.3,0-2.3-1-2.2-2.7
				C10.6,231.9,10.6,222.4,10.6,212.8"/>
		</g>
	</g>
</g>
</svg>
