<?xml version="1.0" encoding="utf-8"?>
<!-- Generator: Adobe Illustrator 26.0.0, SVG Export Plug-In . SVG Version: 6.00 Build 0)  -->
<svg version="1.1" id="Layer_1" xmlns="http://www.w3.org/2000/svg" xmlns:xlink="http://www.w3.org/1999/xlink" x="0px" y="0px"
	 viewBox="0 0 383.16 362.91" style="enable-background:new 0 0 383.16 362.91;" xml:space="preserve">
<style type="text/css">
	.st0{fill:#55387B;}
	.st1{fill:#EB3338;}
</style>
<g>
	<path class="st0" d="M0,235.39c4.23-10.57,8.45-21.14,12.7-31.71c5.42-13.49,11.2-26.82,17.19-40.06c1.21-2.67,3.1-4.22,6.11-3.9
		c2.67,0.28,4.22,2,4.94,4.46c0.57,1.96-0.47,3.64-1.23,5.33c-9.28,20.62-17.88,41.53-26.03,62.62c-1.01,2.6-0.64,3.82,1.71,5.28
		c11.7,7.27,24.14,12.68,37.48,16.1c2.15,0.55,2.97,0.09,3.9-1.81c14.9-30.63,28.38-61.87,40.49-93.71c0.6-1.57,0.71-2.49-1-3.59
		c-12.14-7.79-25.19-13.37-39.13-16.99c-1.82-0.47-2.45,0.24-3.09,1.62c-1.31,2.82-2.6,5.65-4.05,8.4
		c-1.66,3.15-5.04,4.33-7.85,2.91c-2.79-1.41-3.85-4.81-2.33-8.05c2.12-4.5,4.43-8.9,6.55-13.39c1.56-3.28,3.9-4.52,7.53-3.79
		c20.27,4.09,38.81,12.07,55.26,24.7c1.2,0.92,2.22,0.98,3.41,0.76c13.91-2.56,27.95-3.22,42.05-2.76
		c5.1,0.16,10.19,0.68,15.26,1.23c1.87,0.2,3.29-0.27,4.86-1.22c5.94-3.6,11.72-7.75,18.65-9.09c8.76-1.7,17.33,0.57,25.75,2.68
		c18.78,4.71,35.69,13.54,51.59,24.4c2.04,1.4,3.24,1.53,5.36-0.01c16.03-11.61,33.89-19.09,53.23-23.12c3.85-0.8,6,1.01,7.64,4.32
		c11.45,23.05,22.07,46.48,31.82,70.3c4.61,11.26,8.93,22.65,13.33,34c1.94,4.99,1.33,6.74-2.98,9.79
		c-16.05,11.37-33.79,18.77-52.99,22.78c-1.7,0.35-3.52,0.36-4.6-0.8c-2.16-2.31-3.11-0.81-4.49,0.78
		c-5.33,6.14-11.16,11.78-17.88,16.39c-1.53,1.05-2,2.18-2.08,3.95c-0.55,11.44-8.78,20.15-20.14,21.27
		c-2.35,0.23-3.63,0.52-3.83,3.51c-1.07,15.89-18.08,25.39-32.41,18.16c-2.32-1.17-2.97-1-4,1.49
		c-5.09,12.25-18.82,17.29-30.77,11.58c-1.04-0.5-1.89-1.5-3.39-0.76c-10.99,5.41-21.99,3.81-32.93-0.19
		c-16.26-5.95-30.03-15.98-43.18-26.91c-22.45-18.64-42.21-39.95-61.03-62.17c-2.26-2.67-4.36-3.97-8.18-4.29
		c-7.52-0.62-14.77-3.22-21.87-5.88c-11.34-4.25-21.98-9.87-31.82-16.96c-1.27-0.92-2.35-2.1-3.51-3.16C0,238.39,0,236.89,0,235.39z
		 M193.85,350.64c-0.25-1.69-1.46-2.28-2.29-3.12c-11.7-11.77-23.43-23.52-35.15-35.27c-0.79-0.79-1.66-1.55-2.28-2.47
		c-1.68-2.47-1.61-5,0.44-7.17c2.16-2.28,4.76-2.64,7.38-0.72c1.2,0.88,2.24,1.98,3.29,3.04c14.11,14.13,28.18,28.29,42.33,42.38
		c4.07,4.05,9.2,4.85,13.66,2.45c4.38-2.35,6.56-7.25,5.54-12.4c-0.56-2.83-2.37-4.87-4.32-6.83
		c-12.17-12.18-24.34-24.37-36.5-36.56c-0.88-0.88-1.84-1.72-2.56-2.72c-1.76-2.43-1.7-4.97,0.31-7.17
		c2.12-2.31,4.71-2.67,7.37-0.85c1.02,0.7,1.87,1.65,2.75,2.53c15.7,15.72,31.39,31.44,47.09,47.15c1.14,1.14,2.3,2.32,3.61,3.24
		c5.95,4.17,14.07,1.65,16.66-5.14c1.99-5.23,0.13-9.41-3.6-13.14c-17.48-17.47-34.92-34.97-52.37-52.46c-0.97-0.97-2.02-1.9-2.8-3
		c-1.75-2.47-1.54-5,0.52-7.15c2.19-2.27,4.79-2.53,7.4-0.66c1,0.72,1.83,1.68,2.72,2.56c17.28,17.31,34.56,34.62,51.85,51.93
		c0.97,0.97,1.93,1.97,3.03,2.78c6.44,4.82,14.96,2,17.41-5.68c1.62-5.1-0.52-8.88-3.99-12.35c-27.09-27.1-54.16-54.2-81.16-81.39
		c-1.85-1.87-3.21-2.07-5.41-0.82c-8.65,4.91-15.82,11.62-23.15,18.21c-10.05,9.04-24.22,9.39-34.58,1.26
		c-10.31-8.09-13.38-22.07-7.31-33.96c6.81-13.34,15.7-25.12,26.7-35.3c0.64-0.59,1.83-0.88,1.61-2.33
		c-15.62-0.91-31.11-0.07-46.49,2.85c-2.18,0.41-4.11,0.43-5.16,3.26c-11.05,29.58-23.61,58.52-37.47,86.89
		c-0.96,1.96-0.8,3.24,0.63,4.95c17.37,20.82,35.6,40.82,55.83,58.9c12.75,11.39,26.05,22.09,41.64,29.46
		C175.4,349.81,184.05,352.8,193.85,350.64z M198.77,149.61c-1.92-0.53-4.91,0.65-7.85,2.13c-8.61,4.32-16.59,9.57-23.86,15.9
		c-11.41,9.94-20.71,21.55-27.34,35.18c-4.71,9.67,0.75,20.28,11.28,22.3c5.64,1.08,10.2-0.97,14.2-4.81
		c9.02-8.66,18.53-16.64,30.25-21.53c3.54-1.48,6.32-0.91,9.05,1.9c7.56,7.79,15.31,15.4,22.97,23.09
		c21.65,21.76,43.33,43.5,64.9,65.34c1.51,1.53,2.06,0.42,2.94-0.25c6.38-4.88,11.84-10.66,16.85-16.92
		c1.42-1.77,1.44-3.06,0.52-4.98c-3.62-7.49-7.18-15.02-10.59-22.62c-4.07-9.07-7.93-18.22-11.94-27.32
		c-1.04-2.35-1.17-4.58,0.44-6.68c1.44-1.89,3.49-2.34,5.7-1.91c2.66,0.52,3.68,2.64,4.63,4.89c7.96,18.76,16.38,37.32,25.27,55.66
		c1.09,2.24,2.15,2.78,4.54,2.14c13.3-3.55,25.78-8.9,37.4-16.31c1.83-1.17,2.45-2.06,1.56-4.38
		c-12.1-31.57-25.39-62.61-40.26-92.97c-1-2.04-1.95-2.75-4.19-2.16c-13.54,3.58-26.23,9.07-38.08,16.59
		c-1.97,1.25-1.92,2.31-1.17,4.15c1.89,4.59,3.65,9.24,5.39,13.89c1.53,4.08,0.46,7.31-2.71,8.53c-3.29,1.27-6.28-0.33-7.9-4.26
		c-0.61-1.49-1.21-3-1.68-4.54c-1.09-3.58-3.22-6.19-6.27-8.43c-9.55-7.01-19.43-13.44-30.05-18.72
		C229.32,155.81,215.33,150.95,198.77,149.61z"/>
	<path class="st1" d="M185.48,67.83c0-3.62-0.18-7.25,0.06-10.86c0.18-2.84-0.59-4.41-3.37-5.67c-5.88-2.66-11.02-6.34-13.03-13.03
		c-3.21-10.74,2.49-22.63,13.02-26.52c2.46-0.91,3.53-1.88,3.4-4.66c-0.22-4.66,2.03-7.17,5.67-7.08c3.48,0.09,5.62,2.6,5.48,6.97
		c-0.07,2.33,0.34,3.49,2.91,3.98c3.56,0.67,6.79,2.39,9.58,4.76c2.76,2.34,3.12,5.3,1.12,7.92c-1.88,2.47-4.74,2.96-7.63,1.32
		c-5.93-3.37-5.93-3.37-5.93,3.38c0,4.62,0.17,9.25-0.07,13.86c-0.13,2.44,0.71,3.51,2.94,4.22c8.2,2.61,14.25,7.62,16.54,16.22
		c3.28,12.33-3.75,26-15.8,30.19c-3.14,1.09-4.02,2.51-3.63,5.46c0.3,2.22-0.28,4.24-2.09,5.71c-1.82,1.48-3.93,1.66-5.97,0.74
		c-2.24-1.01-3.53-2.96-3.15-5.42c0.58-3.74-0.88-5.17-4.54-5.5c-4.42-0.39-8.24-2.65-11.87-5.07c-3.16-2.11-3.88-5.25-2.09-8.05
		c1.77-2.78,4.87-3.4,8.17-1.54c2.49,1.41,4.9,2.87,7.77,3.5c1.97,0.43,2.63,0.06,2.55-2.06C185.38,76.32,185.48,72.07,185.48,67.83
		z M196.94,81.57c5.3-2.16,8.9-7.67,8.67-13.08c-0.24-5.47-3.2-9.12-8.67-10.59C196.94,65.79,196.94,73.65,196.94,81.57z
		 M185.22,39.71c0-5.74,0-11.12,0-16.85c-4.08,2.32-5.56,5.73-5.56,9.73C179.66,36.14,181.66,38.5,185.22,39.71z"/>
	<path class="st1" d="M113.96,64.6c5.59,0,11.19-0.04,16.78,0.01c4.59,0.04,7.12,2.14,7.13,5.79c0.01,3.68-2.47,5.81-7.09,5.83
		c-11.56,0.05-23.12,0.05-34.68,0c-4.69-0.02-7.09-2.06-7.1-5.79c-0.01-3.72,2.43-5.79,7.06-5.83
		C102.02,64.56,107.99,64.6,113.96,64.6z"/>
	<path class="st1" d="M269.66,64.6c5.84,0,11.68-0.05,17.53,0.01c4.57,0.05,7.01,2.21,6.92,5.97c-0.08,3.57-2.44,5.62-6.87,5.64
		c-11.68,0.06-23.37,0.06-35.05,0c-4.57-0.02-7.04-2.25-6.95-5.97c0.09-3.51,2.55-5.6,6.9-5.65
		C257.98,64.55,263.82,64.6,269.66,64.6z"/>
	<path class="st1" d="M246.93,49.92c-2.99-0.26-5-1.48-5.76-3.98c-0.84-2.79,0.01-5.26,2.62-6.72c4.22-2.36,8.53-4.54,12.81-6.8
		c6.46-3.41,12.9-6.87,19.4-10.22c3.53-1.82,6.66-0.96,8.28,2.07c1.62,3.04,0.61,6.04-3.05,8c-10.48,5.62-21.02,11.14-31.55,16.67
		C248.72,49.44,247.61,49.68,246.93,49.92z"/>
	<path class="st1" d="M247.01,90.89c0.87,0.35,2.06,0.71,3.15,1.28c10.21,5.35,20.39,10.74,30.59,16.09
		c2.46,1.29,4.36,2.99,4.24,6.01c-0.18,4.31-4.6,6.63-8.82,4.47c-8.82-4.53-17.55-9.22-26.32-13.86c-2.19-1.16-4.43-2.25-6.51-3.58
		c-2.43-1.54-2.96-3.98-2.12-6.56C242.05,92.24,244.11,91.13,247.01,90.89z"/>
	<path class="st1" d="M136.14,49.91c-0.75-0.26-1.75-0.46-2.61-0.91c-10.65-5.58-21.3-11.16-31.9-16.84
		c-3.41-1.83-4.38-4.83-2.85-7.79c1.6-3.12,4.71-4.07,8.23-2.24c10.55,5.49,21.03,11.11,31.56,16.64c2.92,1.53,4.26,3.87,3.41,7.05
		C141.24,48.53,139.07,49.71,136.14,49.91z"/>
	<path class="st1" d="M104.28,119.78c-3.16-0.31-5.14-1.69-5.94-4.33c-0.84-2.76,0.34-4.95,2.67-6.36c2.76-1.66,5.67-3.06,8.52-4.57
		c7.66-4.06,15.32-8.14,23-12.17c4.1-2.15,7.27-1.53,8.99,1.66c1.73,3.21,0.46,6.32-3.57,8.46c-10.07,5.34-20.16,10.64-30.26,15.92
		C106.5,119.01,105.19,119.41,104.28,119.78z"/>
</g>
</svg>
