<?xml version="1.0" encoding="utf-8"?>
<!-- Generator: Adobe Illustrator 26.0.0, SVG Export Plug-In . SVG Version: 6.00 Build 0)  -->
<svg version="1.1" id="Layer_1" xmlns="http://www.w3.org/2000/svg" xmlns:xlink="http://www.w3.org/1999/xlink" x="0px" y="0px"
	 viewBox="0 0 318.25 338" style="enable-background:new 0 0 318.25 338;" xml:space="preserve">
<style type="text/css">
	.st0{clip-path:url(#SVGID_00000031926107369941289220000001442934753773713811_);}
	.st1{fill:#E31929;}
	.st2{fill:#55387B;}
</style>
<g>
	<defs>
		<rect id="SVGID_1_" width="318.25" height="338"/>
	</defs>
	<clipPath id="SVGID_00000108271439755466937480000008663689814798229420_">
		<use xlink:href="#SVGID_1_"  style="overflow:visible;"/>
	</clipPath>
	<g id="Group_27" style="clip-path:url(#SVGID_00000108271439755466937480000008663689814798229420_);">
		<path id="Path_76" class="st1" d="M33.76,338c-3.95-1.07-7.95-1.94-11.99-2.61c-5.23-1.21-10.24-3.21-14.86-5.93
			c-4.46-2.59-7.12-7.44-6.91-12.6c0.16-28.47,0.16-56.95,0-85.42c-0.26-5.37,2.52-10.43,7.2-13.07c2.89-1.8,6-3.2,9.26-4.16
			c2.57-1.05,5.51,0.18,6.56,2.75c1.05,2.57-0.18,5.51-2.75,6.56c-0.21,0.09-0.43,0.16-0.65,0.21c-2.81,0.9-5.49,2.17-7.97,3.78
			c-1.84,1.31-1.83,2.41,0,3.71c4.24,2.75,9,4.6,13.98,5.43c14.83,3.45,30.33,2.69,44.75-2.2c1.54-0.55,3.04-1.22,4.49-1.99
			c1.35-0.71,3.25-1.49,3.26-2.97c0-1.69-1.96-2.49-3.39-3.26c-4.3-2.18-8.93-3.65-13.69-4.36c-5.3-0.92-10.67-1.38-16.05-1.4
			c-2.79,0.34-5.32-1.64-5.66-4.43c-0.12-0.99,0.05-1.99,0.5-2.88c1.18-2.07,3.54-3.16,5.88-2.72c11.26-0.2,22.43,1.97,32.8,6.36
			V201.1c0-5.28,0.14-10.56-0.04-15.83c-0.21-4.61,2.07-8.97,5.96-11.44c3.11-2.26,6.62-3.91,10.35-4.84
			c2.28-0.56,2.46-1.46,1.5-3.53c-4.91-10.52-8.21-21.73-9.79-33.23c-3.62-24.53,1.18-49.56,13.63-71
			c16.38-30.31,45.34-51.82,79.09-58.73c24.58-5.22,50.21-1.97,72.71,9.23c2.68,0.79,4.22,3.6,3.43,6.28s-3.6,4.22-6.28,3.43
			c-0.53-0.16-1.03-0.4-1.48-0.71c-9.3-4.44-19.18-7.54-29.34-9.22c-26.29-4.44-53.27,1.71-75.06,17.08
			c-25.11,16.55-42.02,42.98-46.53,72.71c-3.37,21.41,0.07,43.34,9.82,62.71c1.17,2.44,2.87,1.89,4.63,1.69
			c11.14-1.4,22.43-0.89,33.39,1.52c5.27,1.06,10.32,2.99,14.96,5.71c4.95,2.68,7.89,7.99,7.56,13.6c-0.23,9.32,0,18.69-0.11,28.04
			c-0.03,2.19,0.5,3.25,2.71,3.91c65.9,19.98,123.03-21.66,135.88-79.63c8.65-39.04-3.11-72.26-31.44-99.96
			c-0.94-0.92-1.95-1.78-2.87-2.72c-2.14-1.74-2.47-4.88-0.73-7.02c1.74-2.14,4.88-2.47,7.02-0.73c0.2,0.16,0.38,0.33,0.55,0.52
			c8.34,7.34,15.65,15.78,21.74,25.08c13.67,20.42,20.08,44.84,18.22,69.35c-3.54,49.92-38.25,94.31-87.39,106.81
			c-19.92,4.93-40.79,4.52-60.5-1.2c-2.97-0.81-3.2-0.06-3.17,2.51c0.11,9.78,0.05,19.56,0.05,29.7c5.93-2.43,12.11-4.19,18.43-5.25
			c15.76-2.71,31.95-1.25,46.97,4.24c2.78,1.04,5.38,2.49,7.72,4.31c3.42,2.52,5.4,6.56,5.3,10.81c-0.02,14.07-0.02,28.15,0,42.22
			c0.01,5.18-2.89,9.93-7.5,12.29c-6.35,3.47-13.25,5.81-20.4,6.92c-2.57,0.1-5.11,0.54-7.57,1.3h-19.79
			c-0.23-0.92-1.01-0.61-1.6-0.71c-9.06-0.88-17.81-3.78-25.6-8.47c-0.68-0.55-1.67-0.49-2.28,0.13c-5.77,3.58-12.16,6.02-18.85,7.2
			c-3.29,0.36-6.55,0.98-9.74,1.87h-20.44c-0.14-0.74-0.75-0.62-1.27-0.7c-9.18-0.83-18.04-3.75-25.92-8.54
			c-1-0.69-1.58-0.25-2.28,0.23c-5.68,3.51-11.96,5.92-18.53,7.1c-3.4,0.39-6.76,1.03-10.07,1.91L33.76,338z M121.79,174.69
			c-5.5,0.01-10.98,0.58-16.37,1.69c-3.54,0.7-7,1.74-10.33,3.12c-2.49,1.09-6.15,1.95-6.21,4.58c-0.06,2.48,3.58,3.5,6,4.38
			c18.02,6.78,37.9,6.73,55.88-0.15c2.31-0.85,5.67-1.8,5.63-4.34c-0.04-2.54-3.42-3.39-5.71-4.3
			C141.47,176.15,131.66,174.46,121.79,174.69 M201.11,283.35c10.54,0.28,21-1.85,30.59-6.22c1.34-0.66,3.12-1.42,3.21-3.02
			c0.1-1.69-1.76-2.37-3.06-3.07c-1.73-0.92-3.53-1.71-5.39-2.36c-10.31-3.48-21.23-4.77-32.07-3.79
			c-8.22,0.36-16.29,2.36-23.73,5.89c-1.44,0.72-3.42,1.49-3.5,3.15c-0.09,1.74,1.97,2.41,3.34,3.24c1.04,0.59,2.14,1.09,3.27,1.5
			c8.73,3.28,18,4.87,27.33,4.69 M88.75,219.22c-1.2,10.36-0.19,12.38,8.34,15.14c16.56,5.5,34.46,5.5,51.03,0.02
			c8.2-2.64,8.74-3.55,8.71-12.07c-0.01-0.11-0.01-0.22,0-0.33c0.35-2.4-0.25-3.03-2.73-1.98c-9.36,3.79-19.36,5.74-29.46,5.76
			C112.35,226.1,100.13,223.87,88.75,219.22 M88.75,242.02c-0.42,11.27-2.05,11.07,8.31,14.9c12.72,4.35,26.34,5.39,39.57,3.03
			c5.87-0.72,11.57-2.49,16.82-5.23c1.41-0.78,3.18-1.52,3.29-3.39c0.17-3.1,0.05-6.21,0.05-9.49c-21.84,8.69-46.16,8.77-68.05,0.2
			 M156.83,308.97c-21.85,9.04-46.38,9.07-68.25,0.08c-0.4,11.44,0.08,12.19,9.07,15.12c11.63,3.77,23.96,4.85,36.07,3.17
			c6.89-0.63,13.59-2.57,19.74-5.72c1.61-0.89,3.39-1.73,3.39-4.04c0-2.72,0-5.44,0-8.61 M10.13,286.76
			c-0.53,11.02-0.07,12.06,8.09,14.77c16.75,5.69,34.91,5.73,51.69,0.12c8.12-2.64,8.63-3.76,8.66-12.18c0-2.64-0.73-2.52-2.76-1.69
			c-7.84,3.11-16.15,4.93-24.57,5.36c-14.01,1.2-28.11-0.98-41.1-6.36 M88.48,286.77v4.4c0,6.65,0.42,7.3,6.67,9.83
			c0.2,0.08,0.42,0.12,0.63,0.19c17.07,6.07,35.7,6.2,52.85,0.36c7.88-2.58,8.34-3.73,8.24-12.1c-0.03-2.18-0.34-2.62-2.54-1.69
			c-7.83,3.14-16.13,4.97-24.55,5.41c-14.08,1.2-28.24-0.99-41.31-6.38 M156.81,196.96c-21.87,8.71-46.23,8.73-68.12,0.07
			c-1.02,10.38-0.07,11.96,9.32,14.99c12.71,3.99,26.2,4.84,39.32,2.48c5.66-0.76,11.14-2.52,16.19-5.2
			c1.48-0.85,3.25-1.62,3.29-3.75c0.05-2.82,0-5.64,0-8.62 M10,309.07c0.12,1.53,0.11,3.06-0.04,4.58c-1,5.31,1.92,7.75,6.36,9.47
			c6.98,2.64,14.31,4.22,21.75,4.7c11.63,0.98,23.32-0.66,34.24-4.78c4.34-1.66,7.14-4.08,6.23-9.24c-0.14-1.55-0.15-3.11-0.04-4.66
			C56.53,318.06,31.94,318.04,10,309.07 M166.93,309.04v3.81c0,7.74,0.08,8.09,7.63,10.74c16.98,6.05,35.51,6.12,52.54,0.2
			c7.85-2.62,7.96-3.29,8.11-11.48c0.06-3.1-0.85-3-3.25-2.07C210.9,318.02,187.69,317.58,166.93,309.04 M88.48,264.46
			c0.13,1.85,0.12,3.71-0.05,5.56c-0.78,3.48,1.36,6.94,4.82,7.8c0.7,0.3,1.41,0.59,2.12,0.85c17.25,6.24,36.11,6.41,53.47,0.48
			c7.4-2.4,7.86-3.54,8.05-11.3c0.07-3.15-0.67-3.2-3.36-2.18c-13.83,5.12-28.72,6.7-43.32,4.61
			C102.73,269.32,95.42,267.37,88.48,264.46 M10,264.41v4.52c0,6.36,0.62,7.29,6.51,9.63c0.2,0.08,0.42,0.09,0.64,0.17
			c17.15,6.16,35.89,6.33,53.15,0.48c7.63-2.46,8.13-3.58,8.25-11.47c0.04-2.69-0.31-3.31-3.13-2.2c-13.9,5.26-28.9,6.89-43.61,4.74
			C24.3,269.35,16.96,267.37,10,264.41 M167.23,287.07c-0.49,10.82-2.12,10.74,8.74,14.65c12,4.07,24.81,5.15,37.33,3.14
			c6.32-0.68,12.48-2.48,18.18-5.3c1.58-0.85,3.56-1.61,3.65-3.84c0.11-2.83,0.03-5.66,0.03-8.72
			C213.34,295.57,189.08,295.6,167.23,287.07 M10,242.1c0,1.47,0,2.46,0,3.44c0,7.69,0.53,8.47,7.68,11.16
			c0.31,0.11,0.64,0.17,0.95,0.27c16.67,5.56,34.69,5.53,51.34-0.07c8.24-2.72,8.56-3.54,8.58-12.18c0-2.68-0.85-2.52-2.78-1.69
			c-9.68,3.9-20.03,5.87-30.47,5.8C33.2,249.04,21.18,246.75,10,242.1"/>
		<path id="Path_77" class="st2" d="M236.92,72.59c0.03,1.64-0.53,3.24-1.58,4.51c-19.33,28.49-38.67,56.97-58.01,85.44
			c-2.14,3.15-4.96,3.94-7.53,2.26c-2.34-1.63-2.92-4.85-1.3-7.19c0.15-0.21,0.31-0.41,0.49-0.6
			c19.37-28.58,38.74-57.15,58.13-85.72c1.06-2.29,3.58-3.51,6.03-2.91C235.18,68.85,236.68,70.53,236.92,72.59"/>
		<path id="Path_78" class="st2" d="M188.13,91.31c-0.04,5.75-1.94,11.33-5.4,15.92c-5.41,7.43-15.82,9.07-23.26,3.66
			c-1.56-1.13-2.9-2.53-3.98-4.12c-6.29-9.32-6.38-21.52-0.22-30.93c4.99-7.72,15.29-9.93,23-4.95c1.82,1.18,3.4,2.7,4.64,4.48
			c3.41,4.61,5.24,10.19,5.22,15.91 M178.02,91.13c0.07-3.83-1.26-7.55-3.74-10.47c-2.14-2.73-6.08-3.22-8.81-1.08
			c-0.35,0.28-0.67,0.59-0.96,0.93c-5.01,6.15-5.06,14.95-0.11,21.15c2.14,2.73,6.09,3.22,8.83,1.08c0.44-0.34,0.83-0.74,1.16-1.19
			C176.8,98.62,178.09,94.93,178.02,91.13"/>
		<path id="Path_79" class="st2" d="M215.72,144.52c-0.43-6.69,1.62-13.31,5.76-18.59c5.82-7.13,16.31-8.2,23.45-2.38
			c0.98,0.8,1.87,1.71,2.65,2.71c7.05,9.42,7.27,22.28,0.56,31.94c-4.98,7.61-15.17,9.74-22.78,4.76c-2.02-1.32-3.72-3.07-4.99-5.13
			c-2.88-3.86-4.51-8.5-4.66-13.31 M242.96,142.68c0.16-3.65-1.01-7.23-3.29-10.08c-1.91-2.95-5.84-3.78-8.79-1.88
			c-0.74,0.48-1.37,1.11-1.85,1.84c-4.52,6.08-4.44,14.42,0.19,20.42c2.11,2.83,6.11,3.43,8.94,1.32c0.49-0.36,0.92-0.8,1.29-1.28
			C241.88,150.13,243.13,146.44,242.96,142.68"/>
	</g>
</g>
</svg>
