<?xml version="1.0" encoding="utf-8"?>
<!-- Generator: Adobe Illustrator 26.0.0, SVG Export Plug-In . SVG Version: 6.00 Build 0)  -->
<svg version="1.1" id="Layer_1" xmlns="http://www.w3.org/2000/svg" xmlns:xlink="http://www.w3.org/1999/xlink" x="0px" y="0px"
	 viewBox="0 0 386.93 350" style="enable-background:new 0 0 386.93 350;" xml:space="preserve">
<style type="text/css">
	.st0{clip-path:url(#SVGID_00000183245534565573530780000004992059152580990123_);}
	.st1{fill:#E31929;}
	.st2{fill:#55387B;}
</style>
<g>
	<defs>
		<rect id="SVGID_1_" width="386.93" height="350"/>
	</defs>
	<clipPath id="SVGID_00000117634922084732386490000008262464226813996445_">
		<use xlink:href="#SVGID_1_"  style="overflow:visible;"/>
	</clipPath>
	<g id="Group_29" style="clip-path:url(#SVGID_00000117634922084732386490000008262464226813996445_);">
		<path id="Path_80" class="st1" d="M-0.01,18.78c1.73-4.65,4.4-8.9,7.83-12.49C12.61,2.11,18.78-0.14,25.13,0
			c95.84,0,191.68,0,287.52,0c13.48-0.52,24.84,9.99,25.36,23.47c0.02,0.51,0.02,1.02,0.01,1.53c-0.16,46.6-0.05,93.19-0.07,139.78
			c0,4.45-2.15,7.03-5.6,7.08s-5.85-2.73-5.85-7.28c0-29.47-0.07-58.94,0.08-88.41c0-3.33-0.8-4.06-4.09-4.06
			c-102.39,0.1-204.78,0.1-307.16,0c-3.33,0-4.06,0.79-4.06,4.08c0.12,62.33,0.15,124.67,0.09,187.01c0,10.39,4.56,15,14.88,15
			c3.24,0,7.54,1.03,9.43-0.6c2.01-1.74,0.56-6.16,0.59-9.4c0.08-8.56,0-17.13,0.03-25.69c-0.5-10.01,5.47-19.21,14.81-22.83
			c8.94-3.94,18.02-7.56,27.03-11.31c5.93-2.61,8.63-9.54,6.02-15.47c-0.44-1-1.02-1.94-1.73-2.79c-6.28-7.31-9.77-16.6-9.84-26.24
			c-0.09-7.81,0.06-15.62-0.05-23.42c-0.53-13.5,7.13-25.98,19.41-31.61c16.02-9.3,36.1-7.89,50.66,3.57
			c8.78,5.85,13.99,15.76,13.85,26.31c0.53,10.68,0.3,21.38-0.68,32.02c-1.21,7.36-4.48,14.22-9.43,19.79
			c-3.94,5.08-3.01,12.39,2.07,16.33c0.63,0.49,1.31,0.91,2.02,1.26c8.77,3.68,17.58,7.29,26.37,10.96
			c10.1,3.51,16.64,13.3,16.02,23.97c-0.07,10.7,0.07,21.41-0.08,32.11c-0.03,2.52,0.7,3.19,3.16,3.09c5.67-0.18,11.35-0.19,17.02,0
			c5.11,0.15,7.9,3.76,6.35,7.79c-0.6,1.83-2.18,3.18-4.09,3.48c-1.36,0.25-2.74,0.37-4.13,0.39c-61.59,0.02-123.17,0.02-184.75,0
			c-10.07,0.73-19.59-4.71-24.07-13.76c-0.85-1.62-0.64-3.7-2.24-4.96V18.78z M114.5,278.22c21.27,0,42.54-0.04,63.81,0.06
			c2.46,0,3.15-0.61,3.09-3.09c-0.14-10.45-0.15-20.89-0.03-31.34c0.56-6.36-3.34-12.27-9.4-14.28
			c-9.06-3.61-18.02-7.53-27.04-11.24c-5.95-2.07-10.35-7.16-11.53-13.35c-0.52-2.7-0.65-4.78-3.96-5.98
			c-2.55-0.92-3.2-3.93-1.9-6.81c0.77-1.44,1.95-2.63,3.39-3.4c7.91-4.77,13.03-13.06,13.77-22.26c0.55-9.67,0.6-19.37,0.15-29.04
			c-0.31-5.34-2.72-10.34-6.71-13.9c-10.34-9.28-25.14-11.69-37.89-6.16c-9.69,3.36-16.23,12.44-16.34,22.69
			c-0.19,7.55-0.14,15.11,0,22.65c0.08,2.76,0.48,5.51,1.19,8.18c1.86,7.4,6.5,13.79,12.96,17.85c2.32,1.51,4.26,3.25,3.86,6.33
			c-0.12,2.64-2.18,4.77-4.81,4.99c-1.36,0.18-1.15,1.06-1.19,1.89c-0.22,7.66-5.27,14.33-12.57,16.62
			c-8.81,3.58-17.54,7.42-26.36,10.92c-6.06,2.02-9.95,7.92-9.43,14.28c0.05,10.32,0.13,20.63-0.06,30.95
			c-0.05,2.85,0.69,3.51,3.51,3.5c21.15-0.13,42.29-0.07,63.44-0.07 M168.95,60.48c51.36,0,102.72,0.02,154.09,0.07
			c2.76,0,3.58-0.57,3.53-3.46c-0.2-10.45-0.08-20.9-0.08-31.35c0.96-6.77-3.74-13.04-10.51-14c-1.11-0.16-2.23-0.16-3.34-0.02
			c-95.8-0.03-191.6-0.03-287.4,0c-6.9-0.79-13.13,4.16-13.92,11.06c-0.12,1.01-0.11,2.03,0.02,3.04
			c-0.04,10.07,0.15,20.15-0.1,30.21c-0.09,3.49,0.57,4.56,4.36,4.55c51.11-0.15,102.22-0.19,153.33-0.1"/>
		<path id="Path_81" class="st1" d="M212.3,211.93c-0.4-2.13,0.12-4.33,1.43-6.05c1.42-1.7,3.73-2.36,5.83-1.68
			c2.47,0.78,4.14,3.08,4.13,5.67c1.45,18.28,5.91,36.2,13.2,53.03c12.7,29.8,33.73,55.3,60.56,73.45c1.34,1.12,3.32,1,4.52-0.27
			c35.48-24,60.45-60.64,69.83-102.44c1.32-5.62,2.34-11.3,3.06-17.02c0.52-1.67-0.42-3.43-2.08-3.95c-0.16-0.05-0.33-0.09-0.5-0.11
			c-23.56-8.08-47.09-16.27-70.58-24.56c-1.51-0.52-3.16-0.47-4.64,0.13c-16.78,5.87-33.56,11.73-50.35,17.57
			c-1.52,0.57-3.08,1.04-4.67,1.4c-3.02,0.68-6.01-1.22-6.69-4.24c-0.55-2.45,0.6-4.97,2.81-6.16c0.87-0.49,1.8-0.88,2.76-1.16
			c18.21-6.33,36.43-12.62,54.61-19.03c2.57-0.99,5.41-1,7.99-0.04c25.76,9.01,51.53,17.96,77.33,26.86
			c5.31,1.85,6.41,3.18,5.98,8.86c-1.48,18.28-5.89,36.21-13.07,53.09c-13.96,34.11-38.11,63.08-69.16,82.93
			c-2.91,2.33-7.04,2.34-9.96,0.04c-42.29-27.03-71.35-70.52-80.14-119.93C213.44,222.91,212.87,217.43,212.3,211.93"/>
		<path id="Path_82" class="st2" d="M241.72,96.76c15.23,0,30.47,0.17,45.7-0.07c6.98-0.92,13.38,3.98,14.3,10.96
			c0.15,1.13,0.15,2.27-0.01,3.39c-0.28,4.77,0,9.57-0.06,14.35c0.77,6.59-3.95,12.55-10.53,13.32c-0.91,0.11-1.83,0.11-2.75,0
			c-13.6,0.08-27.19,0-40.79,0c-17.25,0-34.5-0.18-51.74,0.07c-7.05,0.97-13.56-3.96-14.54-11.01c-0.16-1.17-0.16-2.36,0-3.53
			c0.35-4.76,0.04-9.56,0.06-14.35c-0.63-6.62,4.22-12.5,10.83-13.13c0.77-0.07,1.54-0.07,2.31,0
			C210.25,96.68,225.98,96.76,241.72,96.76 M241.44,108.51c-15.1,0-30.19,0.05-45.29-0.05c-2.51,0-3.61,0.47-3.42,3.26
			c0.25,4.13,0.15,8.3,0,12.45c-0.06,2.01,0.34,2.87,2.63,2.87c30.83-0.07,61.65-0.07,92.48,0c2.17,0,2.42-0.87,2.38-2.67
			c-0.1-4.28-0.19-8.56,0.03-12.83c0.13-2.55-0.74-3.09-3.15-3.09c-15.23,0.1-30.43,0.05-45.67,0.05"/>
		<path id="Path_83" class="st2" d="M293.11,284.89c-1.71-0.03-3.32-0.79-4.42-2.09c-7.84-7.81-15.66-15.64-23.46-23.49
			c-2.62-2.01-3.11-5.76-1.1-8.38c0.08-0.11,0.17-0.21,0.26-0.31c2.17-2.36,5.84-2.5,8.2-0.33c0.28,0.26,0.53,0.54,0.75,0.85
			c5.93,5.8,11.86,11.61,17.54,17.66c2.14,2.28,3.2,1.83,5.16-0.14c10.14-10.32,20.4-20.5,30.66-30.71c0.98-1.14,2.16-2.1,3.49-2.82
			c2.24-1.11,4.94-0.51,6.51,1.42c1.68,1.82,1.91,4.55,0.56,6.63c-0.61,0.95-1.34,1.82-2.18,2.58
			c-12.08,12.11-24.18,24.21-36.28,36.3c-1.62,1.62-3.25,3.2-5.67,2.83"/>
		<path id="Path_84" class="st2" d="M229,162.95c-11.06,0-22.13,0-33.19,0c-1.5,0.03-3-0.16-4.44-0.57
			c-2.92-0.91-4.55-4.01-3.64-6.93c0.55-1.78,1.97-3.17,3.76-3.68c1.33-0.35,2.7-0.53,4.07-0.52c22.63-0.03,45.26-0.03,67.89,0
			c4.8,0,7.31,1.58,7.83,4.8c0.68,4.16-2.06,6.9-7.22,6.92c-11.69,0.07-23.39,0-35.07,0"/>
		<path id="Path_85" class="st2" d="M214.33,187.12c-6.53,0-13.06,0.03-19.6,0c-2.69,0.33-5.31-0.98-6.65-3.34
			c-1.43-2.67-0.43-5.99,2.23-7.42c0.23-0.12,0.47-0.23,0.71-0.32c1.18-0.42,2.42-0.63,3.68-0.63c13.07-0.04,26.13-0.04,39.2,0
			c3.35,0,6.32,0.91,7.12,4.72c0.84,3.98-1.88,6.88-6.71,6.98c-6.65,0.13-13.31,0.03-19.97,0.04"/>
		<path id="Path_86" class="st1" d="M199.39,30.22h105.37c6.19,0,8.82,1.7,8.92,5.67c0.11,4.23-2.53,6.02-8.93,6.02H93.64
			c-6.16,0-8.87-1.71-8.99-5.67c-0.12-4.13,2.76-6.06,9-6.06h105.74"/>
		<path id="Path_87" class="st1" d="M35.54,36.13c0.03,3.11-2.47,5.65-5.58,5.67c-0.03,0-0.06,0-0.09,0
			c-3.13-0.1-5.63-2.64-5.67-5.78c0.09-3.13,2.6-5.65,5.73-5.76c3.15,0.09,5.64,2.69,5.61,5.84"/>
		<path id="Path_88" class="st1" d="M47.94,30.28c3.15,0.09,5.67,2.64,5.72,5.78c0.03,3.13-2.49,5.69-5.63,5.72
			c-3.13,0.03-5.69-2.49-5.72-5.63c0-3.14,2.48-5.73,5.62-5.85"/>
		<path id="Path_89" class="st1" d="M71.8,36.05c0.05,3.13-2.45,5.71-5.58,5.77c-0.01,0-0.02,0-0.03,0
			c-3.13-0.03-5.67-2.54-5.73-5.67c-0.02-3.13,2.5-5.69,5.63-5.72c3.13-0.02,5.69,2.5,5.72,5.63"/>
	</g>
</g>
</svg>
