<?xml version="1.0" encoding="utf-8"?>
<!-- Generator: Adobe Illustrator 26.0.0, SVG Export Plug-In . SVG Version: 6.00 Build 0)  -->
<svg version="1.1" id="Layer_1" xmlns="http://www.w3.org/2000/svg" xmlns:xlink="http://www.w3.org/1999/xlink" x="0px" y="0px"
	 viewBox="0 0 253.3 228" style="enable-background:new 0 0 253.3 228;" xml:space="preserve">
<style type="text/css">
	.st0{clip-path:url(#SVGID_00000118365787257639889450000008066882294526489016_);}
	.st1{fill:#E31929;}
	.st2{fill:#55387B;}
</style>
<g>
	<defs>
		<rect id="SVGID_1_" width="253.3" height="228"/>
	</defs>
	<clipPath id="SVGID_00000033328189892393821990000002876057537592807870_">
		<use xlink:href="#SVGID_1_"  style="overflow:visible;"/>
	</clipPath>
	<g id="Group_1923-2" style="clip-path:url(#SVGID_00000033328189892393821990000002876057537592807870_);">
		<path id="Path_1468" class="st1" d="M253.3,196.9c-2.6,4.9-6.8,6.3-12.1,5.9c-4.1-0.3-8.2,0.1-12.4-0.1c-1.7-0.1-2.2,0.6-2.7,2
			c-5.8,17.8-24.9,27.5-42.7,21.7c-17.8-5.8-27.5-24.9-21.7-42.7c5.8-17.8,24.9-27.5,42.7-21.7c10.2,3.3,18.2,11.3,21.6,21.4
			c0.2,1.5,1.6,2.5,3.1,2.3c0.1,0,0.1,0,0.2,0c4.3-0.2,8.6,0.1,12.8-0.1c4.8-0.8,9.4,1.9,11.2,6.4L253.3,196.9z M194.3,177.4
			c-9.3,0-16.8,7.5-16.8,16.8c0,9.3,7.5,16.8,16.8,16.8c9.3,0,16.8-7.5,16.8-16.8c0,0,0,0,0-0.1c0.1-9.2-7.4-16.7-16.6-16.7
			C194.4,177.4,194.3,177.4,194.3,177.4"/>
		<path id="Path_1469" class="st2" d="M253.3,36.1c-2.1,4.8-6,6.2-11.1,6.2c-40.6-0.1-81.2-0.1-121.9-0.1c-1.7,0.1-3.5-0.1-5.1-0.6
			c-3.9-1.4-6.1-5.4-5.4-9.5c0.7-3.8,3.9-6.6,7.7-6.9c0.8-0.1,1.6,0,2.5,0c40.9,0,81.7,0,122.6-0.1c5.1,0,8.7,1.6,10.7,6.5
			L253.3,36.1z"/>
		<path id="Path_1470" class="st2" d="M253.3,120.7c-2.3,4.8-6.2,6.1-11.4,6c-21.5-0.2-43-0.1-64.5-0.1c-4.3,0.1-8-3.1-8.6-7.3
			c-0.5-4.1,2-7.9,5.9-9.2c1.4-0.3,2.8-0.4,4.2-0.3c21.1,0,42.2,0.1,63.3-0.1c5.1,0,8.9,1.3,11.1,6.1L253.3,120.7z"/>
		<path id="Path_1471" class="st1" d="M46.1,109.8c12.4,0,24.7,0,37.1,0c1.4,0.2,2.8-0.7,3-2.2c0,0,0,0,0,0
			c5.1-15.4,20.3-25,36.4-23c15.2,2.1,27.1,14,29.3,29.2c2.4,18.5-10.7,35.5-29.2,37.9c-1.7,0.2-3.3,0.3-5,0.3
			c-14.4-0.2-27.1-9.6-31.5-23.4c-0.2-1.3-1.4-2.2-2.7-2c0,0,0,0,0,0c-25,0.1-50,0.1-74.9,0c-4.1,0-7.7-2.9-8.4-6.9
			c-0.7-4.1,1.7-8.2,5.7-9.5c1.3-0.4,2.6-0.5,3.9-0.4C21.8,109.8,33.9,109.8,46.1,109.8 M101.5,118.2c0,9.3,7.5,16.8,16.8,16.8
			s16.8-7.5,16.8-16.8c0-9.3-7.5-16.8-16.8-16.8c0,0-0.1,0-0.1,0C108.9,101.5,101.5,109,101.5,118.2"/>
		<path id="Path_1472" class="st1" d="M16.5,25.3c2.6,0,5.3-0.1,7.9,0c1.3,0.3,2.5-0.6,2.7-1.8c0,0,0,0,0-0.1
			C30.9,11.2,41.3,2.2,54,0.5c18.4-3,35.8,9.5,38.8,28c3,18.4-9.5,35.8-28,38.8c-16.3,2.6-32.2-6.9-37.4-22.6
			c-0.2-1.6-1.7-2.7-3.3-2.4c-0.1,0-0.1,0-0.2,0c-4.8,0.1-9.6,0.1-14.3,0c-5.9,0-9.6-3.4-9.5-8.6c0-5,3.8-8.4,9.5-8.4
			C11.9,25.3,14.2,25.3,16.5,25.3 M75.9,33.8c0-9.3-7.5-16.8-16.8-16.7c-9.3,0-16.8,7.5-16.7,16.8s7.5,16.8,16.8,16.7
			c0,0,0.1,0,0.1,0c9.2,0,16.7-7.4,16.7-16.6C75.9,33.9,75.9,33.8,75.9,33.8"/>
		<path id="Path_1473" class="st2" d="M71.5,202.8c-20.7,0-41.4,0-62,0c-4.7,0.5-8.9-2.9-9.4-7.6c-0.5-4.7,2.9-8.9,7.6-9.4
			c0.2,0,0.4,0,0.6,0c0.7-0.1,1.3,0,2,0c41.1,0,82.2,0,123.3,0c1.6-0.1,3.1,0.2,4.6,0.6c3.8,1.4,6,5.3,5.3,9.3c-0.7,4-4,6.9-8,7.2
			c-0.7,0.1-1.5,0-2.2,0L71.5,202.8"/>
	</g>
</g>
</svg>
