<?xml version="1.0" encoding="utf-8"?>
<!-- Generator: Adobe Illustrator 26.0.0, SVG Export Plug-In . SVG Version: 6.00 Build 0)  -->
<svg version="1.1" id="Layer_1" xmlns="http://www.w3.org/2000/svg" xmlns:xlink="http://www.w3.org/1999/xlink" x="0px" y="0px"
	 viewBox="0 0 209.8 223.5" style="enable-background:new 0 0 209.8 223.5;" xml:space="preserve">
<style type="text/css">
	.st0{clip-path:url(#SVGID_00000093863373423412019300000016079662558062657724_);}
	.st1{fill:#55387B;}
	.st2{fill:#E31929;}
</style>
<g id="Group_1922" transform="translate(0 0)">
	<g>
		<defs>
			<rect id="SVGID_1_" width="209.8" height="223.5"/>
		</defs>
		<clipPath id="SVGID_00000141452660180183047250000015884148422749321105_">
			<use xlink:href="#SVGID_1_"  style="overflow:visible;"/>
		</clipPath>
		
			<g id="Group_1922-2" transform="translate(0 0)" style="clip-path:url(#SVGID_00000141452660180183047250000015884148422749321105_);">
			<path id="Path_1459" class="st1" d="M126.9,0c3.4,1,6,3.7,6.9,7c1.3,5-1.8,10.1-6.8,11.4c-0.7,0.2-1.3,0.3-2,0.3c-1,0.1-2,0-3,0
				c-2.6,0-3.3,1.1-2.7,3.7c0.3,1,1,0.7,1.5,0.7c10.8,1.5,21.4,4.7,31.2,9.6c8.1,4,15.6,9.1,22.2,15.1c1.2,1.1,1.8,1.1,2.9-0.1
				c2.1-2.2,4.3-4.3,6.6-6.6c-1.5-1.5-2.9-2.9-4.3-4.2c-0.7-0.7-1-1.2-0.1-2c4.7-4.6,9.4-9.3,14-14c0.8-0.8,1.2-0.7,1.9,0
				c4.7,4.7,9.3,9.4,14,14c0.7,0.7,0.8,1.1,0,1.9c-4.7,4.6-9.4,9.3-14,14c-0.9,0.9-1.3,0.6-2-0.1c-1.3-1.4-2.7-2.8-4.2-4.4
				c-2.3,2.3-4.4,4.6-6.7,6.8c-1,1-1,1.6-0.1,2.6c5.8,6.4,10.6,13.4,14.5,21.1c8.5,16.4,12.3,34.8,10.9,53.2
				c-1.3,19.2-8.2,37.6-19.9,53c-14,19-34.4,32.3-57.4,37.6c-14.6,3.5-29.8,3.6-44.5,0.4c-2.8-0.6-4.3-2.3-3.9-4.6
				c0.4-2.3,2.5-3.4,5.4-2.9c0.4,0.1,0.9,0.1,1.3,0.2c4.7,1,9.5,1.6,14.2,1.8c1.1,0.1,1.4-0.1,1.4-1.2c-0.1-1.8-0.1-3.6,0-5.5
				c-0.2-2.2,1.5-4.1,3.6-4.3c0,0,0.1,0,0.1,0c2.2,0.1,3.9,1.9,3.8,4c0,0.1,0,0.1,0,0.2c0.1,1.5,0.1,3.1,0,4.6
				c-0.1,1.6,0.2,2.2,2.1,2.1c8.8-0.6,17.4-2.5,25.6-5.5c3.4-1.3,6.7-2.7,9.9-4.3c0.9-0.4,1.1-0.8,0.6-1.8c-1-1.6-2-3.2-2.8-4.9
				c-1.2-1.7-0.7-4.1,1-5.2c1.7-1.2,4.1-0.7,5.2,1c0.1,0.2,0.2,0.3,0.3,0.5c1,1.5,1.9,3.1,2.7,4.7c0.5,1,0.9,1.2,1.9,0.5
				c10.7-7.1,19.9-16.2,26.9-26.9c0.7-1.1,0.4-1.4-0.6-1.9c-1.6-0.8-3.2-1.8-4.7-2.7c-1.9-0.9-2.6-3.2-1.7-5c0.9-1.9,3.2-2.6,5-1.7
				c0.2,0.1,0.3,0.2,0.4,0.3c1.6,0.8,3.2,1.8,4.7,2.7c0.9,0.6,1.4,0.7,2-0.5c5-9.8,8.2-20.5,9.4-31.5c0.2-1.8,0.3-3.6,0.5-5.4
				c0.1-1-0.2-1.4-1.3-1.4c-2,0.1-3.9,0.1-5.9,0c-2,0-3.7-1.6-3.8-3.7c0,0,0,0,0,0c0-2.1,1.7-3.7,3.8-3.7c2-0.1,3.9-0.1,5.9,0
				c1.1,0,1.3-0.3,1.3-1.4c-0.7-12.9-4.1-25.6-9.9-37.1c-0.5-1-0.9-0.9-1.6-0.4c-1.7,1-3.3,2-5.1,2.9c-1.7,1.1-4,0.6-5.1-1.1
				c0,0,0,0,0,0c-1.1-1.8-0.6-4.1,1.2-5.2c0,0,0.1-0.1,0.1-0.1c1.6-1.1,3.3-2.1,5.1-3c1-0.5,1-0.9,0.4-1.8
				c-7.1-10.7-16.2-19.9-26.9-27c-1-0.6-1.4-0.6-1.9,0.5c-0.9,1.7-1.8,3.3-2.8,4.9c-0.9,1.8-3.2,2.6-5,1.6c-1.8-0.9-2.6-3.2-1.6-5
				c0-0.1,0.1-0.1,0.1-0.2c0.9-1.7,1.9-3.4,2.9-5.1c0.5-0.8,0.5-1.3-0.5-1.8c-9.7-4.9-20.2-8.1-31-9.4c-1.8-0.2-3.6-0.3-5.4-0.5
				c-1-0.1-1.3,0.2-1.2,1.2c0.1,1.9,0.1,3.8,0,5.7c0.1,2.1-1.4,3.9-3.5,4c0,0-0.1,0-0.1,0c-2.2,0-3.9-1.8-3.9-4c0-0.1,0-0.1,0-0.2
				c0-1.2,0-2.3,0-3.5c0-3.4,0-3.4-3.5-3.2c-4.5,0.3-9,0.9-13.3,1.9c-2.8,0.6-4.8-0.4-5.4-2.6c-0.6-2.2,0.8-4.1,3.6-4.7
				c3.1-0.8,6.2-1.3,9.4-1.6c2.6-0.1,1.5-1.9,1.7-3.2c0.3-1.6-0.9-1.3-1.8-1.3c-1.3,0-2.6,0.1-3.9,0c-4.5-0.1-8.3-3.5-9.1-7.9
				c-0.6-4.4,1.9-8.7,6.1-10.2c0.3-0.1,0.7-0.1,0.9-0.5H126.9z M108,7.4H91.9c-1.3,0-2.4,0.6-2.4,2c0,1.3,1.1,1.7,2.4,1.7
				c2.3,0,4.6,0,7,0c5.5,0,5.4,0,5.5,5.5c0,1.9-0.8,4.4,0.4,5.4c1.2,0.9,3.6,0.2,5.5,0.3c1.2,0.1,1.5-0.3,1.5-1.4
				c-0.1-2.5,0.1-4.9-0.1-7.4c-0.1-1.9,0.3-2.5,2.3-2.4c3.6,0.2,7.1,0.1,10.7,0c1.1,0,1.8-0.5,1.9-1.7s-0.7-1.7-1.7-1.9
				c-0.6-0.1-1.2-0.1-1.7-0.1C118,7.4,113,7.4,108,7.4 M194.3,30.9c-0.3,0.2-0.4,0.3-0.6,0.5c-1.3,1.3-2.7,2.7-4,4
				c-0.5,0.5-0.4,0.8,0.1,1.2c1.3,1.3,2.6,2.5,3.8,3.9c0.5,0.5,0.8,0.6,1.4,0c1.4-1.5,3.9-2.9,4-4.6c0.1-1.3-2.5-2.9-3.9-4.3
				C194.8,31.3,194.6,31.1,194.3,30.9"/>
			<path id="Path_1460" class="st1" d="M110.5,141.5c-6.8-0.4-11.4-4-13-9.3c-1.8-5.7,0.4-11.9,5.4-15.1
				c14.2-10.3,28.3-20.5,42.5-30.8c1.5-1.1,3-2.3,4.6-3.3c1.5-1.4,3.8-1.4,5.4,0c1.6,1.5,1.6,3.3,0.1,5.5
				c-7.4,10.3-14.9,20.6-22.3,30.9c-3.9,5.4-7.8,10.8-11.7,16.2C118.9,139.2,114.8,141.5,110.5,141.5 M134.6,103.4
				c-3.1,2.3-6.1,4.4-9.1,6.6c-6.2,4.5-12.5,9-18.7,13.5c-2,1.3-2.9,3.8-2.3,6.1c0.4,2.1,2.1,3.8,4.2,4.2c2.6,0.6,5.4-0.7,6.6-3.1
				c6.1-8.5,12.2-16.9,18.3-25.4C134.1,104.8,134.8,104.4,134.6,103.4"/>
			<path id="Path_1461" class="st2" d="M39.2,137.9c-11.5,0-23,0-34.4,0c-3.6,0-5.6-2.4-4.4-5.2c0.4-1.2,1.4-2.1,2.7-2.2
				c0.9-0.1,1.7-0.2,2.6-0.2c22.3,0,44.6,0,66.9,0c0.7,0,1.4,0,2.2,0.1c2,0.1,3.5,1.7,3.6,3.7c-0.1,2-1.6,3.6-3.6,3.8
				c-0.7,0.1-1.3,0.1-2,0.1L39.2,137.9"/>
			<path id="Path_1462" class="st2" d="M46.5,111.7c-9.1,0-18.3,0-27.5,0c-2,0.2-3.9-1.3-4.1-3.3c-0.1-0.7,0-1.4,0.3-2
				c0.8-1.5,2.4-2.4,4.1-2.2c13.7,0,27.3,0,41,0c4.4,0,8.9,0,13.3,0c2.9,0,4.6,1.5,4.6,3.8c-0.1,2.2-1.8,3.6-4.5,3.6
				C64.7,111.7,55.6,111.7,46.5,111.7"/>
			<path id="Path_1463" class="st2" d="M50.3,156.3c7.8,0,15.6,0,23.3,0c3.4,0,5.4,2.3,4.4,5.1c-0.7,1.8-2.6,2.9-4.5,2.6
				c-3.6,0-7.3,0-10.9,0c-11.6,0-23.1,0-34.7,0c-3.6,0-5.5-1.3-5.5-3.8s1.9-3.9,5.5-3.9C35.3,156.3,42.8,156.3,50.3,156.3"/>
			<path id="Path_1464" class="st2" d="M55.8,85.7c-5.6,0-11.2,0-16.8,0c-0.8,0-1.6-0.1-2.4-0.2c-1.7-0.2-2.9-1.6-3-3.2
				c-0.2-1.6,0.6-3.1,2.1-3.7c0.8-0.4,1.7-0.5,2.6-0.4c11.8,0,23.6,0,35.3,0c1.5-0.2,3.1,0.5,4,1.7c1.2,1.7,0.8,3.9-0.9,5.1
				c-0.7,0.5-1.5,0.7-2.4,0.7c-4.9,0.1-9.9,0-14.8,0.1L55.8,85.7"/>
			<path id="Path_1465" class="st2" d="M61.6,189.9c-4.1,0-8.3,0-12.4,0c-2.9,0-4.6-1.4-4.5-3.8c0.1-2.3,1.7-3.7,4.5-3.7
				c8.2,0,16.4,0,24.6,0c2.7,0,4.4,1.5,4.5,3.8c0,2.2-1.7,3.7-4.4,3.7C69.8,190,65.7,189.9,61.6,189.9"/>
			<path id="Path_1466" class="st2" d="M65.1,59.7c-2.9,0-5.8,0-8.7,0c-1.8,0.2-3.5-0.9-4.1-2.7c-0.5-1.5,0-3.2,1.3-4.1
				c0.9-0.6,2-0.9,3.1-0.9c5.7,0,11.3,0,17,0c2.8,0,4.6,1.6,4.6,3.9c0,2.2-1.8,3.8-4.7,3.8C70.8,59.7,68,59.7,65.1,59.7"/>
			<path id="Path_1467" class="st1" d="M108.6,6.5h20.1c0.8,0,1.6,0,2.3,0.1c1.4,0.2,2.3,0.9,2.3,2.5s-1.1,2.2-2.5,2.2
				c-4.7,0-9.5,0.2-14.2,0c-2.7-0.1-3.3,0.8-3.1,3.3c0.2,3.3,0,6.6,0.1,9.9c0,1.5-0.4,2-1.9,1.9c-2.5-0.2-5.8,0.8-7.3-0.4
				c-1.7-1.3-0.5-4.7-0.5-7.2c-0.1-7.4,0-7.4-7.3-7.4c-3.1,0-6.2,0-9.3,0c-1.6,0-3.1-0.5-3.1-2.2c0-1.9,1.4-2.6,3.2-2.6L108.6,6.5"
				/>
		</g>
	</g>
</g>
</svg>
