<?xml version="1.0" encoding="utf-8"?>
<!-- Generator: Adobe Illustrator 26.0.0, SVG Export Plug-In . SVG Version: 6.00 Build 0)  -->
<svg version="1.1" id="Layer_1" xmlns="http://www.w3.org/2000/svg" xmlns:xlink="http://www.w3.org/1999/xlink" x="0px" y="0px"
	 viewBox="0 0 307.16 338" style="enable-background:new 0 0 307.16 338;" xml:space="preserve">
<style type="text/css">
	.st0{clip-path:url(#SVGID_00000041260577993370355470000017906144997892081026_);}
	.st1{fill:#E31929;}
	.st2{fill:#55387B;}
</style>
<g>
	<defs>
		<rect id="SVGID_1_" width="307.16" height="338"/>
	</defs>
	<clipPath id="SVGID_00000137134033365960654670000002160415812343352745_">
		<use xlink:href="#SVGID_1_"  style="overflow:visible;"/>
	</clipPath>
	<g id="Group_25" style="clip-path:url(#SVGID_00000137134033365960654670000002160415812343352745_);">
		<path id="Path_73" class="st1" d="M148,337.98c-8.29-3.57-16.52-7.26-24.43-11.65c-44.82-24.46-80.5-62.78-101.71-109.23
			c-10.64-22.87-17.5-47.32-20.3-72.39c-1.63-22.27-2.09-44.6-1.4-66.91c0.01-0.77,0.1-1.54,0.27-2.29
			c1.61-9.66,8.41-17.64,17.69-20.76c13.5-4.76,24.83-14.23,31.9-26.68c1.89-3.46,3.5-7.06,4.83-10.77
			C58.71,6.77,68.81-0.17,80.02,0c49.06,0,98.12,0,147.17,0c11.24-0.26,21.38,6.72,25.13,17.32c6,17.77,19.94,31.72,37.71,37.73
			c10.42,3.9,17.25,13.93,17.06,25.05c0,13.31,0.15,26.62,0,39.93c-0.27,51.66-17.56,101.8-49.2,142.64
			c-23.9,31.49-55.42,56.37-91.6,72.29c-2.7,1.21-5.59,2.03-8.38,3.04L148,337.98z M153.73,19.79H82.12c-5.67,0-7.38,1.2-9.36,6.38
			c-7.91,21.8-25.06,38.99-46.85,46.95c-3.97,0.81-6.6,4.59-5.98,8.59c0,11.77-0.06,23.54,0,35.3c-0.13,19.24,2.39,38.4,7.48,56.96
			c16.75,63.69,61.6,116.28,121.85,142.88c2.88,1.4,6.25,1.34,9.08-0.16c48.28-21.46,87.02-59.86,108.9-107.95
			c11.56-24.8,18.2-51.6,19.55-78.93c0.85-15.72,0.3-31.45,0.49-47.17c0.07-6.05-1.15-7.73-6.65-9.88
			c-21.54-7.97-38.46-25.05-46.21-46.68c-0.77-4.25-4.84-7.07-9.1-6.3c0,0,0,0-0.01,0h-71.61"/>
		<path id="Path_74" class="st1" d="M219.65,184.97c-0.23,8.21,0.38,18.33-0.32,28.44c-1.81,22.63-20.64,40.1-43.34,40.23
			c-14.96,0-29.92,0.26-44.87-0.06c-24.31-0.3-43.78-20.24-43.49-44.55c-0.27-18.58-0.15-37.17,0-55.76
			c-0.66-12.84,9.06-23.85,21.88-24.79c2.29-0.32,2.77-1.11,2.74-3.25c-0.09-9.13-0.25-18.26,0.1-27.38
			c1.23-22.83,20.74-40.33,43.57-39.1c22.28,1.21,39.6,19.85,39.15,42.16c-0.06,8.14,0,16.27-0.04,24.41c0,1.86,0.14,2.8,2.49,3.13
			c13.12,0.89,23.03,12.24,22.14,25.36c0,0.07-0.01,0.14-0.01,0.2C219.7,163.71,219.65,173.39,219.65,184.97 M153.7,148.36
			c-13.64,0-27.28,0-40.92,0c-4.01,0-5.11,1.15-5.12,5.06c0,18.48-0.06,36.96,0,55.45c-0.32,13.41,10.28,24.54,23.69,24.86
			c0.46,0.01,0.92,0.01,1.38-0.01c13.75,0.03,27.5,0.03,41.25,0c13.43,0.69,24.88-9.63,25.57-23.06c0.04-0.76,0.04-1.53,0.01-2.29
			c0.05-18.15,0-36.3,0-54.46c0-4.58-0.95-5.56-5.62-5.56c-13.42,0-26.84,0-40.27,0 M153.43,128.22c6.37,0,12.74-0.07,19.1,0.05
			c1.94,0.03,2.64-0.34,2.6-2.47c-0.14-8.78,0.03-17.57-0.1-26.35c-0.39-11.85-10.31-21.14-22.15-20.75
			c-11.3,0.37-20.38,9.45-20.75,20.75c-0.12,8.78,0.05,17.57-0.09,26.35c-0.03,2.15,0.69,2.5,2.61,2.47
			C140.9,128.14,147.17,128.21,153.43,128.22"/>
		<path id="Path_75" class="st2" d="M163.68,191.12c0,2.86,0.06,5.73,0,8.59c0.35,5.55-3.85,10.33-9.4,10.69
			c-5.55,0.35-10.33-3.85-10.69-9.4c-0.02-0.39-0.03-0.78-0.01-1.17c-0.11-5.82-0.11-11.64,0-17.46c-0.35-5.55,3.85-10.33,9.4-10.69
			c5.55-0.35,10.33,3.85,10.69,9.4c0.02,0.39,0.03,0.78,0.01,1.17c0.09,2.96,0,5.93,0,8.9"/>
	</g>
</g>
</svg>
