<?xml version="1.0" encoding="utf-8"?>
<!-- Generator: Adobe Illustrator 26.0.0, SVG Export Plug-In . SVG Version: 6.00 Build 0)  -->
<svg version="1.1" id="Layer_1" xmlns="http://www.w3.org/2000/svg" xmlns:xlink="http://www.w3.org/1999/xlink" x="0px" y="0px"
	 viewBox="0 0 397.59 442.03" style="enable-background:new 0 0 397.59 442.03;" xml:space="preserve">
<style type="text/css">
	.st0{clip-path:url(#SVGID_00000082348111053194484410000015075508775013760644_);}
	.st1{fill:#E31929;}
	.st2{fill:#55387B;}
</style>
<g>
	<defs>
		<rect id="SVGID_1_" x="0.01" width="397.56" height="442"/>
	</defs>
	<clipPath id="SVGID_00000034793787469258758830000011644295681813515693_">
		<use xlink:href="#SVGID_1_"  style="overflow:visible;"/>
	</clipPath>
	<g id="Group_22" style="clip-path:url(#SVGID_00000034793787469258758830000011644295681813515693_);">
		<path id="Path_63" class="st1" d="M195.34,442c-3.85-2.92-5.87-7.66-5.29-12.46c0.29-17.24,0.1-34.48,0.11-51.72
			c0-6.32,3.22-10.03,8.63-10.03c5.41,0,8.63,3.71,8.63,10.03c0,17.67-0.14,35.35,0.1,53.02c0.63,4.67-1.86,9.21-6.14,11.2
			L195.34,442z"/>
		<path id="Path_64" class="st1" d="M206,100.1c32.39,0.18,68.2,12.33,101.42,32.83c34.01,21.2,63.6,48.79,87.13,81.24
			c3.76,3.37,4.09,9.15,0.72,12.91c-0.21,0.24-0.44,0.47-0.68,0.69c-32.74,43.67-72.5,78.67-123.5,99.66
			c-26.43,11.09-55.06,15.94-83.67,14.16c-31.44-2.22-61.93-11.69-89.1-27.67c-37.45-21.7-69.91-51.04-95.26-86.12
			c-3.77-3.35-4.1-9.12-0.75-12.89c0.22-0.25,0.46-0.49,0.71-0.71c30.82-41.36,68.27-74.79,115.58-96.32
			c27.43-12.42,57.3-18.52,87.41-17.84 M202.03,324.57c22.04-0.58,43.77-5.31,64.06-13.95c44.84-18.87,80.23-49.71,110.19-87.39
			c1.77-2.23,0.78-3.5-0.5-5.1c-21.42-27.69-47.52-51.42-77.13-70.11c-25.06-16.08-53.46-26.24-83.04-29.68
			c-32.33-3.14-64.89,2.88-93.96,17.37c-39.28,19.49-73.54,47.77-100.11,82.66c-2.03,2.54-1,3.94,0.51,5.83
			c21.11,27.2,46.75,50.57,75.79,69.07c31.05,20.14,67.2,31.02,104.22,31.35"/>
		<path id="Path_65" class="st1" d="M190.15,37c0-9.21-0.03-18.41,0-27.61c-0.4-4.76,3.15-8.95,7.91-9.34
			c4.76-0.4,8.95,3.15,9.34,7.91c0.04,0.49,0.04,0.98,0,1.47c0.03,18.41,0.03,36.82,0,55.23c0.52,4.77-2.93,9.05-7.69,9.57
			c-4.77,0.52-9.05-2.93-9.57-7.69c-0.07-0.64-0.07-1.29,0.01-1.93c-0.03-9.21,0-18.41,0-27.61"/>
		<path id="Path_66" class="st1" d="M71.82,119.94c-2.7-0.2-5.22-1.4-7.08-3.36c-11.77-11.78-23.59-23.52-35.31-35.35
			c-3.69-3.12-4.16-8.64-1.04-12.33c3.12-3.69,8.64-4.16,12.33-1.04c0.31,0.26,0.6,0.55,0.87,0.85
			c11.95,11.81,23.83,23.68,35.65,35.62c3.01,2.45,3.99,6.61,2.39,10.15C78.27,117.62,75.25,119.74,71.82,119.94"/>
		<path id="Path_67" class="st1" d="M326.4,119.9c-4.91,0.11-8.99-3.78-9.1-8.7c-0.03-1.17,0.18-2.33,0.6-3.42
			c0.75-1.55,1.79-2.94,3.07-4.1c11.37-11.37,22.74-22.74,34.11-34.12c2.14-2.8,5.64-4.2,9.12-3.67c4.67,0.83,7.79,5.3,6.95,9.97
			c-0.3,1.66-1.08,3.2-2.24,4.42c-12.16,12.61-24.67,24.87-37.09,37.22c-1.48,1.41-3.4,2.25-5.44,2.39"/>
		<path id="Path_68" class="st1" d="M80.47,339.56c-0.25,2.63-1.45,5.09-3.37,6.9c-11.79,11.77-23.53,23.59-35.37,35.3
			c-3.17,3.65-8.7,4.03-12.34,0.86c-3.65-3.17-4.03-8.7-0.86-12.34c0.23-0.26,0.48-0.52,0.74-0.75
			c11.81-11.94,23.69-23.83,35.63-35.65c2.45-3.01,6.63-3.97,10.15-2.35c3.21,1.39,5.32,4.52,5.41,8.02"/>
		<path id="Path_69" class="st1" d="M317.14,338.84c0.39-3.31,2.55-6.15,5.64-7.41c3.42-1.47,7.39-0.52,9.77,2.33
			c8.68,8.58,17.29,17.24,25.92,25.86c3.25,3.25,6.57,6.44,9.73,9.77c3.67,3,4.21,8.41,1.21,12.09c-0.25,0.31-0.53,0.6-0.82,0.87
			c-3.24,3.37-8.59,3.47-11.96,0.23c-0.24-0.23-0.47-0.48-0.68-0.74c-12.05-11.9-23.99-23.93-35.95-35.93
			c-1.9-1.86-2.93-4.43-2.83-7.08"/>
		<path id="Path_70" class="st2" d="M198.92,143.33c42.96,0.03,77.76,34.87,77.73,77.83c-0.03,42.96-34.87,77.76-77.83,77.73
			c-38.71-0.02-71.52-28.51-76.96-66.84c-1.08-7.83-1.03-15.78,0.15-23.6c0.22-5.06,4.49-8.98,9.55-8.77c0.08,0,0.16,0.01,0.24,0.01
			c4.69,0.44,8.14,4.6,7.69,9.3c-0.04,0.44-0.12,0.88-0.23,1.3c-2.21,13.27-0.05,26.89,6.16,38.82
			c15.51,29.5,51.99,40.85,81.5,25.35c29.5-15.51,40.85-51.99,25.35-81.5c-10.8-20.56-32.45-33.09-55.66-32.23
			c-6.17,0.32-12.27,1.46-18.13,3.4c-6.49,2.11-10.83,0.34-12.61-5.02c-1.7-5.1,0.78-9.26,6.89-11.39
			C181.15,144.67,190.01,143.18,198.92,143.33"/>
		<path id="Path_71" class="st1" d="M198.6,255.54c-19.09-0.09-34.49-15.63-34.4-34.72c0.09-19.09,15.63-34.49,34.72-34.4
			c19.09,0.09,34.49,15.63,34.4,34.72c0,0.05,0,0.1,0,0.15c-0.08,19-15.55,34.33-34.54,34.25
			C198.72,255.54,198.66,255.54,198.6,255.54 M198.83,203.76c-9.52-0.03-17.27,7.67-17.3,17.2c-0.03,9.52,7.67,17.27,17.2,17.3
			c9.49,0.03,17.22-7.62,17.3-17.1C215.93,211.65,208.32,203.95,198.83,203.76"/>
		<path id="Path_72" class="st1" d="M147.05,169.2c4.77,0.03,8.62,3.92,8.59,8.69c-0.03,4.77-3.92,8.62-8.69,8.59
			c-4.74-0.03-8.57-3.86-8.59-8.6c-0.1-4.69,3.62-8.58,8.31-8.68C146.8,169.2,146.92,169.2,147.05,169.2"/>
	</g>
</g>
</svg>
