<?xml version="1.0" encoding="utf-8"?>
<!-- Generator: Adobe Illustrator 26.0.0, SVG Export Plug-In . SVG Version: 6.00 Build 0)  -->
<svg version="1.1" id="Layer_1" xmlns="http://www.w3.org/2000/svg" xmlns:xlink="http://www.w3.org/1999/xlink" x="0px" y="0px"
	 viewBox="0 0 265.9 266" style="enable-background:new 0 0 265.9 266;" xml:space="preserve">
<style type="text/css">
	.st0{clip-path:url(#SVGID_00000141436728471310016220000002913461951080431277_);}
	.st1{fill:#E31929;}
</style>
<g>
	<defs>
		<rect id="SVGID_1_" width="265.9" height="266"/>
	</defs>
	<clipPath id="SVGID_00000121972377999095733910000007955342242558603427_">
		<use xlink:href="#SVGID_1_"  style="overflow:visible;"/>
	</clipPath>
	<g id="Group_1921-2" style="clip-path:url(#SVGID_00000121972377999095733910000007955342242558603427_);">
		<path id="Path_1455" class="st1" d="M0,122.2c0.8-2.8,1.3-5.8,1.4-8.7c7.5-51.8,45-94.3,95.5-108.2c53.2-14,99,0.1,136.2,40.7
			c17.4,19.1,28.5,43.1,31.5,68.8c5.3,35.8-4.5,72.1-27.2,100.3c-19.1,24.8-46.5,41.9-77.2,48.2c-5.4,1.3-10.9,2-16.4,2.3
			c-0.4,0-0.9-0.1-1,0.5H122c-0.1-0.6-0.6-0.5-1-0.5c-7.7-0.7-15.4-2-22.9-4.1C47.2,247.5,9.3,204.9,1.4,152.7
			c-0.1-3-0.6-5.9-1.4-8.7V122.2z M254.3,133.2c0.1-67-54.1-121.4-121.2-121.5S11.7,65.8,11.6,132.8s54.1,121.4,121.2,121.5
			c0,0,0,0,0.1,0C199.7,254.3,254,200.1,254.3,133.2"/>
		<path id="Path_1456" class="st1" d="M136.1,196.3c-22.3,1.2-44-7.7-59-24.2c-2.4-2.2-2.6-6-0.3-8.4c0.1-0.1,0.1-0.1,0.2-0.2
			c2.3-2.2,6-2.1,8.2,0.2c0.1,0.1,0.1,0.1,0.2,0.2c4.1,4.3,8.7,8.1,13.7,11.4c25.8,16,59.3,11.7,80.3-10.2c1-1.3,2.4-2.3,3.9-2.9
			c3.1-0.9,6.3,0.8,7.2,3.9c0.6,2,0.1,4.2-1.4,5.7c-2.2,2.3-4.5,4.6-6.9,6.7c-11.6,9.9-25.9,16.1-41.1,17.8
			C139.4,196.4,137.8,196.4,136.1,196.3"/>
		<path id="Path_1457" class="st1" d="M86.3,92.6c15.6-0.1,28.6,12.1,29.3,27.7c0.5,3.4-1.9,6.5-5.3,7c-0.1,0-0.2,0-0.3,0
			c-3.3,0.2-5.8-2.5-6.1-6.6c-0.2-6.2-3.8-11.8-9.3-14.5c-8.5-4.3-18.8-1-23.1,7.5c-1,2-1.7,4.2-1.8,6.5c-0.3,5.3-3.6,8.1-7.7,6.8
			c-2.7-0.9-4.5-3.6-4.2-6.4c0.5-13.6,10.4-25,23.8-27.5C83.1,92.7,84.7,92.5,86.3,92.6"/>
		<path id="Path_1458" class="st1" d="M208.1,120.5c0.5,3.2-1.8,6.3-5,6.7c-3.2,0.5-6.3-1.8-6.7-5c-0.1-0.5-0.1-1,0-1.5
			c-0.2-3.8-1.6-7.5-4.1-10.4c-6.2-7.2-17-8.1-24.3-1.9c-3.3,2.8-5.5,6.9-5.9,11.2c0,0.2,0,0.3,0,0.5c-0.3,4.7-2.9,7.5-6.4,7.1
			c-3.8-0.4-5.9-3.7-5.3-8.3c1.4-15.9,15.5-27.7,31.4-26.3C196.3,94,207.6,105.9,208.1,120.5"/>
	</g>
</g>
</svg>
