<?xml version="1.0" encoding="utf-8"?>
<!-- Generator: Adobe Illustrator 26.0.0, SVG Export Plug-In . SVG Version: 6.00 Build 0)  -->
<svg version="1.1" id="Layer_1" xmlns="http://www.w3.org/2000/svg" xmlns:xlink="http://www.w3.org/1999/xlink" x="0px" y="0px"
	 viewBox="0 0 297.17 235.19" style="enable-background:new 0 0 297.17 235.19;" xml:space="preserve">
<style type="text/css">
	.st0{fill:#EB3338;}
	.st1{fill:#55387B;}
	.st2{fill:#CD202D;}
</style>
<g>
	<polygon class="st0" points="266.21,99.97 256.6,55.94 219.92,41.6 297.17,20.57 	"/>
	<polygon class="st1" points="89.14,127.36 107.29,186.98 93.56,118.16 	"/>
</g>
<g>
	<polygon class="st2" points="165.51,55.81 141.52,103.2 204.45,235.19 225.86,180.27 	"/>
	<polygon class="st1" points="140.75,118.16 140.76,118.14 144.74,109.96 144.74,109.96 168.28,61.55 168.15,62.07 168.35,61.67 
		144.84,13.18 144.44,12.36 121.19,60.55 121.22,60.63 89.14,127.36 48.85,17.9 0,17.9 63.12,181.46 83.85,235.19 140.75,118.16 	
		"/>
	<polygon class="st0" points="174.38,74.11 150.3,121.6 204.45,235.19 225.86,180.27 	"/>
</g>
<polygon class="st1" points="151.74,95.57 198.51,3.07 150.36,0 134.05,33.9 "/>
</svg>
